<svg width="330" height="151" viewBox="0 0 330 151" fill="none" xmlns="http://www.w3.org/2000/svg">
<rect x="0.660156" y="0.767578" width="328.862" height="150" rx="8" fill="#F9F9F9"/>
<path d="M133.615 21.7588C133.867 21.7588 134.081 21.8475 134.259 22.0248C134.436 22.2021 134.525 22.4168 134.525 22.6688C134.525 22.9115 134.436 23.1215 134.259 23.2988C134.081 23.4761 133.867 23.5648 133.615 23.5648C133.363 23.5648 133.148 23.4761 132.971 23.2988C132.793 23.1215 132.705 22.9115 132.705 22.6688C132.705 22.4168 132.793 22.2021 132.971 22.0248C133.148 21.8475 133.363 21.7588 133.615 21.7588ZM135.743 21.7588C135.995 21.7588 136.209 21.8475 136.387 22.0248C136.564 22.2021 136.653 22.4168 136.653 22.6688C136.653 22.9115 136.564 23.1215 136.387 23.2988C136.209 23.4761 135.995 23.5648 135.743 23.5648C135.5 23.5648 135.29 23.4761 135.113 23.2988C134.935 23.1215 134.847 22.9115 134.847 22.6688C134.847 22.4168 134.935 22.2021 135.113 22.0248C135.29 21.8475 135.5 21.7588 135.743 21.7588ZM136.653 24.4608V29.5008C136.653 29.6128 136.685 29.6968 136.751 29.7528C136.807 29.8181 136.881 29.8508 136.975 29.8508H137.367V31.2788H136.485C136.055 31.2788 135.668 31.1061 135.323 30.7608C134.791 31.1995 134.198 31.4188 133.545 31.4188C132.807 31.4188 132.173 31.1855 131.641 30.7188C130.931 30.0561 130.577 29.1695 130.577 28.0588C130.577 27.0415 130.903 26.1968 131.557 25.5248C132.154 24.9181 132.887 24.6148 133.755 24.6148C134.24 24.6148 134.725 24.7175 135.211 24.9228L135.813 24.4608H136.653ZM134.945 26.2668C134.618 26.1455 134.305 26.0848 134.007 26.0848C133.503 26.0848 133.087 26.2715 132.761 26.6448C132.434 27.0088 132.271 27.4848 132.271 28.0728C132.271 28.6608 132.415 29.1321 132.705 29.4868C133.003 29.8415 133.4 30.0188 133.895 30.0188C134.231 30.0188 134.581 29.9441 134.945 29.7948V26.2668ZM141.485 24.8388V29.7388C141.485 30.1028 141.363 30.4388 141.121 30.7468C140.813 31.1015 140.43 31.2788 139.973 31.2788H137.27V29.8508H139.427C139.529 29.8508 139.618 29.8135 139.693 29.7388C139.758 29.6735 139.791 29.5941 139.791 29.5008V24.8388H141.485ZM140.323 32.3008C140.575 32.3008 140.789 32.3895 140.967 32.5668C141.144 32.7441 141.233 32.9588 141.233 33.2108C141.233 33.4628 141.144 33.6775 140.967 33.8548C140.789 34.0321 140.575 34.1208 140.323 34.1208C140.071 34.1208 139.856 34.0321 139.679 33.8548C139.511 33.6775 139.427 33.4628 139.427 33.2108C139.427 32.9588 139.511 32.7441 139.679 32.5668C139.856 32.3895 140.071 32.3008 140.323 32.3008ZM146.401 31.2788C145.374 31.2788 144.567 30.9288 143.979 30.2288C143.484 29.6315 143.237 28.8941 143.237 28.0168C143.237 26.9715 143.531 26.1548 144.119 25.5668C144.735 24.9695 145.524 24.6708 146.485 24.6708C147.185 24.6708 147.792 24.8435 148.305 25.1888C148.977 25.6741 149.313 26.3648 149.313 27.2608V29.8508H149.761V31.2788H149.299C149.234 32.2868 148.879 33.0755 148.235 33.6448C147.787 34.0461 147.25 34.3215 146.625 34.4708C146.186 34.5735 145.757 34.6248 145.337 34.6248C145.197 34.6248 144.996 34.6155 144.735 34.5968H144.693L143.979 33.7148V33.0988C144.362 33.1641 144.721 33.1968 145.057 33.1968C146.588 33.1968 147.423 32.5575 147.563 31.2788H146.401ZM147.605 27.2608C147.605 26.8875 147.484 26.5935 147.241 26.3788C147.026 26.1921 146.774 26.0988 146.485 26.0988C146.009 26.0988 145.631 26.2668 145.351 26.6028C145.071 26.9388 144.931 27.4008 144.931 27.9888C144.931 28.5581 145.085 29.0108 145.393 29.3468C145.701 29.6828 146.121 29.8508 146.653 29.8508H147.605V27.2608ZM151.015 21.7588C151.267 21.7588 151.482 21.8475 151.659 22.0248C151.837 22.2021 151.925 22.4168 151.925 22.6688C151.925 22.9115 151.837 23.1215 151.659 23.2988C151.482 23.4761 151.267 23.5648 151.015 23.5648C150.763 23.5648 150.549 23.4761 150.371 23.2988C150.194 23.1215 150.105 22.9115 150.105 22.6688C150.105 22.4168 150.194 22.2021 150.371 22.0248C150.549 21.8475 150.763 21.7588 151.015 21.7588ZM153.143 21.7588C153.395 21.7588 153.61 21.8475 153.787 22.0248C153.965 22.2021 154.053 22.4168 154.053 22.6688C154.053 22.9115 153.965 23.1215 153.787 23.2988C153.61 23.4761 153.395 23.5648 153.143 23.5648C152.901 23.5648 152.691 23.4761 152.513 23.2988C152.336 23.1215 152.247 22.9115 152.247 22.6688C152.247 22.4168 152.336 22.2021 152.513 22.0248C152.691 21.8475 152.901 21.7588 153.143 21.7588ZM153.871 24.8388V29.6408V29.8508H154.585V31.2788H154.095L153.577 30.7048H153.549C153.232 31.0875 152.835 31.2788 152.359 31.2788H149.657V29.8508H151.771C151.902 29.8508 151.995 29.8135 152.051 29.7388C152.135 29.6641 152.177 29.5708 152.177 29.4588V24.8388H153.871ZM161.161 21.0588V22.6408L158.235 24.4328C159.467 24.8621 160.438 25.5901 161.147 26.6168C161.782 27.5315 162.099 28.5441 162.099 29.6548C162.099 29.6735 162.099 29.7061 162.099 29.7528C162.099 29.7995 162.099 29.8321 162.099 29.8508H162.547V31.2788H162.281L161.805 30.7048H161.777C161.451 31.0875 161.054 31.2788 160.587 31.2788H154.483V29.8508H160.041C160.284 29.8508 160.405 29.7295 160.405 29.4868C160.34 28.6935 160.055 27.9655 159.551 27.3028C158.767 26.3228 157.68 25.7628 156.289 25.6228C156.224 25.6228 156.191 25.5855 156.191 25.5108V23.9288L161.161 21.0588ZM164.946 29.8508C164.722 29.3095 164.61 28.7028 164.61 28.0308C164.61 26.9295 164.951 26.0755 165.632 25.4688C166.201 24.9555 166.929 24.6941 167.816 24.6848C168.609 24.6848 169.258 24.8715 169.762 25.2448C170.378 25.7115 170.686 26.3835 170.686 27.2608V29.5008C170.686 29.5848 170.709 29.6641 170.756 29.7388C170.831 29.8135 170.915 29.8508 171.008 29.8508H171.134V31.2788H170.518C170.098 31.2788 169.739 31.1295 169.44 30.8308C168.983 31.4095 168.376 31.6988 167.62 31.6988C166.808 31.6988 166.117 31.4001 165.548 30.8028H165.52L165.128 31.2788H162.454V29.8508H164.946ZM168.978 27.2608C168.978 26.9155 168.871 26.6355 168.656 26.4208C168.46 26.2061 168.18 26.0988 167.816 26.0988C167.359 26.0988 166.99 26.2761 166.71 26.6308C166.439 26.9855 166.304 27.4615 166.304 28.0588C166.304 28.7121 166.444 29.2441 166.724 29.6548C167.004 30.0655 167.363 30.2708 167.802 30.2708C168.203 30.2708 168.595 30.0795 168.978 29.6968V27.2608ZM175.254 21.2548V29.7388C175.254 30.1308 175.128 30.4668 174.876 30.7468C174.587 31.1015 174.209 31.2788 173.742 31.2788H171.04V29.8508H173.196C173.299 29.8508 173.387 29.8135 173.462 29.7388C173.527 29.6735 173.56 29.5941 173.56 29.5008V21.2548H175.254ZM178.897 21.2548V30.9288L178.029 31.6288H177.189V21.2548H178.897ZM186.238 21.7588C186.49 21.7588 186.7 21.8475 186.868 22.0248C187.045 22.2021 187.134 22.4168 187.134 22.6688C187.134 22.9208 187.045 23.1355 186.868 23.3128C186.7 23.4808 186.49 23.5648 186.238 23.5648C185.986 23.5648 185.771 23.4761 185.594 23.2988C185.416 23.1215 185.328 22.9115 185.328 22.6688C185.328 22.4168 185.416 22.2021 185.594 22.0248C185.771 21.8475 185.986 21.7588 186.238 21.7588ZM188.366 21.7588C188.618 21.7588 188.832 21.8475 189.01 22.0248C189.187 22.2021 189.276 22.4168 189.276 22.6688C189.276 22.9115 189.187 23.1215 189.01 23.2988C188.832 23.4761 188.618 23.5648 188.366 23.5648C188.114 23.5648 187.899 23.4761 187.722 23.2988C187.544 23.1215 187.456 22.9115 187.456 22.6688C187.456 22.4168 187.544 22.2021 187.722 22.0248C187.899 21.8475 188.114 21.7588 188.366 21.7588ZM189.276 24.4608V28.8288C189.276 29.6315 189 30.2708 188.45 30.7468C187.936 31.1855 187.232 31.4048 186.336 31.4048C185.346 31.4048 184.572 31.0875 184.012 30.4528C183.47 29.8835 183.2 29.1135 183.2 28.1428C183.2 27.0881 183.54 26.2201 184.222 25.5388C184.828 24.9228 185.58 24.6148 186.476 24.6148C186.952 24.6148 187.404 24.7221 187.834 24.9368L188.422 24.4608H189.276ZM187.568 26.2668C187.241 26.1361 186.933 26.0708 186.644 26.0708C186.121 26.0708 185.696 26.2621 185.37 26.6448C185.052 27.0275 184.894 27.5268 184.894 28.1428C184.894 28.7215 185.02 29.1741 185.272 29.5008C185.533 29.8181 185.892 29.9768 186.35 29.9768C186.76 29.9768 187.068 29.8648 187.274 29.6408C187.47 29.4168 187.568 29.1415 187.568 28.8148V26.2668ZM194.288 24.8388V30.9428C194.288 32.1001 193.934 32.9961 193.224 33.6308C192.767 34.0508 192.179 34.3448 191.46 34.5128C191.124 34.5781 190.774 34.6108 190.41 34.6108C190.289 34.6108 190.126 34.6015 189.92 34.5828L189.234 33.7288V33.1268C189.533 33.1735 189.822 33.1968 190.102 33.1968C191.754 33.1968 192.58 32.3941 192.58 30.7888V24.8388H194.288ZM197.928 21.2548V29.5008C197.928 29.5941 197.956 29.6688 198.012 29.7248C198.068 29.8088 198.157 29.8508 198.278 29.8508H198.642V31.2788H197.732C197.349 31.2788 197.013 31.1435 196.724 30.8728C196.388 30.5648 196.22 30.1868 196.22 29.7388V21.2548H197.928ZM207.886 20.0788C208.119 20.0788 208.315 20.1628 208.474 20.3308C208.633 20.4895 208.712 20.6855 208.712 20.9188C208.712 21.1521 208.633 21.3481 208.474 21.5068C208.315 21.6655 208.119 21.7448 207.886 21.7448C207.653 21.7448 207.452 21.6655 207.284 21.5068C207.125 21.3481 207.046 21.1521 207.046 20.9188C207.046 20.6855 207.125 20.4895 207.284 20.3308C207.452 20.1628 207.653 20.0788 207.886 20.0788ZM206.822 21.7588C207.074 21.7588 207.284 21.8475 207.452 22.0248C207.629 22.2021 207.718 22.4168 207.718 22.6688C207.718 22.9208 207.629 23.1355 207.452 23.3128C207.284 23.4808 207.074 23.5648 206.822 23.5648C206.57 23.5648 206.355 23.4808 206.178 23.3128C206.01 23.1355 205.926 22.9208 205.926 22.6688C205.926 22.4168 206.01 22.2021 206.178 22.0248C206.355 21.8475 206.57 21.7588 206.822 21.7588ZM208.936 21.7588C209.188 21.7588 209.403 21.8475 209.58 22.0248C209.757 22.2021 209.846 22.4168 209.846 22.6688C209.846 22.9115 209.757 23.1215 209.58 23.2988C209.403 23.4761 209.188 23.5648 208.936 23.5648C208.693 23.5648 208.483 23.4761 208.306 23.2988C208.129 23.1215 208.04 22.9115 208.04 22.6688C208.04 22.4168 208.129 22.2021 208.306 22.0248C208.483 21.8475 208.693 21.7588 208.936 21.7588ZM213.402 24.8388V29.4168V29.8508H214.116V31.2788H213.57L213.108 30.7048H213.08C212.763 31.0875 212.366 31.2788 211.89 31.2788H208.894L208.432 30.7048H208.39C208.082 31.0875 207.69 31.2788 207.214 31.2788H204.204L203.742 30.7048H203.7C203.392 31.0875 203 31.2788 202.524 31.2788H198.548V29.8508H201.978C202.211 29.8508 202.328 29.7341 202.328 29.5008V26.4488H204.036V29.4168C204.036 29.6128 204.031 29.7575 204.022 29.8508H206.668C206.901 29.8508 207.018 29.7341 207.018 29.5008V25.6368H208.726V29.3748C208.726 29.4308 208.721 29.5148 208.712 29.6268C208.712 29.7295 208.712 29.8041 208.712 29.8508H211.344C211.577 29.8508 211.694 29.7341 211.694 29.5008V24.8388H213.402ZM215.382 21.7588C215.634 21.7588 215.849 21.8475 216.026 22.0248C216.204 22.2021 216.292 22.4168 216.292 22.6688C216.292 22.9115 216.204 23.1215 216.026 23.2988C215.849 23.4761 215.634 23.5648 215.382 23.5648C215.13 23.5648 214.916 23.4761 214.738 23.2988C214.561 23.1215 214.472 22.9115 214.472 22.6688C214.472 22.4168 214.561 22.2021 214.738 22.0248C214.916 21.8475 215.13 21.7588 215.382 21.7588ZM217.51 21.7588C217.762 21.7588 217.977 21.8475 218.154 22.0248C218.332 22.2021 218.42 22.4168 218.42 22.6688C218.42 22.9115 218.332 23.1215 218.154 23.2988C217.977 23.4761 217.762 23.5648 217.51 23.5648C217.268 23.5648 217.058 23.4761 216.88 23.2988C216.703 23.1215 216.614 22.9115 216.614 22.6688C216.614 22.4168 216.703 22.2021 216.88 22.0248C217.058 21.8475 217.268 21.7588 217.51 21.7588ZM218.238 24.8388V29.6408V29.8508H218.952V31.2788H218.462L217.944 30.7048H217.916C217.599 31.0875 217.202 31.2788 216.726 31.2788H214.024V29.8508H216.138C216.269 29.8508 216.362 29.8135 216.418 29.7388C216.502 29.6641 216.544 29.5708 216.544 29.4588V24.8388H218.238ZM233.705 24.8388V29.7388C233.705 30.1588 233.555 30.5228 233.257 30.8308C232.967 31.1295 232.613 31.2788 232.193 31.2788H229.253L228.735 30.7048H228.693C228.385 31.0875 227.993 31.2788 227.517 31.2788H224.577L224.045 30.7048H224.003C223.695 31.0875 223.303 31.2788 222.827 31.2788H218.851V29.8508H222.281C222.514 29.8508 222.631 29.7341 222.631 29.5008V26.4488H224.339V29.2488C224.339 29.5195 224.334 29.7201 224.325 29.8508H226.971C227.204 29.8508 227.321 29.7341 227.321 29.5008V25.6368H229.029V29.3748C229.029 29.4308 229.024 29.5148 229.015 29.6268C229.015 29.7295 229.015 29.8041 229.015 29.8508H231.647C231.88 29.8508 231.997 29.7341 231.997 29.5008V24.8388H233.705ZM242.986 21.2548V29.7388C242.986 30.1401 242.855 30.4808 242.594 30.7608C242.295 31.1061 241.922 31.2788 241.474 31.2788H235.86L235.16 30.4108V29.8508H238.562L236.252 22.9768H237.848L240.172 29.8508H240.928C241.04 29.8508 241.133 29.8135 241.208 29.7388C241.255 29.6641 241.278 29.5848 241.278 29.5008V21.2548H242.986ZM246.627 21.2548V30.9288L245.759 31.6288H244.919V21.2548H246.627ZM253.968 21.7588C254.22 21.7588 254.435 21.8475 254.612 22.0248C254.789 22.2021 254.878 22.4168 254.878 22.6688C254.878 22.9115 254.789 23.1215 254.612 23.2988C254.435 23.4761 254.22 23.5648 253.968 23.5648C253.716 23.5648 253.501 23.4761 253.324 23.2988C253.147 23.1215 253.058 22.9115 253.058 22.6688C253.058 22.4168 253.147 22.2021 253.324 22.0248C253.501 21.8475 253.716 21.7588 253.968 21.7588ZM256.096 21.7588C256.348 21.7588 256.563 21.8475 256.74 22.0248C256.917 22.2021 257.006 22.4168 257.006 22.6688C257.006 22.9115 256.917 23.1215 256.74 23.2988C256.563 23.4761 256.348 23.5648 256.096 23.5648C255.853 23.5648 255.643 23.4761 255.466 23.2988C255.289 23.1215 255.2 22.9115 255.2 22.6688C255.2 22.4168 255.289 22.2021 255.466 22.0248C255.643 21.8475 255.853 21.7588 256.096 21.7588ZM257.006 24.4608V29.5008C257.006 29.6128 257.039 29.6968 257.104 29.7528C257.16 29.8181 257.235 29.8508 257.328 29.8508H257.72V31.2788H256.838C256.409 31.2788 256.021 31.1061 255.676 30.7608C255.144 31.1995 254.551 31.4188 253.898 31.4188C253.161 31.4188 252.526 31.1855 251.994 30.7188C251.285 30.0561 250.93 29.1695 250.93 28.0588C250.93 27.0415 251.257 26.1968 251.91 25.5248C252.507 24.9181 253.24 24.6148 254.108 24.6148C254.593 24.6148 255.079 24.7175 255.564 24.9228L256.166 24.4608H257.006ZM255.298 26.2668C254.971 26.1455 254.659 26.0848 254.36 26.0848C253.856 26.0848 253.441 26.2715 253.114 26.6448C252.787 27.0088 252.624 27.4848 252.624 28.0728C252.624 28.6608 252.769 29.1321 253.058 29.4868C253.357 29.8415 253.753 30.0188 254.248 30.0188C254.584 30.0188 254.934 29.9441 255.298 29.7948V26.2668ZM260.13 27.2608C260.13 26.3741 260.438 25.7021 261.054 25.2448C261.539 24.8715 262.202 24.6848 263.042 24.6848C263.863 24.6848 264.559 24.9275 265.128 25.4128C265.847 26.0288 266.206 26.9015 266.206 28.0308C266.206 29.0948 265.921 29.9768 265.352 30.6768C264.801 31.3581 264.087 31.6988 263.21 31.6988C262.435 31.6988 261.824 31.4095 261.376 30.8308C261.077 31.1295 260.713 31.2788 260.284 31.2788H257.61V29.8508H259.766C259.869 29.8508 259.957 29.8135 260.032 29.7388C260.097 29.6735 260.13 29.5941 260.13 29.5008V27.2608ZM261.824 29.6968C262.169 30.0701 262.566 30.2568 263.014 30.2568C263.453 30.2568 263.812 30.0655 264.092 29.6828C264.372 29.2908 264.512 28.7868 264.512 28.1708C264.512 27.4988 264.358 26.9715 264.05 26.5888C263.77 26.2621 263.406 26.0988 262.958 26.0988C262.622 26.0988 262.356 26.2061 262.16 26.4208C261.936 26.6261 261.824 26.9061 261.824 27.2608V29.6968ZM268.828 24.7548C269.145 24.6988 269.514 24.6708 269.934 24.6708C271.007 24.6708 271.875 25.0161 272.538 25.7068C273.126 26.3321 273.42 27.1068 273.42 28.0308V29.3748C273.42 29.5895 273.415 29.7481 273.406 29.8508H273.77V31.2788H273.588L273.126 30.7048H273.084C273.009 30.7888 272.93 30.8681 272.846 30.9428C272.566 31.1668 272.253 31.2788 271.908 31.2788H267.414V29.8508H271.362C271.595 29.8508 271.712 29.7341 271.712 29.5008V28.1988C271.712 27.5548 271.516 27.0368 271.124 26.6448C270.76 26.2808 270.232 26.0848 269.542 26.0568C269.224 26.0568 268.986 26.0755 268.828 26.1128V24.7548ZM278.099 21.7588C278.351 21.7588 278.565 21.8475 278.743 22.0248C278.92 22.2021 279.009 22.4168 279.009 22.6688C279.009 22.9115 278.92 23.1215 278.743 23.2988C278.565 23.4761 278.351 23.5648 278.099 23.5648C277.856 23.5648 277.646 23.4761 277.469 23.2988C277.291 23.1215 277.203 22.9115 277.203 22.6688C277.203 22.4168 277.291 22.2021 277.469 22.0248C277.646 21.8475 277.856 21.7588 278.099 21.7588ZM275.537 25.0768C276.461 24.8061 277.268 24.6708 277.959 24.6708C279.088 24.6708 279.998 25.0255 280.689 25.7348C281.314 26.3788 281.627 27.1815 281.627 28.1428V29.7388C281.627 30.1215 281.496 30.4668 281.235 30.7748C280.927 31.1108 280.553 31.2788 280.115 31.2788H273.675V29.8508H279.569C279.802 29.8508 279.919 29.7341 279.919 29.5008V28.2408C279.919 27.5875 279.704 27.0741 279.275 26.7008C278.855 26.3275 278.271 26.1408 277.525 26.1408C277.095 26.1408 276.433 26.2388 275.537 26.4348V25.0768Z" fill="#2C4768"/>
<path d="M115.054 48.0143C115.222 48.0143 115.362 48.0743 115.474 48.1943C115.594 48.3063 115.654 48.4423 115.654 48.6023C115.654 48.7703 115.594 48.9143 115.474 49.0343C115.362 49.1463 115.222 49.2023 115.054 49.2023C114.894 49.2023 114.754 49.1463 114.634 49.0343C114.522 48.9143 114.466 48.7703 114.466 48.6023C114.466 48.4423 114.522 48.3063 114.634 48.1943C114.754 48.0743 114.894 48.0143 115.054 48.0143ZM113.23 55.3223C112.726 54.7783 112.474 54.0983 112.474 53.2823C112.474 52.5063 112.686 51.8703 113.11 51.3743C113.598 50.7983 114.246 50.5103 115.054 50.5103C115.774 50.5103 116.374 50.7463 116.854 51.2183C117.382 51.7383 117.646 52.4263 117.646 53.2823C117.646 54.0823 117.394 54.7623 116.89 55.3223H117.934V56.1743H116.218H116.074C115.602 56.1743 115.27 56.1423 115.078 56.0783H115.042C114.85 56.1423 114.514 56.1743 114.034 56.1743H113.89H109.078C108.598 56.1743 108.182 56.0103 107.83 55.6823C107.406 55.2903 107.194 54.7943 107.194 54.1943V51.9383L107.71 51.5183H108.214V54.1943C108.214 54.4983 108.318 54.7583 108.526 54.9743C108.75 55.2063 109.03 55.3223 109.366 55.3223H113.23ZM116.626 53.2943C116.626 52.7023 116.482 52.2343 116.194 51.8903C115.914 51.5463 115.534 51.3743 115.054 51.3743C114.55 51.3743 114.162 51.5543 113.89 51.9143C113.634 52.2503 113.506 52.7183 113.506 53.3183C113.506 53.8783 113.654 54.3463 113.95 54.7223C114.246 55.0983 114.614 55.2983 115.054 55.3223C115.574 55.2983 115.982 55.0423 116.278 54.5543C116.51 54.1783 116.626 53.7583 116.626 53.2943ZM119.086 48.0143C119.254 48.0143 119.394 48.0743 119.506 48.1943C119.618 48.3063 119.674 48.4423 119.674 48.6023C119.674 48.7703 119.618 48.9143 119.506 49.0343C119.394 49.1463 119.254 49.2023 119.086 49.2023C118.926 49.2023 118.786 49.1463 118.666 49.0343C118.554 48.9143 118.498 48.7703 118.498 48.6023C118.498 48.4423 118.554 48.3063 118.666 48.1943C118.786 48.0743 118.926 48.0143 119.086 48.0143ZM120.55 48.0143C120.71 48.0143 120.846 48.0743 120.958 48.1943C121.078 48.3063 121.138 48.4423 121.138 48.6023C121.138 48.7703 121.078 48.9143 120.958 49.0343C120.846 49.1463 120.71 49.2023 120.55 49.2023C120.382 49.2023 120.238 49.1463 120.118 49.0343C120.006 48.9143 119.95 48.7703 119.95 48.6023C119.95 48.4423 120.006 48.3063 120.118 48.1943C120.238 48.0743 120.382 48.0143 120.55 48.0143ZM121.03 50.6543V55.0343C121.03 55.3303 120.934 55.5863 120.742 55.8023C120.526 56.0503 120.258 56.1743 119.938 56.1743H117.85V55.3223H119.554C119.69 55.3223 119.802 55.2743 119.89 55.1783C119.97 55.0983 120.01 54.9943 120.01 54.8663V50.6543H121.03ZM123.812 47.5823V54.8663C123.812 54.9943 123.852 55.1023 123.932 55.1903C124.02 55.2783 124.132 55.3223 124.268 55.3223H124.424V56.1743H123.872C123.616 56.1743 123.392 56.0903 123.2 55.9223C122.928 55.6903 122.792 55.3943 122.792 55.0343V47.5823H123.812ZM127.306 50.7863C128.162 50.3943 129.05 50.1983 129.97 50.1983C132.066 50.1983 133.114 51.3943 133.114 53.7863V55.0463C133.114 55.1423 133.106 55.2343 133.09 55.3223H133.51V56.1743H133.246L132.91 55.7543H132.874C132.81 55.8343 132.738 55.9063 132.658 55.9703C132.466 56.1063 132.262 56.1743 132.046 56.1743H129.154C128.698 56.1743 128.386 56.1463 128.218 56.0903H128.17C128.01 56.1463 127.694 56.1743 127.222 56.1743H124.342V55.3223H126.67C126.486 55.1143 126.342 54.8623 126.238 54.5663C126.134 54.2623 126.082 53.9383 126.082 53.5943C126.082 52.9943 126.214 52.5023 126.478 52.1183C126.678 51.8223 126.954 51.6023 127.306 51.4583V50.7863ZM132.094 53.9543C132.094 52.9223 131.914 52.1903 131.554 51.7583C131.178 51.3103 130.57 51.0863 129.73 51.0863C129.202 51.0863 128.698 51.1583 128.218 51.3023C128.986 51.3103 129.55 51.5903 129.91 52.1423C130.174 52.5263 130.306 53.0103 130.306 53.5943C130.306 53.8983 130.262 54.1903 130.174 54.4703C130.07 54.8063 129.914 55.0903 129.706 55.3223H131.65C131.794 55.3223 131.91 55.2663 131.998 55.1543C132.062 55.0743 132.094 54.9783 132.094 54.8663V53.9543ZM129.406 53.5823C129.406 53.1103 129.294 52.7343 129.07 52.4543C128.854 52.1743 128.554 52.0343 128.17 52.0343C127.786 52.0343 127.486 52.1703 127.27 52.4423C127.054 52.7143 126.946 53.0943 126.946 53.5823C126.946 54.0543 127.062 54.4463 127.294 54.7583C127.526 55.0703 127.818 55.2343 128.17 55.2503C128.53 55.2343 128.826 55.0703 129.058 54.7583C129.29 54.4463 129.406 54.0543 129.406 53.5823ZM136.592 47.5823V55.0343C136.592 55.3463 136.488 55.6103 136.28 55.8263C136.064 56.0583 135.804 56.1743 135.5 56.1743H133.412V55.3223H135.116C135.268 55.3223 135.384 55.2703 135.464 55.1663C135.536 55.0783 135.572 54.9783 135.572 54.8663V47.5823H136.592ZM139.269 47.5823V56.0543L138.753 56.4743H138.249V47.5823H139.269ZM150.828 47.5823V56.0663C150.828 57.0263 150.536 57.7663 149.952 58.2863C149.384 58.7903 148.616 59.0423 147.648 59.0423H146.316C145.364 59.0423 144.604 58.7983 144.036 58.3103C143.428 57.7903 143.124 57.0423 143.124 56.0663V53.5583L143.64 53.1383H144.144V56.0423C144.144 56.8423 144.352 57.3983 144.768 57.7103C145.192 58.0303 145.928 58.1903 146.976 58.1903C147.976 58.1903 148.68 58.0543 149.088 57.7823C149.568 57.4543 149.808 56.8743 149.808 56.0423V47.5823H150.828ZM158.835 47.5823V55.0343C158.835 55.1463 158.819 55.2423 158.787 55.3223H159.435V56.1743H158.967L158.619 55.7543H158.583C158.471 55.8903 158.343 55.9943 158.199 56.0663C158.055 56.1383 157.903 56.1743 157.743 56.1743H152.499L152.079 55.6583V55.3223H155.295L153.231 49.0583H154.251L156.327 55.3223H157.359C157.495 55.3223 157.607 55.2743 157.695 55.1783C157.767 55.0983 157.803 54.9943 157.803 54.8663V47.5823H158.835ZM163.126 48.0143C163.294 48.0143 163.434 48.0743 163.546 48.1943C163.658 48.3063 163.714 48.4423 163.714 48.6023C163.714 48.7703 163.658 48.9143 163.546 49.0343C163.434 49.1463 163.294 49.2023 163.126 49.2023C162.966 49.2023 162.826 49.1463 162.706 49.0343C162.594 48.9143 162.538 48.7703 162.538 48.6023C162.538 48.4423 162.594 48.3063 162.706 48.1943C162.826 48.0743 162.966 48.0143 163.126 48.0143ZM160.93 50.8583C161.666 50.6263 162.354 50.5103 162.994 50.5103C163.986 50.5103 164.742 50.8183 165.262 51.4343C165.71 51.9623 165.934 52.6543 165.934 53.5103V55.0343C165.934 55.3063 165.85 55.5463 165.682 55.7543C165.474 56.0343 165.198 56.1743 164.854 56.1743H159.334V55.3223H164.458C164.762 55.3223 164.914 55.1703 164.914 54.8663V53.4743C164.914 52.8503 164.75 52.3583 164.422 51.9983C164.062 51.5983 163.538 51.3983 162.85 51.3983C162.434 51.3983 161.794 51.4863 160.93 51.6623V50.8583ZM173.316 50.5103C173.476 50.5103 173.612 50.5703 173.724 50.6903C173.844 50.8023 173.904 50.9383 173.904 51.0983C173.904 51.2663 173.844 51.4103 173.724 51.5303C173.612 51.6423 173.476 51.6983 173.316 51.6983C173.156 51.6983 173.016 51.6423 172.896 51.5303C172.784 51.4103 172.728 51.2663 172.728 51.0983C172.728 50.9383 172.784 50.8023 172.896 50.6903C173.016 50.5703 173.156 50.5103 173.316 50.5103ZM177.276 50.6543V55.3223H177.888V56.1743H177.276C177.252 57.1263 176.932 57.8543 176.316 58.3583C175.748 58.8143 175.008 59.0423 174.096 59.0423H172.764C171.876 59.0423 171.152 58.8303 170.592 58.4063C169.912 57.8863 169.572 57.1063 169.572 56.0663V53.5583L170.088 53.1383H170.592V56.0423C170.592 56.8423 170.8 57.3983 171.216 57.7103C171.64 58.0303 172.376 58.1903 173.424 58.1903C174.424 58.1903 175.128 58.0543 175.536 57.7823C176.016 57.4543 176.256 56.8743 176.256 56.0423V50.6543H177.276ZM180.01 52.6943C180.01 51.8783 180.298 51.2783 180.874 50.8943C181.25 50.6463 181.75 50.5223 182.374 50.5223C183.134 50.5223 183.77 50.7823 184.282 51.3023C184.794 51.8223 185.05 52.5503 185.05 53.4863C185.05 54.3583 184.794 55.0943 184.282 55.6943C183.802 56.2543 183.194 56.5343 182.458 56.5343C181.77 56.5343 181.21 56.2743 180.778 55.7543C180.562 56.0343 180.274 56.1743 179.914 56.1743H177.85V55.3223H179.554C179.682 55.3223 179.79 55.2783 179.878 55.1903C179.966 55.1023 180.01 54.9943 180.01 54.8663V52.6943ZM181.03 55.0463C181.446 55.4703 181.906 55.6823 182.41 55.6823C182.89 55.6823 183.278 55.4863 183.574 55.0943C183.878 54.6943 184.03 54.1783 184.03 53.5463C184.03 52.8423 183.854 52.2863 183.502 51.8783C183.206 51.5423 182.814 51.3743 182.326 51.3743C181.958 51.3743 181.658 51.4823 181.426 51.6983C181.162 51.9463 181.03 52.2783 181.03 52.6943V55.0463ZM191.472 48.0143C191.632 48.0143 191.768 48.0743 191.88 48.1943C192 48.3063 192.06 48.4423 192.06 48.6023C192.06 48.7703 192 48.9143 191.88 49.0343C191.768 49.1463 191.632 49.2023 191.472 49.2023C191.312 49.2023 191.172 49.1463 191.052 49.0343C190.94 48.9143 190.884 48.7703 190.884 48.6023C190.884 48.4423 190.94 48.3063 191.052 48.1943C191.172 48.0743 191.312 48.0143 191.472 48.0143ZM192.924 48.0143C193.092 48.0143 193.232 48.0743 193.344 48.1943C193.464 48.3063 193.524 48.4423 193.524 48.6023C193.524 48.7703 193.464 48.9143 193.344 49.0343C193.232 49.1463 193.092 49.2023 192.924 49.2023C192.764 49.2023 192.624 49.1463 192.504 49.0343C192.392 48.9143 192.336 48.7703 192.336 48.6023C192.336 48.4423 192.392 48.3063 192.504 48.1943C192.624 48.0743 192.764 48.0143 192.924 48.0143ZM193.524 50.3303V54.1103C193.524 54.7583 193.34 55.2703 192.972 55.6463C192.564 56.0703 191.948 56.2823 191.124 56.2823C190.404 56.2823 189.82 56.0983 189.372 55.7303C188.772 55.2343 188.472 54.4863 188.472 53.4863C188.472 52.5823 188.748 51.8383 189.3 51.2543C189.812 50.7183 190.452 50.4503 191.22 50.4503C191.644 50.4503 192.072 50.5463 192.504 50.7383L193.02 50.3303H193.524ZM192.504 51.5783C192.152 51.4023 191.796 51.3143 191.436 51.3143C190.804 51.3143 190.308 51.5623 189.948 52.0583C189.644 52.4583 189.492 52.9383 189.492 53.4983C189.492 54.1143 189.636 54.5903 189.924 54.9263C190.212 55.2623 190.612 55.4303 191.124 55.4303C191.604 55.4303 191.956 55.3063 192.18 55.0583C192.396 54.8183 192.504 54.4983 192.504 54.0983V51.5783ZM197.62 50.6543V56.0663C197.62 56.9543 197.368 57.6543 196.864 58.1663C196.472 58.5663 195.944 58.8303 195.28 58.9583C195.024 59.0063 194.744 59.0303 194.44 59.0303C194.248 59.0303 194.064 59.0263 193.888 59.0183L193.492 58.5263V58.1423C193.724 58.1743 193.976 58.1903 194.248 58.1903C195.816 58.1903 196.6 57.4703 196.6 56.0303V50.6543H197.62ZM200.312 47.5823V54.8663C200.312 54.9943 200.352 55.1023 200.432 55.1903C200.52 55.2783 200.632 55.3223 200.768 55.3223H200.924V56.1743H200.372C200.116 56.1743 199.892 56.0903 199.7 55.9223C199.428 55.6903 199.292 55.3943 199.292 55.0343V47.5823H200.312ZM208.174 46.8623C208.334 46.8623 208.466 46.9183 208.57 47.0303C208.682 47.1423 208.738 47.2743 208.738 47.4263C208.738 47.5783 208.682 47.7103 208.57 47.8223C208.466 47.9343 208.334 47.9903 208.174 47.9903C208.022 47.9903 207.89 47.9343 207.778 47.8223C207.666 47.7103 207.61 47.5783 207.61 47.4263C207.61 47.2743 207.666 47.1423 207.778 47.0303C207.89 46.9183 208.022 46.8623 208.174 46.8623ZM207.454 48.0143C207.614 48.0143 207.75 48.0743 207.862 48.1943C207.982 48.3063 208.042 48.4423 208.042 48.6023C208.042 48.7703 207.982 48.9143 207.862 49.0343C207.75 49.1463 207.614 49.2023 207.454 49.2023C207.286 49.2023 207.142 49.1463 207.022 49.0343C206.91 48.9143 206.854 48.7703 206.854 48.6023C206.854 48.4423 206.91 48.3063 207.022 48.1943C207.142 48.0743 207.286 48.0143 207.454 48.0143ZM208.906 48.0143C209.066 48.0143 209.202 48.0743 209.314 48.1943C209.434 48.3063 209.494 48.4423 209.494 48.6023C209.494 48.7703 209.434 48.9143 209.314 49.0343C209.202 49.1463 209.066 49.2023 208.906 49.2023C208.746 49.2023 208.606 49.1463 208.486 49.0343C208.374 48.9143 208.318 48.7703 208.318 48.6023C208.318 48.4423 208.374 48.3063 208.486 48.1943C208.606 48.0743 208.746 48.0143 208.906 48.0143ZM212.254 50.6543V55.0343C212.254 55.1383 212.242 55.2343 212.218 55.3223H212.866V56.1743H212.386L212.05 55.7543H212.014C211.79 56.0343 211.51 56.1743 211.174 56.1743H208.81L208.474 55.7543H208.438C208.214 56.0343 207.934 56.1743 207.598 56.1743H205.234L204.898 55.7543H204.862C204.638 56.0343 204.358 56.1743 204.022 56.1743H200.842V55.3223H203.626C203.93 55.3223 204.082 55.1703 204.082 54.8663V52.0343H205.102V55.0343C205.102 55.1383 205.094 55.2343 205.078 55.3223H207.202C207.506 55.3223 207.658 55.1703 207.658 54.8663V51.3383H208.678V55.0343C208.678 55.1383 208.666 55.2343 208.642 55.3223H210.778C211.082 55.3223 211.234 55.1703 211.234 54.8663V50.6543H212.254ZM214.007 48.0143C214.175 48.0143 214.315 48.0743 214.427 48.1943C214.539 48.3063 214.595 48.4423 214.595 48.6023C214.595 48.7703 214.539 48.9143 214.427 49.0343C214.315 49.1463 214.175 49.2023 214.007 49.2023C213.847 49.2023 213.707 49.1463 213.587 49.0343C213.475 48.9143 213.419 48.7703 213.419 48.6023C213.419 48.4423 213.475 48.3063 213.587 48.1943C213.707 48.0743 213.847 48.0143 214.007 48.0143ZM215.471 48.0143C215.631 48.0143 215.767 48.0743 215.879 48.1943C215.999 48.3063 216.059 48.4423 216.059 48.6023C216.059 48.7703 215.999 48.9143 215.879 49.0343C215.767 49.1463 215.631 49.2023 215.471 49.2023C215.303 49.2023 215.159 49.1463 215.039 49.0343C214.927 48.9143 214.871 48.7703 214.871 48.6023C214.871 48.4423 214.927 48.3063 215.039 48.1943C215.159 48.0743 215.303 48.0143 215.471 48.0143ZM215.951 50.6543V55.0343C215.951 55.1303 215.939 55.2263 215.915 55.3223H216.551V56.1743H216.083L215.735 55.7543H215.699C215.483 56.0343 215.203 56.1743 214.859 56.1743H212.771V55.3223H214.475C214.603 55.3223 214.707 55.2823 214.787 55.2023C214.883 55.1143 214.931 55.0023 214.931 54.8663V50.6543H215.951ZM227.875 50.6543V55.0343C227.875 55.3463 227.767 55.6143 227.551 55.8383C227.343 56.0623 227.091 56.1743 226.795 56.1743H224.479L224.095 55.7543H224.059C223.835 56.0343 223.555 56.1743 223.219 56.1743H220.915L220.519 55.7543H220.483C220.259 56.0343 219.979 56.1743 219.643 56.1743H216.463V55.3223H219.247C219.551 55.3223 219.703 55.1703 219.703 54.8663V52.0343H220.723V55.0343C220.723 55.1383 220.715 55.2343 220.699 55.3223H222.823C223.127 55.3223 223.279 55.1703 223.279 54.8663V51.3383H224.299V55.0343C224.299 55.1383 224.287 55.2343 224.263 55.3223H226.399C226.703 55.3223 226.855 55.1703 226.855 54.8663V50.6543H227.875ZM230.546 47.5823V56.0543L230.03 56.4743H229.526V47.5823H230.546ZM235.421 47.5823V54.8663C235.421 54.9943 235.461 55.1023 235.541 55.1903C235.629 55.2783 235.741 55.3223 235.877 55.3223H236.033V56.1743H235.481C235.225 56.1743 235.001 56.0903 234.809 55.9223C234.537 55.6903 234.401 55.3943 234.401 55.0343V47.5823H235.421ZM238.915 50.7863C239.771 50.3943 240.659 50.1983 241.579 50.1983C243.675 50.1983 244.723 51.3943 244.723 53.7863V55.0463C244.723 55.1423 244.715 55.2343 244.699 55.3223H245.119V56.1743H244.855L244.519 55.7543H244.483C244.419 55.8343 244.347 55.9063 244.267 55.9703C244.075 56.1063 243.871 56.1743 243.655 56.1743H240.763C240.307 56.1743 239.995 56.1463 239.827 56.0903H239.779C239.619 56.1463 239.303 56.1743 238.831 56.1743H235.951V55.3223H238.279C238.095 55.1143 237.951 54.8623 237.847 54.5663C237.743 54.2623 237.691 53.9383 237.691 53.5943C237.691 52.9943 237.823 52.5023 238.087 52.1183C238.287 51.8223 238.563 51.6023 238.915 51.4583V50.7863ZM243.703 53.9543C243.703 52.9223 243.523 52.1903 243.163 51.7583C242.787 51.3103 242.179 51.0863 241.339 51.0863C240.811 51.0863 240.307 51.1583 239.827 51.3023C240.595 51.3103 241.159 51.5903 241.519 52.1423C241.783 52.5263 241.915 53.0103 241.915 53.5943C241.915 53.8983 241.871 54.1903 241.783 54.4703C241.679 54.8063 241.523 55.0903 241.315 55.3223H243.259C243.403 55.3223 243.519 55.2663 243.607 55.1543C243.671 55.0743 243.703 54.9783 243.703 54.8663V53.9543ZM241.015 53.5823C241.015 53.1103 240.903 52.7343 240.679 52.4543C240.463 52.1743 240.163 52.0343 239.779 52.0343C239.395 52.0343 239.095 52.1703 238.879 52.4423C238.663 52.7143 238.555 53.0943 238.555 53.5823C238.555 54.0543 238.671 54.4463 238.903 54.7583C239.135 55.0703 239.427 55.2343 239.779 55.2503C240.139 55.2343 240.435 55.0703 240.667 54.7583C240.899 54.4463 241.015 54.0543 241.015 53.5823ZM248.201 50.6543V55.0343C248.201 55.1303 248.189 55.2263 248.165 55.3223H248.801V56.1743H248.333L247.985 55.7543H247.949C247.733 56.0343 247.453 56.1743 247.109 56.1743H245.021V55.3223H246.725C246.853 55.3223 246.957 55.2823 247.037 55.2023C247.133 55.1143 247.181 55.0023 247.181 54.8663V50.6543H248.201ZM246.149 57.4223C246.309 57.4223 246.445 57.4783 246.557 57.5903C246.677 57.7103 246.737 57.8503 246.737 58.0103C246.737 58.1783 246.677 58.3183 246.557 58.4303C246.445 58.5503 246.309 58.6103 246.149 58.6103C245.989 58.6103 245.849 58.5503 245.729 58.4303C245.617 58.3183 245.561 58.1783 245.561 58.0103C245.561 57.8503 245.617 57.7103 245.729 57.5903C245.849 57.4783 245.989 57.4223 246.149 57.4223ZM247.601 57.4223C247.769 57.4223 247.909 57.4783 248.021 57.5903C248.141 57.7103 248.201 57.8503 248.201 58.0103C248.201 58.1783 248.141 58.3183 248.021 58.4303C247.909 58.5503 247.769 58.6103 247.601 58.6103C247.441 58.6103 247.301 58.5503 247.181 58.4303C247.069 58.3183 247.013 58.1783 247.013 58.0103C247.013 57.8503 247.069 57.7103 247.181 57.5903C247.301 57.4783 247.441 57.4223 247.601 57.4223ZM253.381 48.0143C253.549 48.0143 253.689 48.0743 253.801 48.1943C253.921 48.3063 253.981 48.4423 253.981 48.6023C253.981 48.7703 253.921 48.9143 253.801 49.0343C253.689 49.1463 253.549 49.2023 253.381 49.2023C253.221 49.2023 253.081 49.1463 252.961 49.0343C252.849 48.9143 252.793 48.7703 252.793 48.6023C252.793 48.4423 252.849 48.3063 252.961 48.1943C253.081 48.0743 253.221 48.0143 253.381 48.0143ZM251.401 55.3223C251.097 55.0423 250.873 54.6943 250.729 54.2783C250.617 53.9423 250.561 53.6103 250.561 53.2823C250.561 52.4263 250.817 51.7463 251.329 51.2423C251.833 50.7543 252.517 50.5103 253.381 50.5103C254.037 50.5103 254.561 50.6783 254.953 51.0143C255.409 51.3983 255.645 51.9583 255.661 52.6943V55.0343C255.661 55.3463 255.553 55.6143 255.337 55.8383C255.129 56.0623 254.877 56.1743 254.581 56.1743H248.713V55.3223H251.401ZM254.629 52.6943C254.629 52.2463 254.497 51.9023 254.233 51.6623C254.025 51.4703 253.741 51.3743 253.381 51.3743C252.717 51.3743 252.229 51.6063 251.917 52.0703C251.693 52.3903 251.581 52.8063 251.581 53.3183C251.589 53.8623 251.765 54.3263 252.109 54.7103C252.469 55.1183 252.945 55.3223 253.537 55.3223H254.185C254.481 55.3223 254.629 55.1703 254.629 54.8663V52.6943ZM260.767 55.3223C260.335 54.8743 260.119 54.2543 260.119 53.4623C260.119 52.5343 260.391 51.8023 260.935 51.2663C261.423 50.7863 262.067 50.5383 262.867 50.5223C263.539 50.5223 264.075 50.6903 264.475 51.0263C264.939 51.4103 265.171 51.9663 265.171 52.6943V55.0343C265.171 55.3543 265.059 55.6263 264.835 55.8503C264.627 56.0663 264.379 56.1743 264.091 56.1743H260.659C260.355 56.1743 260.203 56.3263 260.203 56.6303V60.2303L259.687 60.6503H259.183V56.4503C259.183 56.1463 259.291 55.8823 259.507 55.6583C259.723 55.4343 259.979 55.3223 260.275 55.3223H260.767ZM264.139 52.6943C264.139 52.3343 264.039 52.0303 263.839 51.7823C263.599 51.5103 263.267 51.3743 262.843 51.3743C262.339 51.3743 261.927 51.5583 261.607 51.9263C261.295 52.2863 261.139 52.7583 261.139 53.3423C261.139 53.9663 261.295 54.4623 261.607 54.8303C261.887 55.1583 262.231 55.3223 262.639 55.3223H263.695C263.991 55.3223 264.139 55.1703 264.139 54.8663V52.6943ZM267.515 50.5823C267.803 50.5343 268.111 50.5103 268.439 50.5103C269.327 50.5103 270.043 50.7783 270.587 51.3143C271.075 51.8103 271.319 52.4383 271.319 53.1983V55.0343C271.319 55.1383 271.311 55.2343 271.295 55.3223H271.631V56.1743H271.451L271.115 55.7543H271.079C271.015 55.8343 270.943 55.9063 270.863 55.9703C270.671 56.1063 270.463 56.1743 270.239 56.1743H266.303V55.3223H269.855C270.151 55.3223 270.299 55.1703 270.299 54.8663V53.3423C270.299 52.7743 270.127 52.3023 269.783 51.9263C269.415 51.5423 268.847 51.3463 268.079 51.3383C267.855 51.3383 267.667 51.3543 267.515 51.3863V50.5823ZM275.297 48.0143C275.457 48.0143 275.593 48.0743 275.705 48.1943C275.825 48.3063 275.885 48.4423 275.885 48.6023C275.885 48.7703 275.825 48.9143 275.705 49.0343C275.593 49.1463 275.457 49.2023 275.297 49.2023C275.137 49.2023 274.997 49.1463 274.877 49.0343C274.765 48.9143 274.709 48.7703 274.709 48.6023C274.709 48.4423 274.765 48.3063 274.877 48.1943C274.997 48.0743 275.137 48.0143 275.297 48.0143ZM276.749 48.0143C276.917 48.0143 277.057 48.0743 277.169 48.1943C277.289 48.3063 277.349 48.4423 277.349 48.6023C277.349 48.7703 277.289 48.9143 277.169 49.0343C277.057 49.1463 276.917 49.2023 276.749 49.2023C276.589 49.2023 276.449 49.1463 276.329 49.0343C276.217 48.9143 276.161 48.7703 276.161 48.6023C276.161 48.4423 276.217 48.3063 276.329 48.1943C276.449 48.0743 276.589 48.0143 276.749 48.0143ZM274.133 55.3223C273.629 54.7703 273.377 54.0903 273.377 53.2823C273.377 52.5063 273.589 51.8703 274.013 51.3743C274.501 50.7983 275.149 50.5103 275.957 50.5103C276.605 50.5103 277.157 50.7023 277.613 51.0863C278.237 51.6063 278.549 52.3383 278.549 53.2823C278.549 54.0823 278.297 54.7623 277.793 55.3223H278.837V56.1743H277.109H276.977C276.505 56.1743 276.173 56.1423 275.981 56.0783H275.933C275.741 56.1423 275.409 56.1743 274.937 56.1743H274.793H271.529V55.3223H274.133ZM275.957 51.3743C275.469 51.3743 275.085 51.5463 274.805 51.8903C274.533 52.2343 274.397 52.7103 274.397 53.3183C274.397 53.8703 274.545 54.3383 274.841 54.7223C275.145 55.1063 275.517 55.3063 275.957 55.3223C276.397 55.3063 276.765 55.1063 277.061 54.7223C277.365 54.3383 277.517 53.8703 277.517 53.3183C277.517 52.7103 277.377 52.2343 277.097 51.8903C276.825 51.5463 276.445 51.3743 275.957 51.3743ZM281.412 48.0143C281.58 48.0143 281.72 48.0743 281.832 48.1943C281.952 48.3063 282.012 48.4423 282.012 48.6023C282.012 48.7703 281.952 48.9143 281.832 49.0343C281.72 49.1463 281.58 49.2023 281.412 49.2023C281.252 49.2023 281.112 49.1463 280.992 49.0343C280.88 48.9143 280.824 48.7703 280.824 48.6023C280.824 48.4423 280.88 48.3063 280.992 48.1943C281.112 48.0743 281.252 48.0143 281.412 48.0143ZM281.928 50.6543V55.0343C281.928 55.3303 281.832 55.5863 281.64 55.8023C281.424 56.0503 281.156 56.1743 280.836 56.1743H278.748V55.3223H280.452C280.588 55.3223 280.7 55.2743 280.788 55.1783C280.868 55.0983 280.908 54.9943 280.908 54.8663V50.6543H281.928ZM287.449 56.0543C287.033 56.2063 286.597 56.2823 286.141 56.2823C285.277 56.2823 284.593 55.9783 284.089 55.3703C283.641 54.8343 283.417 54.1503 283.417 53.3183C283.417 52.4783 283.653 51.8063 284.125 51.3023C284.629 50.7743 285.309 50.5103 286.165 50.5103C286.813 50.5103 287.341 50.6743 287.749 51.0023C288.237 51.3943 288.481 51.9583 288.481 52.6943V56.0663C288.473 57.0903 288.137 57.8623 287.473 58.3823C287.137 58.6463 286.733 58.8303 286.261 58.9343C285.949 58.9983 285.625 59.0303 285.289 59.0303C285.097 59.0303 284.913 59.0263 284.737 59.0183L284.341 58.5263V58.1423C284.581 58.1743 284.833 58.1903 285.097 58.1903C286.657 58.1903 287.441 57.4783 287.449 56.0543ZM287.449 52.6943C287.449 52.1983 287.273 51.8263 286.921 51.5783C286.721 51.4423 286.469 51.3743 286.165 51.3743C285.629 51.3743 285.205 51.5543 284.893 51.9143C284.589 52.2743 284.437 52.7743 284.437 53.4143C284.437 54.0223 284.613 54.5023 284.965 54.8543C285.277 55.1823 285.693 55.3463 286.213 55.3463C286.669 55.3463 287.081 55.2743 287.449 55.1303V52.6943ZM170.378 64.0143C170.538 64.0143 170.674 64.0743 170.786 64.1943C170.906 64.3063 170.966 64.4423 170.966 64.6023C170.966 64.7703 170.906 64.9143 170.786 65.0343C170.674 65.1463 170.538 65.2023 170.378 65.2023C170.218 65.2023 170.078 65.1463 169.958 65.0343C169.846 64.9143 169.79 64.7703 169.79 64.6023C169.79 64.4423 169.846 64.3063 169.958 64.1943C170.078 64.0743 170.218 64.0143 170.378 64.0143ZM171.83 64.0143C171.998 64.0143 172.138 64.0743 172.25 64.1943C172.37 64.3063 172.43 64.4423 172.43 64.6023C172.43 64.7703 172.37 64.9143 172.25 65.0343C172.138 65.1463 171.998 65.2023 171.83 65.2023C171.67 65.2023 171.53 65.1463 171.41 65.0343C171.298 64.9143 171.242 64.7703 171.242 64.6023C171.242 64.4423 171.298 64.3063 171.41 64.1943C171.53 64.0743 171.67 64.0143 171.83 64.0143ZM172.43 66.3303V70.8663C172.43 71.0103 172.47 71.1223 172.55 71.2023C172.622 71.2823 172.702 71.3223 172.79 71.3223H173.03V72.1743H172.526C172.158 72.1743 171.866 72.0343 171.65 71.7543C171.13 72.1223 170.57 72.3063 169.97 72.3063C169.13 72.3063 168.466 71.9783 167.978 71.3223C167.578 70.7863 167.378 70.1463 167.378 69.4023C167.378 68.5303 167.666 67.8063 168.242 67.2303C168.754 66.7103 169.382 66.4503 170.126 66.4503C170.55 66.4503 170.978 66.5463 171.41 66.7383L171.926 66.3303H172.43ZM171.41 67.5783C171.058 67.4023 170.702 67.3143 170.342 67.3143C169.734 67.3143 169.242 67.5543 168.866 68.0343C168.554 68.4263 168.398 68.8903 168.398 69.4263C168.398 70.0663 168.55 70.5703 168.854 70.9383C169.15 71.2743 169.55 71.4423 170.054 71.4423C170.486 71.4423 170.938 71.3263 171.41 71.0943V67.5783ZM176.131 63.5823V71.0343C176.131 71.1303 176.119 71.2263 176.095 71.3223H176.731V72.1743H176.311L175.915 71.7543H175.879C175.663 72.0343 175.383 72.1743 175.039 72.1743H172.951V71.3223H174.655C174.807 71.3223 174.927 71.2623 175.015 71.1423C175.079 71.0623 175.111 70.9703 175.111 70.8663V63.5823H176.131ZM178.431 64.6503C178.263 64.4423 178.179 64.1903 178.179 63.8943C178.179 63.5663 178.271 63.3063 178.455 63.1143C178.639 62.9223 178.887 62.8263 179.199 62.8263C179.383 62.8263 179.575 62.8583 179.775 62.9223V63.4143C179.623 63.3743 179.479 63.3543 179.343 63.3543C178.935 63.3543 178.731 63.5663 178.731 63.9903C178.731 64.1503 178.779 64.2943 178.875 64.4223C179.003 64.5743 179.175 64.6503 179.391 64.6503H180.159V64.8543L179.931 65.1423H177.903V64.6503H178.431ZM179.823 66.6543V71.0343C179.823 71.1303 179.811 71.2263 179.787 71.3223H180.423V72.1743H179.955L179.607 71.7543H179.571C179.355 72.0343 179.075 72.1743 178.731 72.1743H176.643V71.3223H178.347C178.475 71.3223 178.579 71.2823 178.659 71.2023C178.755 71.1143 178.803 71.0023 178.803 70.8663V66.6543H179.823ZM191.746 66.6543V71.0343C191.746 71.3463 191.638 71.6143 191.422 71.8383C191.214 72.0623 190.962 72.1743 190.666 72.1743H188.35L187.966 71.7543H187.93C187.706 72.0343 187.426 72.1743 187.09 72.1743H184.786L184.39 71.7543H184.354C184.13 72.0343 183.85 72.1743 183.514 72.1743H180.334V71.3223H183.118C183.422 71.3223 183.574 71.1703 183.574 70.8663V68.0343H184.594V71.0343C184.594 71.1383 184.586 71.2343 184.57 71.3223H186.694C186.998 71.3223 187.15 71.1703 187.15 70.8663V67.3383H188.17V71.0343C188.17 71.1383 188.158 71.2343 188.134 71.3223H190.27C190.574 71.3223 190.726 71.1703 190.726 70.8663V66.6543H191.746ZM199.733 63.5823V71.0343C199.733 71.3063 199.649 71.5463 199.481 71.7543C199.257 72.0343 198.977 72.1743 198.641 72.1743H193.397L192.977 71.6583V71.3223H196.193L194.129 65.0583H195.149L197.225 71.3223H198.257C198.401 71.3223 198.517 71.2703 198.605 71.1663C198.669 71.0783 198.701 70.9783 198.701 70.8663V63.5823H199.733ZM202.41 63.5823V72.0543L201.894 72.4743H201.39V63.5823H202.41ZM209.097 64.0143C209.257 64.0143 209.393 64.0743 209.505 64.1943C209.625 64.3063 209.685 64.4423 209.685 64.6023C209.685 64.7703 209.625 64.9143 209.505 65.0343C209.393 65.1463 209.257 65.2023 209.097 65.2023C208.937 65.2023 208.797 65.1463 208.677 65.0343C208.565 64.9143 208.509 64.7703 208.509 64.6023C208.509 64.4423 208.565 64.3063 208.677 64.1943C208.797 64.0743 208.937 64.0143 209.097 64.0143ZM210.549 64.0143C210.717 64.0143 210.857 64.0743 210.969 64.1943C211.089 64.3063 211.149 64.4423 211.149 64.6023C211.149 64.7703 211.089 64.9143 210.969 65.0343C210.857 65.1463 210.717 65.2023 210.549 65.2023C210.389 65.2023 210.249 65.1463 210.129 65.0343C210.017 64.9143 209.961 64.7703 209.961 64.6023C209.961 64.4423 210.017 64.3063 210.129 64.1943C210.249 64.0743 210.389 64.0143 210.549 64.0143ZM211.149 66.3303V70.8663C211.149 71.0103 211.189 71.1223 211.269 71.2023C211.341 71.2823 211.421 71.3223 211.509 71.3223H211.749V72.1743H211.245C210.877 72.1743 210.585 72.0343 210.369 71.7543C209.849 72.1223 209.289 72.3063 208.689 72.3063C207.849 72.3063 207.185 71.9783 206.697 71.3223C206.297 70.7863 206.097 70.1463 206.097 69.4023C206.097 68.5303 206.385 67.8063 206.961 67.2303C207.473 66.7103 208.101 66.4503 208.845 66.4503C209.269 66.4503 209.697 66.5463 210.129 66.7383L210.645 66.3303H211.149ZM210.129 67.5783C209.777 67.4023 209.421 67.3143 209.061 67.3143C208.453 67.3143 207.961 67.5543 207.585 68.0343C207.273 68.4263 207.117 68.8903 207.117 69.4263C207.117 70.0663 207.269 70.5703 207.573 70.9383C207.869 71.2743 208.269 71.4423 208.773 71.4423C209.205 71.4423 209.657 71.3263 210.129 71.0943V67.5783ZM216.338 64.0143C216.506 64.0143 216.646 64.0743 216.758 64.1943C216.878 64.3063 216.938 64.4423 216.938 64.6023C216.938 64.7703 216.878 64.9143 216.758 65.0343C216.646 65.1463 216.506 65.2023 216.338 65.2023C216.178 65.2023 216.038 65.1463 215.918 65.0343C215.806 64.9143 215.75 64.7703 215.75 64.6023C215.75 64.4423 215.806 64.3063 215.918 64.1943C216.038 64.0743 216.178 64.0143 216.338 64.0143ZM214.358 71.3223C214.054 71.0423 213.83 70.6943 213.686 70.2783C213.574 69.9423 213.518 69.6103 213.518 69.2823C213.518 68.4263 213.774 67.7463 214.286 67.2423C214.79 66.7543 215.474 66.5103 216.338 66.5103C216.994 66.5103 217.518 66.6783 217.91 67.0143C218.366 67.3983 218.602 67.9583 218.618 68.6943V71.0343C218.618 71.3463 218.51 71.6143 218.294 71.8383C218.086 72.0623 217.834 72.1743 217.538 72.1743H211.67V71.3223H214.358ZM217.586 68.6943C217.586 68.2463 217.454 67.9023 217.19 67.6623C216.982 67.4703 216.698 67.3743 216.338 67.3743C215.674 67.3743 215.186 67.6063 214.874 68.0703C214.65 68.3903 214.538 68.8063 214.538 69.3183C214.546 69.8623 214.722 70.3263 215.066 70.7103C215.426 71.1183 215.902 71.3223 216.494 71.3223H217.142C217.438 71.3223 217.586 71.1703 217.586 70.8663V68.6943ZM221.125 63.5823V70.8663C221.125 70.9943 221.165 71.1023 221.245 71.1903C221.333 71.2783 221.445 71.3223 221.581 71.3223H221.737V72.1743H221.185C220.929 72.1743 220.705 72.0903 220.513 71.9223C220.241 71.6903 220.105 71.3943 220.105 71.0343V63.5823H221.125ZM227.078 63.4023V64.3383L224.066 66.1263C225.314 66.4623 226.298 67.0863 227.018 67.9983C227.674 68.8303 228.002 69.7903 228.002 70.8783C228.002 71.2623 227.902 71.5743 227.702 71.8143C227.502 72.0543 227.242 72.1743 226.922 72.1743H221.654V71.3223H226.526C226.838 71.3223 226.994 71.1623 226.994 70.8423C226.954 70.0103 226.71 69.2783 226.262 68.6463C225.622 67.7183 224.598 67.1583 223.19 66.9663C223.142 66.9663 223.118 66.9383 223.118 66.8823V65.6943L227.078 63.4023ZM232.714 70.0863V72.0423C232.714 72.8343 232.922 73.3903 233.338 73.7103C233.754 74.0303 234.478 74.1903 235.51 74.1903C236.502 74.1903 237.194 74.0663 237.586 73.8183C238.09 73.5143 238.354 72.9663 238.378 72.1743H237.466L237.046 71.6583V71.3223H239.722V72.1743H239.398C239.374 73.1423 239.042 73.8783 238.402 74.3823C237.842 74.8223 237.114 75.0423 236.218 75.0423H234.886C233.886 75.0423 233.098 74.7743 232.522 74.2383C231.97 73.7183 231.694 72.9943 231.694 72.0663V70.5063L232.21 70.0863H232.714ZM242.026 63.5823V71.0343C242.026 71.1303 242.014 71.2263 241.99 71.3223H242.626V72.1743H242.206L241.81 71.7543H241.774C241.558 72.0343 241.278 72.1743 240.934 72.1743H238.846V71.3223H240.55C240.702 71.3223 240.822 71.2623 240.91 71.1423C240.974 71.0623 241.006 70.9703 241.006 70.8663V63.5823H242.026ZM245.165 71.3223C244.645 70.7863 244.385 70.0983 244.385 69.2583C244.385 68.3623 244.681 67.6583 245.273 67.1463C245.769 66.7223 246.409 66.5103 247.193 66.5103C247.617 66.5103 248.061 66.5783 248.525 66.7143V67.5183C248.053 67.3983 247.641 67.3383 247.289 67.3383C246.697 67.3383 246.233 67.5223 245.897 67.8903C245.569 68.2503 245.405 68.7503 245.405 69.3903C245.405 69.9103 245.581 70.3703 245.933 70.7703C246.261 71.1383 246.641 71.3223 247.073 71.3223H249.497V71.6583L249.077 72.1743H242.537V71.3223H245.165ZM255.866 64.0143C256.026 64.0143 256.162 64.0743 256.274 64.1943C256.394 64.3063 256.454 64.4423 256.454 64.6023C256.454 64.7703 256.394 64.9143 256.274 65.0343C256.162 65.1463 256.026 65.2023 255.866 65.2023C255.706 65.2023 255.566 65.1463 255.446 65.0343C255.334 64.9143 255.278 64.7703 255.278 64.6023C255.278 64.4423 255.334 64.3063 255.446 64.1943C255.566 64.0743 255.706 64.0143 255.866 64.0143ZM257.318 64.0143C257.486 64.0143 257.626 64.0743 257.738 64.1943C257.858 64.3063 257.918 64.4423 257.918 64.6023C257.918 64.7703 257.858 64.9143 257.738 65.0343C257.626 65.1463 257.486 65.2023 257.318 65.2023C257.158 65.2023 257.018 65.1463 256.898 65.0343C256.786 64.9143 256.73 64.7703 256.73 64.6023C256.73 64.4423 256.786 64.3063 256.898 64.1943C257.018 64.0743 257.158 64.0143 257.318 64.0143ZM257.918 66.3303V70.8663C257.918 71.0103 257.958 71.1223 258.038 71.2023C258.11 71.2823 258.19 71.3223 258.278 71.3223H258.518V72.1743H258.014C257.646 72.1743 257.354 72.0343 257.138 71.7543C256.618 72.1223 256.058 72.3063 255.458 72.3063C254.618 72.3063 253.954 71.9783 253.466 71.3223C253.066 70.7863 252.866 70.1463 252.866 69.4023C252.866 68.5303 253.154 67.8063 253.73 67.2303C254.242 66.7103 254.87 66.4503 255.614 66.4503C256.038 66.4503 256.466 66.5463 256.898 66.7383L257.414 66.3303H257.918ZM256.898 67.5783C256.546 67.4023 256.19 67.3143 255.83 67.3143C255.222 67.3143 254.73 67.5543 254.354 68.0343C254.042 68.4263 253.886 68.8903 253.886 69.4263C253.886 70.0663 254.038 70.5703 254.342 70.9383C254.638 71.2743 255.038 71.4423 255.542 71.4423C255.974 71.4423 256.426 71.3263 256.898 71.0943V67.5783ZM261.619 66.6543V71.0343C261.619 71.3303 261.523 71.5863 261.331 71.8023C261.115 72.0503 260.847 72.1743 260.527 72.1743H258.439V71.3223H260.143C260.279 71.3223 260.391 71.2743 260.479 71.1783C260.559 71.0983 260.599 70.9943 260.599 70.8663V66.6543H261.619ZM260.803 73.4223C260.963 73.4223 261.099 73.4783 261.211 73.5903C261.331 73.7103 261.391 73.8503 261.391 74.0103C261.391 74.1783 261.331 74.3183 261.211 74.4303C261.099 74.5503 260.963 74.6103 260.803 74.6103C260.643 74.6103 260.503 74.5503 260.383 74.4303C260.271 74.3183 260.215 74.1783 260.215 74.0103C260.215 73.8503 260.271 73.7103 260.383 73.5903C260.503 73.4783 260.643 73.4223 260.803 73.4223ZM264.296 63.5823V70.8663C264.296 70.9943 264.336 71.1023 264.416 71.1903C264.504 71.2783 264.616 71.3223 264.752 71.3223H264.908V72.1743H264.356C264.1 72.1743 263.876 72.0903 263.684 71.9223C263.412 71.6903 263.276 71.3943 263.276 71.0343V63.5823H264.296ZM266.422 66.8583C267.158 66.6263 267.846 66.5103 268.486 66.5103C269.478 66.5103 270.234 66.8183 270.754 67.4343C271.202 67.9623 271.426 68.6543 271.426 69.5103V71.0343C271.426 71.3063 271.342 71.5463 271.174 71.7543C270.966 72.0343 270.69 72.1743 270.346 72.1743H264.826V71.3223H269.95C270.254 71.3223 270.406 71.1703 270.406 70.8663V69.4743C270.406 68.8503 270.242 68.3583 269.914 67.9983C269.554 67.5983 269.03 67.3983 268.342 67.3983C267.926 67.3983 267.286 67.4863 266.422 67.6623V66.8583ZM267.85 73.4223C268.018 73.4223 268.158 73.4783 268.27 73.5903C268.39 73.7103 268.45 73.8503 268.45 74.0103C268.45 74.1783 268.39 74.3183 268.27 74.4303C268.158 74.5503 268.018 74.6103 267.85 74.6103C267.69 74.6103 267.55 74.5503 267.43 74.4303C267.318 74.3183 267.262 74.1783 267.262 74.0103C267.262 73.8503 267.318 73.7103 267.43 73.5903C267.55 73.4783 267.69 73.4223 267.85 73.4223ZM279.257 63.5823V71.0343C279.257 71.3063 279.173 71.5463 279.005 71.7543C278.781 72.0343 278.501 72.1743 278.165 72.1743H272.921L272.501 71.6583V71.3223H275.717L273.653 65.0583H274.673L276.749 71.3223H277.781C277.925 71.3223 278.041 71.2703 278.129 71.1663C278.193 71.0783 278.225 70.9783 278.225 70.8663V63.5823H279.257ZM281.933 63.5823V72.0543L281.417 72.4743H280.913V63.5823H281.933ZM287.449 72.0543C287.033 72.2063 286.597 72.2823 286.141 72.2823C285.277 72.2823 284.593 71.9783 284.089 71.3703C283.641 70.8343 283.417 70.1503 283.417 69.3183C283.417 68.4783 283.653 67.8063 284.125 67.3023C284.629 66.7743 285.309 66.5103 286.165 66.5103C286.813 66.5103 287.341 66.6743 287.749 67.0023C288.237 67.3943 288.481 67.9583 288.481 68.6943V72.0663C288.473 73.0903 288.137 73.8623 287.473 74.3823C287.137 74.6463 286.733 74.8303 286.261 74.9343C285.949 74.9983 285.625 75.0303 285.289 75.0303C285.097 75.0303 284.913 75.0263 284.737 75.0183L284.341 74.5263V74.1423C284.581 74.1743 284.833 74.1903 285.097 74.1903C286.657 74.1903 287.441 73.4783 287.449 72.0543ZM287.449 68.6943C287.449 68.1983 287.273 67.8263 286.921 67.5783C286.721 67.4423 286.469 67.3743 286.165 67.3743C285.629 67.3743 285.205 67.5543 284.893 67.9143C284.589 68.2743 284.437 68.7743 284.437 69.4143C284.437 70.0223 284.613 70.5023 284.965 70.8543C285.277 71.1823 285.693 71.3463 286.213 71.3463C286.669 71.3463 287.081 71.2743 287.449 71.1303V68.6943Z" fill="#B0B0B0"/>
<path d="M20.7031 26.214C20.9191 26.214 21.1031 26.29 21.2551 26.442C21.4071 26.594 21.4831 26.778 21.4831 26.994C21.4831 27.202 21.4071 27.382 21.2551 27.534C21.1031 27.686 20.9191 27.762 20.7031 27.762C20.4871 27.762 20.3031 27.686 20.1511 27.534C19.9991 27.382 19.9231 27.202 19.9231 26.994C19.9231 26.778 19.9991 26.594 20.1511 26.442C20.3031 26.29 20.4871 26.214 20.7031 26.214ZM22.5271 26.214C22.7431 26.214 22.9271 26.29 23.0791 26.442C23.2311 26.594 23.3071 26.778 23.3071 26.994C23.3071 27.202 23.2311 27.382 23.0791 27.534C22.9271 27.686 22.7431 27.762 22.5271 27.762C22.3191 27.762 22.1391 27.686 21.9871 27.534C21.8351 27.382 21.7591 27.202 21.7591 26.994C21.7591 26.778 21.8351 26.594 21.9871 26.442C22.1391 26.29 22.3191 26.214 22.5271 26.214ZM23.3071 28.53V32.85C23.3071 32.946 23.3351 33.018 23.3911 33.066C23.4391 33.122 23.5031 33.15 23.5831 33.15H23.9191V34.374H23.1631C22.7951 34.374 22.4631 34.226 22.1671 33.93C21.7111 34.306 21.2031 34.494 20.6431 34.494C20.0111 34.494 19.4671 34.294 19.0111 33.894C18.4031 33.326 18.0991 32.566 18.0991 31.614C18.0991 30.742 18.3791 30.018 18.9391 29.442C19.4511 28.922 20.0791 28.662 20.8231 28.662C21.2391 28.662 21.6551 28.75 22.0711 28.926L22.5871 28.53H23.3071ZM21.8431 30.078C21.5631 29.974 21.2951 29.922 21.0391 29.922C20.6071 29.922 20.2511 30.082 19.9711 30.402C19.6911 30.714 19.5511 31.122 19.5511 31.626C19.5511 32.13 19.6751 32.534 19.9231 32.838C20.1791 33.142 20.5191 33.294 20.9431 33.294C21.2311 33.294 21.5311 33.23 21.8431 33.102V30.078ZM25.9847 30.93C25.9847 30.17 26.2487 29.594 26.7767 29.202C27.1927 28.882 27.7607 28.722 28.4807 28.722C29.1847 28.722 29.7807 28.93 30.2687 29.346C30.8847 29.874 31.1927 30.622 31.1927 31.59C31.1927 32.502 30.9487 33.258 30.4607 33.858C29.9887 34.442 29.3767 34.734 28.6247 34.734C27.9607 34.734 27.4367 34.486 27.0527 33.99C26.7967 34.246 26.4847 34.374 26.1167 34.374H23.8247V33.15H25.6727C25.7607 33.15 25.8367 33.118 25.9007 33.054C25.9567 32.998 25.9847 32.93 25.9847 32.85V30.93ZM27.4367 33.018C27.7327 33.338 28.0727 33.498 28.4567 33.498C28.8327 33.498 29.1407 33.334 29.3807 33.006C29.6207 32.67 29.7407 32.238 29.7407 31.71C29.7407 31.134 29.6087 30.682 29.3447 30.354C29.1047 30.074 28.7927 29.934 28.4087 29.934C28.1207 29.934 27.8927 30.026 27.7247 30.21C27.5327 30.386 27.4367 30.626 27.4367 30.93V33.018ZM33.4397 28.782C33.7117 28.734 34.0277 28.71 34.3877 28.71C35.3077 28.71 36.0517 29.006 36.6197 29.598C37.1237 30.134 37.3757 30.798 37.3757 31.59V32.742C37.3757 32.926 37.3717 33.062 37.3637 33.15H37.6757V34.374H37.5197L37.1237 33.882H37.0877C37.0237 33.954 36.9557 34.022 36.8837 34.086C36.6437 34.278 36.3757 34.374 36.0797 34.374H32.2277V33.15H35.6117C35.8117 33.15 35.9117 33.05 35.9117 32.85V31.734C35.9117 31.182 35.7437 30.738 35.4077 30.402C35.0957 30.09 34.6437 29.922 34.0517 29.898C33.7797 29.898 33.5757 29.914 33.4397 29.946V28.782ZM41.3745 26.214C41.5905 26.214 41.7745 26.29 41.9265 26.442C42.0785 26.594 42.1545 26.778 42.1545 26.994C42.1545 27.202 42.0785 27.382 41.9265 27.534C41.7745 27.686 41.5905 27.762 41.3745 27.762C41.1665 27.762 40.9865 27.686 40.8345 27.534C40.6825 27.382 40.6065 27.202 40.6065 26.994C40.6065 26.778 40.6825 26.594 40.8345 26.442C40.9865 26.29 41.1665 26.214 41.3745 26.214ZM39.1785 29.058C39.9385 28.826 40.6305 28.71 41.2545 28.71C42.2225 28.71 43.0025 29.014 43.5945 29.622C44.1305 30.166 44.3985 30.854 44.3985 31.686V32.97V33.15H44.7945V34.374H44.5425L44.1465 33.882H44.1225C43.8505 34.21 43.5105 34.374 43.1025 34.374H37.5825V33.15H42.6345C42.8345 33.15 42.9345 33.05 42.9345 32.85V31.77C42.9345 31.226 42.7505 30.79 42.3825 30.462C42.0225 30.126 41.5465 29.958 40.9545 29.958C40.5625 29.958 39.9705 30.046 39.1785 30.222V29.058ZM48.3198 25.782V33.054C48.3198 33.39 48.2118 33.678 47.9958 33.918C47.7478 34.222 47.4238 34.374 47.0238 34.374H44.7078V33.15H46.5558C46.6438 33.15 46.7198 33.118 46.7838 33.054C46.8398 32.998 46.8678 32.93 46.8678 32.85V25.782H48.3198ZM51.4421 25.782V34.074L50.6981 34.674H49.9781V25.782H51.4421ZM58.6584 28.854V33.15H59.2704V34.374H58.6464C58.5824 35.334 58.2024 36.07 57.5064 36.582C56.9304 37.006 56.2224 37.218 55.3824 37.218C55.2384 37.218 55.0824 37.214 54.9144 37.206L54.3264 36.474V35.958C54.5824 35.998 54.8304 36.018 55.0704 36.018C56.4864 36.018 57.1944 35.33 57.1944 33.954V28.854H58.6584ZM60.8602 30.966C61.1322 30.182 61.6282 29.586 62.3482 29.178C62.8842 28.874 63.4642 28.722 64.0882 28.722C64.7122 28.722 65.2842 28.89 65.8042 29.226C66.4522 29.618 66.9162 30.198 67.1962 30.966L67.0522 31.302C66.7322 31.446 66.3962 31.694 66.0442 32.046C65.7082 32.414 65.4882 32.782 65.3842 33.15H67.3162V34.374H64.6762C64.4522 34.374 64.2482 34.27 64.0642 34.062H64.0042C63.8202 34.27 63.6082 34.374 63.3682 34.374H59.1922V33.15H62.6722C62.5762 32.822 62.3722 32.474 62.0602 32.106C61.7162 31.722 61.3602 31.454 60.9922 31.302L60.8602 30.966ZM65.6602 30.87C65.4682 30.534 65.2082 30.286 64.8802 30.126C64.6322 30.006 64.3562 29.946 64.0522 29.946C63.7322 29.946 63.4282 30.014 63.1402 30.15C62.8202 30.31 62.5722 30.55 62.3962 30.87C62.6682 30.99 62.9562 31.23 63.2602 31.59C63.5962 31.966 63.8442 32.374 64.0042 32.814H64.0522C64.2042 32.366 64.4642 31.938 64.8322 31.53C65.1282 31.202 65.4042 30.982 65.6602 30.87ZM79.9632 28.854V33.054C79.9632 33.414 79.8352 33.726 79.5792 33.99C79.3312 34.246 79.0272 34.374 78.6672 34.374H76.1472L75.7032 33.882H75.6672C75.4032 34.21 75.0672 34.374 74.6592 34.374H72.1392L71.6832 33.882H71.6472C71.3832 34.21 71.0472 34.374 70.6392 34.374H67.2312V33.15H70.1712C70.3712 33.15 70.4712 33.05 70.4712 32.85V30.234H71.9352V32.634C71.9352 32.866 71.9312 33.038 71.9232 33.15H74.1912C74.3912 33.15 74.4912 33.05 74.4912 32.85V29.538H75.9552V32.742C75.9552 32.79 75.9512 32.862 75.9432 32.958C75.9432 33.046 75.9432 33.11 75.9432 33.15H78.1992C78.3992 33.15 78.4992 33.05 78.4992 32.85V28.854H79.9632Z" fill="#2C4768"/>
<path fill-rule="evenodd" clip-rule="evenodd" d="M305.44 18.4743C306.513 17.3996 308.253 17.3989 309.327 18.4728L311.819 20.9647C312.884 22.0295 312.895 23.7532 311.844 24.8316L302.611 34.3049C301.905 35.0287 300.937 35.4369 299.927 35.4369L297.175 35.4368C295.896 35.4367 294.874 34.3703 294.928 33.0912L295.046 30.2822C295.085 29.3432 295.476 28.4532 296.14 27.7883L305.44 18.4743ZM308.267 19.5343C307.779 19.0461 306.988 19.0464 306.5 19.535L304.837 21.2006L309.117 25.4804L310.77 23.7838C311.248 23.2937 311.243 22.5101 310.759 22.0262L308.267 19.5343ZM297.2 28.849L303.777 22.262L308.07 26.5546L301.537 33.2571C301.114 33.6914 300.533 33.9363 299.927 33.9363L297.175 33.9362C296.749 33.9362 296.408 33.5807 296.426 33.1543L296.544 30.3453C296.568 29.7819 296.802 29.2479 297.2 28.849ZM312.441 35.3636C312.855 35.3636 313.19 35.0277 313.19 34.6133C313.19 34.1989 312.855 33.863 312.441 33.863H306.319C305.905 33.863 305.569 34.1989 305.569 34.6133C305.569 35.0277 305.905 35.3636 306.319 35.3636H312.441Z" fill="#DDB762"/>
<path d="M43.744 51.5077C44.784 51.1877 45.632 51.0277 46.288 51.0277C47.888 51.0277 49.168 51.4437 50.128 52.2757C51.04 53.0757 51.496 54.1477 51.496 55.4917C51.496 57.7477 50.496 59.0997 48.496 59.5477C49.648 59.7397 50.552 60.2277 51.208 61.0117C51.88 61.7957 52.216 62.7637 52.216 63.9157C52.216 65.5797 51.568 66.8437 50.272 67.7077C49.28 68.3637 48.04 68.6917 46.552 68.6917C45.592 68.6917 44.632 68.5557 43.672 68.2837L42.904 67.3237V66.5797C44.008 66.8197 44.976 66.9397 45.808 66.9397C48.704 66.9397 50.152 65.9637 50.152 64.0117C50.152 62.9557 49.712 62.0677 48.832 61.3477C48.336 60.9477 47.808 60.6757 47.248 60.5317C46.704 60.3717 45.896 60.2837 44.824 60.2677V58.7077H46.864C47.632 58.7077 48.256 58.4597 48.736 57.9637C49.232 57.4517 49.48 56.7957 49.48 55.9957C49.48 55.0517 49.168 54.3077 48.544 53.7637C47.92 53.2037 47.072 52.9237 46 52.9237C45.472 52.9237 44.72 53.0277 43.744 53.2357V51.5077ZM59.3106 68.7397C57.1826 68.7397 55.6626 67.6277 54.7506 65.4037C54.1586 63.9797 53.8626 62.2117 53.8626 60.0997C53.8626 57.4437 54.3266 55.2517 55.2546 53.5237C56.1666 51.7957 57.5186 50.9317 59.3106 50.9317C61.0546 50.9317 62.3906 51.7717 63.3186 53.4517C64.2946 55.1637 64.7826 57.3557 64.7826 60.0277C64.7826 62.5397 64.3826 64.5557 63.5826 66.0757C62.6386 67.8517 61.2146 68.7397 59.3106 68.7397ZM62.6946 60.0757C62.6946 55.1957 61.5666 52.7557 59.3106 52.7557C57.0706 52.7557 55.9506 55.1797 55.9506 60.0277C55.9506 62.0597 56.1346 63.5877 56.5026 64.6117C57.0306 66.1317 57.9666 66.8917 59.3106 66.8917C61.5666 66.8917 62.6946 64.6197 62.6946 60.0757ZM71.9903 68.7397C69.8623 68.7397 68.3423 67.6277 67.4303 65.4037C66.8383 63.9797 66.5423 62.2117 66.5423 60.0997C66.5423 57.4437 67.0063 55.2517 67.9343 53.5237C68.8463 51.7957 70.1983 50.9317 71.9903 50.9317C73.7343 50.9317 75.0703 51.7717 75.9983 53.4517C76.9743 55.1637 77.4623 57.3557 77.4623 60.0277C77.4623 62.5397 77.0623 64.5557 76.2623 66.0757C75.3183 67.8517 73.8943 68.7397 71.9903 68.7397ZM75.3743 60.0757C75.3743 55.1957 74.2463 52.7557 71.9903 52.7557C69.7503 52.7557 68.6303 55.1797 68.6303 60.0277C68.6303 62.0597 68.8143 63.5877 69.1823 64.6117C69.7103 66.1317 70.6463 66.8917 71.9903 66.8917C74.2463 66.8917 75.3743 64.6197 75.3743 60.0757Z" fill="#3FD06F"/>
<path d="M27.6725 59.4971V63.6971C27.6725 64.0571 27.5445 64.3691 27.2885 64.6331C27.0405 64.8891 26.7365 65.0171 26.3765 65.0171H23.8565L23.4005 64.5251H23.3645C23.1005 64.8531 22.7645 65.0171 22.3565 65.0171H19.6325C19.5605 65.9771 19.1925 66.7051 18.5285 67.2011C17.9365 67.6571 17.1725 67.8851 16.2365 67.8851H15.0485C13.9685 67.8851 13.1165 67.5851 12.4925 66.9851C11.9245 66.4331 11.6405 65.6811 11.6405 64.7291V62.5811L12.3845 61.9811H13.1045V64.5971C13.1045 65.3571 13.2925 65.8891 13.6685 66.1931C14.0525 66.5051 14.7085 66.6611 15.6365 66.6611C16.5405 66.6611 17.1805 66.5211 17.5565 66.2411C17.9725 65.9211 18.1805 65.3731 18.1805 64.5971V60.8771H19.6445V63.7931H21.8885C22.0885 63.7931 22.1885 63.6931 22.1885 63.4931V60.1811H23.6525V63.3971C23.6525 63.5731 23.6485 63.7051 23.6405 63.7931H25.9085C26.1085 63.7931 26.2085 63.6931 26.2085 63.4931V59.4971H27.6725ZM30.0921 63.5291C30.3081 63.5291 30.4921 63.6051 30.6441 63.7571C30.7961 63.9011 30.8721 64.0811 30.8721 64.2971C30.8721 64.5131 30.7961 64.6971 30.6441 64.8491C30.4921 65.0011 30.3081 65.0771 30.0921 65.0771C29.8841 65.0771 29.7041 65.0011 29.5521 64.8491C29.4001 64.6971 29.3241 64.5131 29.3241 64.2971C29.3241 64.0811 29.3961 63.9011 29.5401 63.7571C29.6921 63.6051 29.8761 63.5291 30.0921 63.5291ZM35.8833 59.4971V64.7291C35.8833 65.7211 35.5793 66.4891 34.9713 67.0331C34.5793 67.3931 34.0753 67.6451 33.4593 67.7891C33.1713 67.8451 32.8713 67.8731 32.5593 67.8731C32.4553 67.8731 32.3153 67.8651 32.1393 67.8491L31.5513 67.1171V66.6011C31.8073 66.6411 32.0553 66.6611 32.2953 66.6611C33.7113 66.6611 34.4193 65.9731 34.4193 64.5971V59.4971H35.8833Z" fill="#3FD06F"/>
<rect x="25.1445" y="95.5791" width="280.25" height="39" rx="11.5" fill="#DDB762" stroke="#DDB762"/>
<path d="M122.956 109.507C123.244 109.507 123.489 109.608 123.692 109.811C123.894 110.013 123.996 110.259 123.996 110.547C123.996 110.824 123.894 111.064 123.692 111.267C123.489 111.469 123.244 111.571 122.956 111.571C122.668 111.571 122.422 111.469 122.22 111.267C122.017 111.064 121.916 110.824 121.916 110.547C121.916 110.259 122.017 110.013 122.22 109.811C122.422 109.608 122.668 109.507 122.956 109.507ZM125.388 109.507C125.676 109.507 125.921 109.608 126.124 109.811C126.326 110.013 126.428 110.259 126.428 110.547C126.428 110.824 126.326 111.064 126.124 111.267C125.921 111.469 125.676 111.571 125.388 111.571C125.11 111.571 124.87 111.469 124.668 111.267C124.465 111.064 124.364 110.824 124.364 110.547C124.364 110.259 124.465 110.013 124.668 109.811C124.87 109.608 125.11 109.507 125.388 109.507ZM126.428 112.595V118.355C126.428 118.483 126.465 118.579 126.54 118.643C126.604 118.717 126.689 118.755 126.796 118.755H127.244V120.387H126.236C125.745 120.387 125.302 120.189 124.908 119.795C124.3 120.296 123.622 120.547 122.876 120.547C122.033 120.547 121.308 120.28 120.7 119.747C119.889 118.989 119.484 117.976 119.484 116.707C119.484 115.544 119.857 114.579 120.604 113.811C121.286 113.117 122.124 112.771 123.116 112.771C123.67 112.771 124.225 112.888 124.78 113.123L125.468 112.595H126.428ZM124.476 114.659C124.102 114.52 123.745 114.451 123.404 114.451C122.828 114.451 122.353 114.664 121.98 115.091C121.606 115.507 121.42 116.051 121.42 116.723C121.42 117.395 121.585 117.933 121.916 118.339C122.257 118.744 122.71 118.947 123.276 118.947C123.66 118.947 124.06 118.861 124.476 118.691V114.659ZM129.998 115.795C129.998 114.781 130.35 114.013 131.054 113.491C131.608 113.064 132.366 112.851 133.326 112.851C134.264 112.851 135.059 113.128 135.71 113.683C136.531 114.387 136.942 115.384 136.942 116.675C136.942 117.891 136.616 118.899 135.966 119.699C135.336 120.477 134.52 120.867 133.518 120.867C132.632 120.867 131.934 120.536 131.422 119.875C131.08 120.216 130.664 120.387 130.174 120.387H127.118V118.755H129.582C129.699 118.755 129.8 118.712 129.886 118.627C129.96 118.552 129.998 118.461 129.998 118.355V115.795ZM131.934 118.579C132.328 119.005 132.782 119.219 133.294 119.219C133.795 119.219 134.206 119 134.526 118.563C134.846 118.115 135.006 117.539 135.006 116.835C135.006 116.067 134.83 115.464 134.478 115.027C134.158 114.653 133.742 114.467 133.23 114.467C132.846 114.467 132.542 114.589 132.318 114.835C132.062 115.069 131.934 115.389 131.934 115.795V118.579ZM139.938 112.931C140.3 112.867 140.722 112.835 141.202 112.835C142.428 112.835 143.42 113.229 144.178 114.019C144.85 114.733 145.186 115.619 145.186 116.675V118.211C145.186 118.456 145.18 118.637 145.17 118.755H145.586V120.387H145.378L144.85 119.731H144.802C144.716 119.827 144.626 119.917 144.53 120.003C144.21 120.259 143.852 120.387 143.458 120.387H138.322V118.755H142.834C143.1 118.755 143.234 118.621 143.234 118.355V116.867C143.234 116.131 143.01 115.539 142.562 115.091C142.146 114.675 141.543 114.451 140.754 114.419C140.391 114.419 140.119 114.44 139.938 114.483V112.931ZM150.518 109.507C150.806 109.507 151.051 109.608 151.254 109.811C151.456 110.013 151.558 110.259 151.558 110.547C151.558 110.824 151.456 111.064 151.254 111.267C151.051 111.469 150.806 111.571 150.518 111.571C150.24 111.571 150 111.469 149.798 111.267C149.595 111.064 149.494 110.824 149.494 110.547C149.494 110.259 149.595 110.013 149.798 109.811C150 109.608 150.24 109.507 150.518 109.507ZM147.59 113.299C148.603 112.989 149.526 112.835 150.358 112.835C151.648 112.835 152.688 113.24 153.478 114.051C154.192 114.776 154.55 115.693 154.55 116.803V118.515V118.755H155.078V120.387H154.742L154.214 119.731H154.182C153.819 120.168 153.366 120.387 152.822 120.387H145.462V118.755H152.198C152.464 118.755 152.598 118.621 152.598 118.355V116.915C152.598 116.189 152.352 115.608 151.862 115.171C151.382 114.723 150.747 114.499 149.958 114.499C149.435 114.499 148.646 114.616 147.59 114.851V113.299ZM159.778 108.931V118.627C159.778 119.075 159.634 119.459 159.346 119.779C159.015 120.184 158.583 120.387 158.05 120.387H154.962V118.755H157.426C157.543 118.755 157.645 118.712 157.73 118.627C157.805 118.552 157.842 118.461 157.842 118.355V108.931H159.778ZM163.941 108.931V119.987L162.949 120.787H161.989V108.931H163.941ZM182.571 113.027V118.515C182.571 118.621 182.565 118.701 182.555 118.755H183.387V120.387H182.843L182.235 119.731H182.187C181.856 120.168 181.408 120.387 180.843 120.387H171.883C171.2 120.387 170.608 120.168 170.107 119.731C169.424 119.165 169.083 118.424 169.083 117.507V114.979L170.075 114.179H171.035V117.507C171.035 117.88 171.163 118.184 171.419 118.419C171.664 118.643 171.947 118.755 172.267 118.755H180.171C180.309 118.755 180.427 118.707 180.523 118.611C180.587 118.525 180.619 118.424 180.619 118.307V113.027H182.571ZM175.835 121.555C176.123 121.555 176.368 121.656 176.571 121.859C176.773 122.061 176.875 122.307 176.875 122.595C176.875 122.883 176.773 123.128 176.571 123.331C176.368 123.533 176.123 123.635 175.835 123.635C175.547 123.635 175.301 123.533 175.099 123.331C174.896 123.128 174.795 122.883 174.795 122.595C174.795 122.307 174.896 122.061 175.099 121.859C175.301 121.656 175.547 121.555 175.835 121.555ZM188.09 108.931V118.515V118.755H188.906V120.387H188.362L187.754 119.731H187.722C187.36 120.168 186.906 120.387 186.362 120.387H183.274V118.755H185.738C185.866 118.755 185.973 118.712 186.058 118.627C186.122 118.52 186.154 118.429 186.154 118.355V108.931H188.09ZM193.59 108.931V115.715C195.019 113.784 196.795 112.819 198.918 112.819C200.187 112.819 201.233 113.224 202.054 114.035C202.811 114.771 203.19 115.683 203.19 116.771V118.627C203.19 119.128 203.003 119.555 202.63 119.907C202.289 120.227 201.899 120.387 201.462 120.387H188.774V118.755H191.654V108.931H193.59ZM201.238 116.867C201.227 116.205 201.009 115.672 200.582 115.267C200.091 114.755 199.425 114.499 198.582 114.499C197.729 114.499 196.913 114.781 196.134 115.347C195.131 116.072 194.283 117.208 193.59 118.755H200.838C201.105 118.755 201.238 118.621 201.238 118.355V116.867Z" fill="white"/>
</svg>
