<svg width="330" height="151" viewBox="0 0 330 151" fill="none" xmlns="http://www.w3.org/2000/svg">
<rect x="0.660156" y="0.767578" width="328.862" height="150" rx="8" fill="#F9F9F9"/>
<path d="M138.394 21.2617C138.646 21.2617 138.861 21.3504 139.038 21.5277C139.215 21.7051 139.304 21.9197 139.304 22.1717C139.304 22.4144 139.215 22.6244 139.038 22.8017C138.861 22.9791 138.646 23.0677 138.394 23.0677C138.142 23.0677 137.927 22.9791 137.75 22.8017C137.573 22.6244 137.484 22.4144 137.484 22.1717C137.484 21.9197 137.573 21.7051 137.75 21.5277C137.927 21.3504 138.142 21.2617 138.394 21.2617ZM140.522 21.2617C140.774 21.2617 140.989 21.3504 141.166 21.5277C141.343 21.7051 141.432 21.9197 141.432 22.1717C141.432 22.4144 141.343 22.6244 141.166 22.8017C140.989 22.9791 140.774 23.0677 140.522 23.0677C140.279 23.0677 140.069 22.9791 139.892 22.8017C139.715 22.6244 139.626 22.4144 139.626 22.1717C139.626 21.9197 139.715 21.7051 139.892 21.5277C140.069 21.3504 140.279 21.2617 140.522 21.2617ZM141.432 23.9637V29.0037C141.432 29.1157 141.465 29.1997 141.53 29.2557C141.586 29.3211 141.661 29.3537 141.754 29.3537H142.146V30.7817H141.264C140.835 30.7817 140.447 30.6091 140.102 30.2637C139.57 30.7024 138.977 30.9217 138.324 30.9217C137.587 30.9217 136.952 30.6884 136.42 30.2217C135.711 29.5591 135.356 28.6724 135.356 27.5617C135.356 26.5444 135.683 25.6997 136.336 25.0277C136.933 24.4211 137.666 24.1177 138.534 24.1177C139.019 24.1177 139.505 24.2204 139.99 24.4257L140.592 23.9637H141.432ZM139.724 25.7697C139.397 25.6484 139.085 25.5877 138.786 25.5877C138.282 25.5877 137.867 25.7744 137.54 26.1477C137.213 26.5117 137.05 26.9877 137.05 27.5757C137.05 28.1637 137.195 28.6351 137.484 28.9897C137.783 29.3444 138.179 29.5217 138.674 29.5217C139.01 29.5217 139.36 29.4471 139.724 29.2977V25.7697ZM146.264 24.3417V29.1437V29.3537H146.978V30.7817H146.488L145.97 30.2077H145.942C145.624 30.5904 145.228 30.7817 144.752 30.7817H142.05V29.3537H144.164C144.294 29.3537 144.388 29.3164 144.444 29.2417C144.528 29.1671 144.57 29.0737 144.57 28.9617V24.3417H146.264ZM143.226 31.8037C143.478 31.8037 143.692 31.8924 143.87 32.0697C144.047 32.2471 144.136 32.4617 144.136 32.7137C144.136 32.9657 144.047 33.1804 143.87 33.3577C143.692 33.5351 143.478 33.6237 143.226 33.6237C142.974 33.6237 142.759 33.5351 142.582 33.3577C142.404 33.1804 142.316 32.9657 142.316 32.7137C142.316 32.4617 142.404 32.2471 142.582 32.0697C142.759 31.8924 142.974 31.8037 143.226 31.8037ZM145.354 31.8037C145.606 31.8037 145.82 31.8924 145.998 32.0697C146.175 32.2471 146.264 32.4617 146.264 32.7137C146.264 32.9657 146.175 33.1804 145.998 33.3577C145.82 33.5351 145.606 33.6237 145.354 33.6237C145.111 33.6237 144.901 33.5351 144.724 33.3577C144.546 33.1804 144.458 32.9657 144.458 32.7137C144.458 32.4617 144.546 32.2471 144.724 32.0697C144.901 31.8924 145.111 31.8037 145.354 31.8037ZM152.154 21.2617C152.397 21.2617 152.607 21.3504 152.784 21.5277C152.961 21.7051 153.05 21.9197 153.05 22.1717C153.05 22.4144 152.961 22.6244 152.784 22.8017C152.607 22.9791 152.397 23.0677 152.154 23.0677C151.902 23.0677 151.687 22.9791 151.51 22.8017C151.333 22.6244 151.244 22.4144 151.244 22.1717C151.244 21.9197 151.333 21.7051 151.51 21.5277C151.687 21.3504 151.902 21.2617 152.154 21.2617ZM149.662 29.3537C149.242 28.7937 149.032 28.1171 149.032 27.3237C149.032 26.6051 149.214 25.9844 149.578 25.4617C150.166 24.6031 151.015 24.1737 152.126 24.1737C152.966 24.1737 153.671 24.4351 154.24 24.9577C154.903 25.5644 155.234 26.3531 155.234 27.3237C155.234 28.0891 155.024 28.7657 154.604 29.3537H155.57V30.7817H153.47C152.863 30.7817 152.425 30.7211 152.154 30.5997H152.084C151.823 30.7211 151.384 30.7817 150.768 30.7817H146.876V29.3537H149.662ZM152.126 29.3397C152.546 29.2931 152.882 29.1017 153.134 28.7657C153.395 28.4204 153.526 27.9817 153.526 27.4497C153.526 26.8897 153.4 26.4417 153.148 26.1057C152.896 25.7697 152.555 25.6017 152.126 25.6017C151.706 25.6017 151.365 25.7697 151.104 26.1057C150.852 26.4417 150.726 26.8897 150.726 27.4497C150.726 27.9817 150.852 28.4204 151.104 28.7657C151.365 29.1017 151.706 29.2931 152.126 29.3397ZM156.82 21.2617C157.072 21.2617 157.286 21.3504 157.464 21.5277C157.641 21.7051 157.73 21.9197 157.73 22.1717C157.73 22.4144 157.641 22.6244 157.464 22.8017C157.286 22.9791 157.072 23.0677 156.82 23.0677C156.568 23.0677 156.353 22.9791 156.176 22.8017C155.998 22.6244 155.91 22.4144 155.91 22.1717C155.91 21.9197 155.998 21.7051 156.176 21.5277C156.353 21.3504 156.568 21.2617 156.82 21.2617ZM158.948 21.2617C159.2 21.2617 159.414 21.3504 159.592 21.5277C159.769 21.7051 159.858 21.9197 159.858 22.1717C159.858 22.4144 159.769 22.6244 159.592 22.8017C159.414 22.9791 159.2 23.0677 158.948 23.0677C158.705 23.0677 158.495 22.9791 158.318 22.8017C158.14 22.6244 158.052 22.4144 158.052 22.1717C158.052 21.9197 158.14 21.7051 158.318 21.5277C158.495 21.3504 158.705 21.2617 158.948 21.2617ZM159.676 24.3417V29.2417C159.676 29.6057 159.554 29.9417 159.312 30.2497C159.004 30.6044 158.621 30.7817 158.164 30.7817H155.462V29.3537H157.618C157.72 29.3537 157.809 29.3164 157.884 29.2417C157.949 29.1764 157.982 29.0971 157.982 29.0037V24.3417H159.676ZM163.496 20.7577V29.0037C163.496 29.0971 163.524 29.1717 163.58 29.2277C163.636 29.3117 163.725 29.3537 163.846 29.3537H164.21V30.7817H163.3C162.918 30.7817 162.582 30.6464 162.292 30.3757C161.956 30.0677 161.788 29.6897 161.788 29.2417V20.7577H163.496ZM167.518 24.4957C168.526 24.0384 169.548 23.8097 170.584 23.8097C171.919 23.8097 172.927 24.2111 173.608 25.0137C174.196 25.7137 174.49 26.6564 174.49 27.8417V28.9617C174.49 28.9991 174.486 29.0691 174.476 29.1717C174.476 29.2557 174.476 29.3164 174.476 29.3537H174.938V30.7817H174.658L174.182 30.2077H174.154C174.061 30.3104 173.944 30.4177 173.804 30.5297C173.562 30.6977 173.286 30.7817 172.978 30.7817H169.478C169.086 30.7817 168.788 30.7304 168.582 30.6277H168.526C168.321 30.7304 167.976 30.7817 167.49 30.7817H164.102V29.3537H166.622C166.473 29.1671 166.352 28.9244 166.258 28.6257C166.174 28.3457 166.132 28.0471 166.132 27.7297C166.132 27.1324 166.286 26.6191 166.594 26.1897C166.837 25.8631 167.145 25.6204 167.518 25.4617V24.4957ZM172.782 28.0657C172.782 27.0297 172.554 26.2784 172.096 25.8117C171.667 25.3824 171.018 25.1677 170.15 25.1677C169.768 25.1677 169.362 25.2097 168.932 25.2937C169.604 25.3777 170.132 25.6764 170.514 26.1897C170.822 26.6191 170.976 27.1324 170.976 27.7297C170.976 28.0284 170.939 28.3131 170.864 28.5837C170.771 28.9011 170.65 29.1577 170.5 29.3537H172.418C172.54 29.3537 172.628 29.3164 172.684 29.2417C172.75 29.1764 172.782 29.0971 172.782 29.0037V28.0657ZM168.54 29.1857C168.848 29.1577 169.096 29.0177 169.282 28.7657C169.469 28.5044 169.562 28.1777 169.562 27.7857C169.562 27.3377 169.455 26.9924 169.24 26.7497C169.054 26.5351 168.82 26.4277 168.54 26.4277C168.27 26.4277 168.036 26.5257 167.84 26.7217C167.616 26.9737 167.504 27.3284 167.504 27.7857C167.514 28.1871 167.612 28.5137 167.798 28.7657C167.985 29.0177 168.232 29.1577 168.54 29.1857ZM179.049 20.7577V29.2417C179.049 29.6337 178.923 29.9697 178.671 30.2497C178.382 30.6044 178.004 30.7817 177.537 30.7817H174.835V29.3537H176.991C177.094 29.3537 177.182 29.3164 177.257 29.2417C177.322 29.1764 177.355 29.0971 177.355 29.0037V20.7577H179.049ZM182.692 20.7577V30.4317L181.824 31.1317H180.984V20.7577H182.692ZM190.033 21.2617C190.285 21.2617 190.495 21.3504 190.663 21.5277C190.84 21.7051 190.929 21.9197 190.929 22.1717C190.929 22.4237 190.84 22.6384 190.663 22.8157C190.495 22.9837 190.285 23.0677 190.033 23.0677C189.781 23.0677 189.566 22.9791 189.389 22.8017C189.211 22.6244 189.123 22.4144 189.123 22.1717C189.123 21.9197 189.211 21.7051 189.389 21.5277C189.566 21.3504 189.781 21.2617 190.033 21.2617ZM192.161 21.2617C192.413 21.2617 192.627 21.3504 192.805 21.5277C192.982 21.7051 193.071 21.9197 193.071 22.1717C193.071 22.4144 192.982 22.6244 192.805 22.8017C192.627 22.9791 192.413 23.0677 192.161 23.0677C191.909 23.0677 191.694 22.9791 191.517 22.8017C191.339 22.6244 191.251 22.4144 191.251 22.1717C191.251 21.9197 191.339 21.7051 191.517 21.5277C191.694 21.3504 191.909 21.2617 192.161 21.2617ZM193.071 23.9637V28.3317C193.071 29.1344 192.795 29.7737 192.245 30.2497C191.731 30.6884 191.027 30.9077 190.131 30.9077C189.141 30.9077 188.367 30.5904 187.807 29.9557C187.265 29.3864 186.995 28.6164 186.995 27.6457C186.995 26.5911 187.335 25.7231 188.017 25.0417C188.623 24.4257 189.375 24.1177 190.271 24.1177C190.747 24.1177 191.199 24.2251 191.629 24.4397L192.217 23.9637H193.071ZM191.363 25.7697C191.036 25.6391 190.728 25.5737 190.439 25.5737C189.916 25.5737 189.491 25.7651 189.165 26.1477C188.847 26.5304 188.689 27.0297 188.689 27.6457C188.689 28.2244 188.815 28.6771 189.067 29.0037C189.328 29.3211 189.687 29.4797 190.145 29.4797C190.555 29.4797 190.863 29.3677 191.069 29.1437C191.265 28.9197 191.363 28.6444 191.363 28.3177V25.7697ZM198.083 24.3417V30.4457C198.083 31.6031 197.729 32.4991 197.019 33.1337C196.562 33.5537 195.974 33.8477 195.255 34.0157C194.919 34.0811 194.569 34.1137 194.205 34.1137C194.084 34.1137 193.921 34.1044 193.715 34.0857L193.029 33.2317V32.6297C193.328 32.6764 193.617 32.6997 193.897 32.6997C195.549 32.6997 196.375 31.8971 196.375 30.2917V24.3417H198.083ZM201.723 20.7577V29.0037C201.723 29.0971 201.751 29.1717 201.807 29.2277C201.863 29.3117 201.951 29.3537 202.073 29.3537H202.437V30.7817H201.527C201.144 30.7817 200.808 30.6464 200.519 30.3757C200.183 30.0677 200.015 29.6897 200.015 29.2417V20.7577H201.723ZM211.681 19.5817C211.914 19.5817 212.11 19.6657 212.269 19.8337C212.427 19.9924 212.507 20.1884 212.507 20.4217C212.507 20.6551 212.427 20.8511 212.269 21.0097C212.11 21.1684 211.914 21.2477 211.681 21.2477C211.447 21.2477 211.247 21.1684 211.079 21.0097C210.92 20.8511 210.841 20.6551 210.841 20.4217C210.841 20.1884 210.92 19.9924 211.079 19.8337C211.247 19.6657 211.447 19.5817 211.681 19.5817ZM210.617 21.2617C210.869 21.2617 211.079 21.3504 211.247 21.5277C211.424 21.7051 211.513 21.9197 211.513 22.1717C211.513 22.4237 211.424 22.6384 211.247 22.8157C211.079 22.9837 210.869 23.0677 210.617 23.0677C210.365 23.0677 210.15 22.9837 209.973 22.8157C209.805 22.6384 209.721 22.4237 209.721 22.1717C209.721 21.9197 209.805 21.7051 209.973 21.5277C210.15 21.3504 210.365 21.2617 210.617 21.2617ZM212.731 21.2617C212.983 21.2617 213.197 21.3504 213.375 21.5277C213.552 21.7051 213.641 21.9197 213.641 22.1717C213.641 22.4144 213.552 22.6244 213.375 22.8017C213.197 22.9791 212.983 23.0677 212.731 23.0677C212.488 23.0677 212.278 22.9791 212.101 22.8017C211.923 22.6244 211.835 22.4144 211.835 22.1717C211.835 21.9197 211.923 21.7051 212.101 21.5277C212.278 21.3504 212.488 21.2617 212.731 21.2617ZM217.197 24.3417V28.9197V29.3537H217.911V30.7817H217.365L216.903 30.2077H216.875C216.557 30.5904 216.161 30.7817 215.685 30.7817H212.689L212.227 30.2077H212.185C211.877 30.5904 211.485 30.7817 211.009 30.7817H207.999L207.537 30.2077H207.495C207.187 30.5904 206.795 30.7817 206.319 30.7817H202.343V29.3537H205.773C206.006 29.3537 206.123 29.2371 206.123 29.0037V25.9517H207.831V28.9197C207.831 29.1157 207.826 29.2604 207.817 29.3537H210.463C210.696 29.3537 210.813 29.2371 210.813 29.0037V25.1397H212.521V28.8777C212.521 28.9337 212.516 29.0177 212.507 29.1297C212.507 29.2324 212.507 29.3071 212.507 29.3537H215.139C215.372 29.3537 215.489 29.2371 215.489 29.0037V24.3417H217.197ZM219.177 21.2617C219.429 21.2617 219.644 21.3504 219.821 21.5277C219.999 21.7051 220.087 21.9197 220.087 22.1717C220.087 22.4144 219.999 22.6244 219.821 22.8017C219.644 22.9791 219.429 23.0677 219.177 23.0677C218.925 23.0677 218.711 22.9791 218.533 22.8017C218.356 22.6244 218.267 22.4144 218.267 22.1717C218.267 21.9197 218.356 21.7051 218.533 21.5277C218.711 21.3504 218.925 21.2617 219.177 21.2617ZM221.305 21.2617C221.557 21.2617 221.772 21.3504 221.949 21.5277C222.127 21.7051 222.215 21.9197 222.215 22.1717C222.215 22.4144 222.127 22.6244 221.949 22.8017C221.772 22.9791 221.557 23.0677 221.305 23.0677C221.063 23.0677 220.853 22.9791 220.675 22.8017C220.498 22.6244 220.409 22.4144 220.409 22.1717C220.409 21.9197 220.498 21.7051 220.675 21.5277C220.853 21.3504 221.063 21.2617 221.305 21.2617ZM222.033 24.3417V29.1437V29.3537H222.747V30.7817H222.257L221.739 30.2077H221.711C221.394 30.5904 220.997 30.7817 220.521 30.7817H217.819V29.3537H219.933C220.064 29.3537 220.157 29.3164 220.213 29.2417C220.297 29.1671 220.339 29.0737 220.339 28.9617V24.3417H222.033ZM237.5 24.3417V29.2417C237.5 29.6617 237.35 30.0257 237.052 30.3337C236.762 30.6324 236.408 30.7817 235.988 30.7817H233.048L232.53 30.2077H232.488C232.18 30.5904 231.788 30.7817 231.312 30.7817H228.372L227.84 30.2077H227.798C227.49 30.5904 227.098 30.7817 226.622 30.7817H222.645V29.3537H226.076C226.309 29.3537 226.426 29.2371 226.426 29.0037V25.9517H228.134V28.7517C228.134 29.0224 228.129 29.2231 228.12 29.3537H230.766C230.999 29.3537 231.116 29.2371 231.116 29.0037V25.1397H232.824V28.8777C232.824 28.9337 232.819 29.0177 232.81 29.1297C232.81 29.2324 232.81 29.3071 232.81 29.3537H235.442C235.675 29.3537 235.792 29.2371 235.792 29.0037V24.3417H237.5ZM246.781 20.7577V29.2417C246.781 29.6431 246.65 29.9837 246.389 30.2637C246.09 30.6091 245.717 30.7817 245.269 30.7817H239.655L238.955 29.9137V29.3537H242.357L240.047 22.4797H241.643L243.967 29.3537H244.723C244.835 29.3537 244.928 29.3164 245.003 29.2417C245.05 29.1671 245.073 29.0877 245.073 29.0037V20.7577H246.781ZM250.422 20.7577V30.4317L249.554 31.1317H248.714V20.7577H250.422ZM257.763 21.2617C258.015 21.2617 258.23 21.3504 258.407 21.5277C258.584 21.7051 258.673 21.9197 258.673 22.1717C258.673 22.4144 258.584 22.6244 258.407 22.8017C258.23 22.9791 258.015 23.0677 257.763 23.0677C257.511 23.0677 257.296 22.9791 257.119 22.8017C256.942 22.6244 256.853 22.4144 256.853 22.1717C256.853 21.9197 256.942 21.7051 257.119 21.5277C257.296 21.3504 257.511 21.2617 257.763 21.2617ZM259.891 21.2617C260.143 21.2617 260.358 21.3504 260.535 21.5277C260.712 21.7051 260.801 21.9197 260.801 22.1717C260.801 22.4144 260.712 22.6244 260.535 22.8017C260.358 22.9791 260.143 23.0677 259.891 23.0677C259.648 23.0677 259.438 22.9791 259.261 22.8017C259.084 22.6244 258.995 22.4144 258.995 22.1717C258.995 21.9197 259.084 21.7051 259.261 21.5277C259.438 21.3504 259.648 21.2617 259.891 21.2617ZM260.801 23.9637V29.0037C260.801 29.1157 260.834 29.1997 260.899 29.2557C260.955 29.3211 261.03 29.3537 261.123 29.3537H261.515V30.7817H260.633C260.204 30.7817 259.816 30.6091 259.471 30.2637C258.939 30.7024 258.346 30.9217 257.693 30.9217C256.956 30.9217 256.321 30.6884 255.789 30.2217C255.08 29.5591 254.725 28.6724 254.725 27.5617C254.725 26.5444 255.052 25.6997 255.705 25.0277C256.302 24.4211 257.035 24.1177 257.903 24.1177C258.388 24.1177 258.874 24.2204 259.359 24.4257L259.961 23.9637H260.801ZM259.093 25.7697C258.766 25.6484 258.454 25.5877 258.155 25.5877C257.651 25.5877 257.236 25.7744 256.909 26.1477C256.582 26.5117 256.419 26.9877 256.419 27.5757C256.419 28.1637 256.564 28.6351 256.853 28.9897C257.152 29.3444 257.548 29.5217 258.043 29.5217C258.379 29.5217 258.729 29.4471 259.093 29.2977V25.7697ZM263.925 26.7637C263.925 25.8771 264.233 25.2051 264.849 24.7477C265.334 24.3744 265.997 24.1877 266.837 24.1877C267.658 24.1877 268.354 24.4304 268.923 24.9157C269.642 25.5317 270.001 26.4044 270.001 27.5337C270.001 28.5977 269.716 29.4797 269.147 30.1797C268.596 30.8611 267.882 31.2017 267.005 31.2017C266.23 31.2017 265.619 30.9124 265.171 30.3337C264.872 30.6324 264.508 30.7817 264.079 30.7817H261.405V29.3537H263.561C263.664 29.3537 263.752 29.3164 263.827 29.2417C263.892 29.1764 263.925 29.0971 263.925 29.0037V26.7637ZM265.619 29.1997C265.964 29.5731 266.361 29.7597 266.809 29.7597C267.248 29.7597 267.607 29.5684 267.887 29.1857C268.167 28.7937 268.307 28.2897 268.307 27.6737C268.307 27.0017 268.153 26.4744 267.845 26.0917C267.565 25.7651 267.201 25.6017 266.753 25.6017C266.417 25.6017 266.151 25.7091 265.955 25.9237C265.731 26.1291 265.619 26.4091 265.619 26.7637V29.1997ZM272.622 24.2577C272.94 24.2017 273.308 24.1737 273.728 24.1737C274.802 24.1737 275.67 24.5191 276.332 25.2097C276.92 25.8351 277.214 26.6097 277.214 27.5337V28.8777C277.214 29.0924 277.21 29.2511 277.2 29.3537H277.564V30.7817H277.382L276.92 30.2077H276.878C276.804 30.2917 276.724 30.3711 276.64 30.4457C276.36 30.6697 276.048 30.7817 275.702 30.7817H271.208V29.3537H275.156C275.39 29.3537 275.506 29.2371 275.506 29.0037V27.7017C275.506 27.0577 275.31 26.5397 274.918 26.1477C274.554 25.7837 274.027 25.5877 273.336 25.5597C273.019 25.5597 272.781 25.5784 272.622 25.6157V24.2577ZM281.894 21.2617C282.146 21.2617 282.36 21.3504 282.538 21.5277C282.715 21.7051 282.804 21.9197 282.804 22.1717C282.804 22.4144 282.715 22.6244 282.538 22.8017C282.36 22.9791 282.146 23.0677 281.894 23.0677C281.651 23.0677 281.441 22.9791 281.264 22.8017C281.086 22.6244 280.998 22.4144 280.998 22.1717C280.998 21.9197 281.086 21.7051 281.264 21.5277C281.441 21.3504 281.651 21.2617 281.894 21.2617ZM279.332 24.5797C280.256 24.3091 281.063 24.1737 281.754 24.1737C282.883 24.1737 283.793 24.5284 284.484 25.2377C285.109 25.8817 285.422 26.6844 285.422 27.6457V29.2417C285.422 29.6244 285.291 29.9697 285.03 30.2777C284.722 30.6137 284.348 30.7817 283.91 30.7817H277.47V29.3537H283.364C283.597 29.3537 283.714 29.2371 283.714 29.0037V27.7437C283.714 27.0904 283.499 26.5771 283.07 26.2037C282.65 25.8304 282.066 25.6437 281.32 25.6437C280.89 25.6437 280.228 25.7417 279.332 25.9377V24.5797Z" fill="#2C4768"/>
<path d="M149.371 47.0852V55.5692C149.371 56.5292 149.079 57.2692 148.495 57.7892C147.927 58.2932 147.159 58.5452 146.191 58.5452H144.859C143.907 58.5452 143.147 58.3012 142.579 57.8132C141.971 57.2932 141.667 56.5452 141.667 55.5692V53.0612L142.183 52.6412H142.687V55.5452C142.687 56.3452 142.895 56.9012 143.311 57.2132C143.735 57.5332 144.471 57.6932 145.519 57.6932C146.519 57.6932 147.223 57.5572 147.631 57.2852C148.111 56.9572 148.351 56.3772 148.351 55.5452V47.0852H149.371ZM157.378 47.0852V54.5372C157.378 54.6492 157.362 54.7452 157.33 54.8252H157.978V55.6772H157.51L157.162 55.2572H157.126C157.014 55.3932 156.886 55.4972 156.742 55.5692C156.598 55.6412 156.446 55.6772 156.286 55.6772H151.042L150.622 55.1612V54.8252H153.838L151.774 48.5612H152.794L154.87 54.8252H155.902C156.038 54.8252 156.15 54.7772 156.238 54.6812C156.31 54.6012 156.346 54.4972 156.346 54.3692V47.0852H157.378ZM161.669 47.5172C161.837 47.5172 161.977 47.5772 162.089 47.6972C162.201 47.8092 162.257 47.9452 162.257 48.1052C162.257 48.2732 162.201 48.4172 162.089 48.5372C161.977 48.6492 161.837 48.7052 161.669 48.7052C161.509 48.7052 161.369 48.6492 161.249 48.5372C161.137 48.4172 161.081 48.2732 161.081 48.1052C161.081 47.9452 161.137 47.8092 161.249 47.6972C161.369 47.5772 161.509 47.5172 161.669 47.5172ZM159.473 50.3612C160.209 50.1292 160.897 50.0132 161.537 50.0132C162.529 50.0132 163.285 50.3212 163.805 50.9372C164.253 51.4652 164.477 52.1572 164.477 53.0132V54.5372C164.477 54.8092 164.393 55.0492 164.225 55.2572C164.017 55.5372 163.741 55.6772 163.397 55.6772H157.877V54.8252H163.001C163.305 54.8252 163.457 54.6732 163.457 54.3692V52.9772C163.457 52.3532 163.293 51.8612 162.965 51.5012C162.605 51.1012 162.081 50.9012 161.393 50.9012C160.977 50.9012 160.337 50.9892 159.473 51.1652V50.3612ZM171.859 50.0132C172.019 50.0132 172.155 50.0732 172.267 50.1932C172.387 50.3052 172.447 50.4412 172.447 50.6012C172.447 50.7692 172.387 50.9132 172.267 51.0332C172.155 51.1452 172.019 51.2012 171.859 51.2012C171.699 51.2012 171.559 51.1452 171.439 51.0332C171.327 50.9132 171.271 50.7692 171.271 50.6012C171.271 50.4412 171.327 50.3052 171.439 50.1932C171.559 50.0732 171.699 50.0132 171.859 50.0132ZM175.819 50.1572V54.8252H176.431V55.6772H175.819C175.795 56.6292 175.475 57.3572 174.859 57.8612C174.291 58.3172 173.551 58.5452 172.639 58.5452H171.307C170.419 58.5452 169.695 58.3332 169.135 57.9092C168.455 57.3892 168.115 56.6092 168.115 55.5692V53.0612L168.631 52.6412H169.135V55.5452C169.135 56.3452 169.343 56.9012 169.759 57.2132C170.183 57.5332 170.919 57.6932 171.967 57.6932C172.967 57.6932 173.671 57.5572 174.079 57.2852C174.559 56.9572 174.799 56.3772 174.799 55.5452V50.1572H175.819ZM178.553 52.1972C178.553 51.3812 178.841 50.7812 179.417 50.3972C179.793 50.1492 180.293 50.0252 180.917 50.0252C181.677 50.0252 182.313 50.2852 182.825 50.8052C183.337 51.3252 183.593 52.0532 183.593 52.9892C183.593 53.8612 183.337 54.5972 182.825 55.1972C182.345 55.7572 181.737 56.0372 181.001 56.0372C180.313 56.0372 179.753 55.7772 179.321 55.2572C179.105 55.5372 178.817 55.6772 178.457 55.6772H176.393V54.8252H178.097C178.225 54.8252 178.333 54.7812 178.421 54.6932C178.509 54.6052 178.553 54.4972 178.553 54.3692V52.1972ZM179.573 54.5492C179.989 54.9732 180.449 55.1852 180.953 55.1852C181.433 55.1852 181.821 54.9892 182.117 54.5972C182.421 54.1972 182.573 53.6812 182.573 53.0492C182.573 52.3452 182.397 51.7892 182.045 51.3812C181.749 51.0452 181.357 50.8772 180.869 50.8772C180.501 50.8772 180.201 50.9852 179.969 51.2012C179.705 51.4492 179.573 51.7812 179.573 52.1972V54.5492ZM190.015 47.5172C190.175 47.5172 190.311 47.5772 190.423 47.6972C190.543 47.8092 190.603 47.9452 190.603 48.1052C190.603 48.2732 190.543 48.4172 190.423 48.5372C190.311 48.6492 190.175 48.7052 190.015 48.7052C189.855 48.7052 189.715 48.6492 189.595 48.5372C189.483 48.4172 189.427 48.2732 189.427 48.1052C189.427 47.9452 189.483 47.8092 189.595 47.6972C189.715 47.5772 189.855 47.5172 190.015 47.5172ZM191.467 47.5172C191.635 47.5172 191.775 47.5772 191.887 47.6972C192.007 47.8092 192.067 47.9452 192.067 48.1052C192.067 48.2732 192.007 48.4172 191.887 48.5372C191.775 48.6492 191.635 48.7052 191.467 48.7052C191.307 48.7052 191.167 48.6492 191.047 48.5372C190.935 48.4172 190.879 48.2732 190.879 48.1052C190.879 47.9452 190.935 47.8092 191.047 47.6972C191.167 47.5772 191.307 47.5172 191.467 47.5172ZM192.067 49.8332V53.6132C192.067 54.2612 191.883 54.7732 191.515 55.1492C191.107 55.5732 190.491 55.7852 189.667 55.7852C188.947 55.7852 188.363 55.6012 187.915 55.2332C187.315 54.7372 187.015 53.9892 187.015 52.9892C187.015 52.0852 187.291 51.3412 187.843 50.7572C188.355 50.2212 188.995 49.9532 189.763 49.9532C190.187 49.9532 190.615 50.0492 191.047 50.2412L191.563 49.8332H192.067ZM191.047 51.0812C190.695 50.9052 190.339 50.8172 189.979 50.8172C189.347 50.8172 188.851 51.0652 188.491 51.5612C188.187 51.9612 188.035 52.4412 188.035 53.0012C188.035 53.6172 188.179 54.0932 188.467 54.4292C188.755 54.7652 189.155 54.9332 189.667 54.9332C190.147 54.9332 190.499 54.8092 190.723 54.5612C190.939 54.3212 191.047 54.0012 191.047 53.6012V51.0812ZM196.163 50.1572V55.5692C196.163 56.4572 195.911 57.1572 195.407 57.6692C195.015 58.0692 194.487 58.3332 193.823 58.4612C193.567 58.5092 193.287 58.5332 192.983 58.5332C192.791 58.5332 192.607 58.5292 192.431 58.5212L192.035 58.0292V57.6452C192.267 57.6772 192.519 57.6932 192.791 57.6932C194.359 57.6932 195.143 56.9732 195.143 55.5332V50.1572H196.163ZM198.855 47.0852V54.3692C198.855 54.4972 198.895 54.6052 198.975 54.6932C199.063 54.7812 199.175 54.8252 199.311 54.8252H199.467V55.6772H198.915C198.659 55.6772 198.435 55.5932 198.243 55.4252C197.971 55.1932 197.835 54.8972 197.835 54.5372V47.0852H198.855ZM206.717 46.3652C206.877 46.3652 207.009 46.4212 207.113 46.5332C207.225 46.6452 207.281 46.7772 207.281 46.9292C207.281 47.0812 207.225 47.2132 207.113 47.3252C207.009 47.4372 206.877 47.4932 206.717 47.4932C206.565 47.4932 206.433 47.4372 206.321 47.3252C206.209 47.2132 206.153 47.0812 206.153 46.9292C206.153 46.7772 206.209 46.6452 206.321 46.5332C206.433 46.4212 206.565 46.3652 206.717 46.3652ZM205.997 47.5172C206.157 47.5172 206.293 47.5772 206.405 47.6972C206.525 47.8092 206.585 47.9452 206.585 48.1052C206.585 48.2732 206.525 48.4172 206.405 48.5372C206.293 48.6492 206.157 48.7052 205.997 48.7052C205.829 48.7052 205.685 48.6492 205.565 48.5372C205.453 48.4172 205.397 48.2732 205.397 48.1052C205.397 47.9452 205.453 47.8092 205.565 47.6972C205.685 47.5772 205.829 47.5172 205.997 47.5172ZM207.449 47.5172C207.609 47.5172 207.745 47.5772 207.857 47.6972C207.977 47.8092 208.037 47.9452 208.037 48.1052C208.037 48.2732 207.977 48.4172 207.857 48.5372C207.745 48.6492 207.609 48.7052 207.449 48.7052C207.289 48.7052 207.149 48.6492 207.029 48.5372C206.917 48.4172 206.861 48.2732 206.861 48.1052C206.861 47.9452 206.917 47.8092 207.029 47.6972C207.149 47.5772 207.289 47.5172 207.449 47.5172ZM210.797 50.1572V54.5372C210.797 54.6412 210.785 54.7372 210.761 54.8252H211.409V55.6772H210.929L210.593 55.2572H210.557C210.333 55.5372 210.053 55.6772 209.717 55.6772H207.353L207.017 55.2572H206.981C206.757 55.5372 206.477 55.6772 206.141 55.6772H203.777L203.441 55.2572H203.405C203.181 55.5372 202.901 55.6772 202.565 55.6772H199.385V54.8252H202.169C202.473 54.8252 202.625 54.6732 202.625 54.3692V51.5372H203.645V54.5372C203.645 54.6412 203.637 54.7372 203.621 54.8252H205.745C206.049 54.8252 206.201 54.6732 206.201 54.3692V50.8412H207.221V54.5372C207.221 54.6412 207.209 54.7372 207.185 54.8252H209.321C209.625 54.8252 209.777 54.6732 209.777 54.3692V50.1572H210.797ZM212.55 47.5172C212.718 47.5172 212.858 47.5772 212.97 47.6972C213.082 47.8092 213.138 47.9452 213.138 48.1052C213.138 48.2732 213.082 48.4172 212.97 48.5372C212.858 48.6492 212.718 48.7052 212.55 48.7052C212.39 48.7052 212.25 48.6492 212.13 48.5372C212.018 48.4172 211.962 48.2732 211.962 48.1052C211.962 47.9452 212.018 47.8092 212.13 47.6972C212.25 47.5772 212.39 47.5172 212.55 47.5172ZM214.014 47.5172C214.174 47.5172 214.31 47.5772 214.422 47.6972C214.542 47.8092 214.602 47.9452 214.602 48.1052C214.602 48.2732 214.542 48.4172 214.422 48.5372C214.31 48.6492 214.174 48.7052 214.014 48.7052C213.846 48.7052 213.702 48.6492 213.582 48.5372C213.47 48.4172 213.414 48.2732 213.414 48.1052C213.414 47.9452 213.47 47.8092 213.582 47.6972C213.702 47.5772 213.846 47.5172 214.014 47.5172ZM214.494 50.1572V54.5372C214.494 54.6332 214.482 54.7292 214.458 54.8252H215.094V55.6772H214.626L214.278 55.2572H214.242C214.026 55.5372 213.746 55.6772 213.402 55.6772H211.314V54.8252H213.018C213.146 54.8252 213.25 54.7852 213.33 54.7052C213.426 54.6172 213.474 54.5052 213.474 54.3692V50.1572H214.494ZM226.418 50.1572V54.5372C226.418 54.8492 226.31 55.1172 226.094 55.3412C225.886 55.5652 225.634 55.6772 225.338 55.6772H223.022L222.638 55.2572H222.602C222.378 55.5372 222.098 55.6772 221.762 55.6772H219.458L219.062 55.2572H219.026C218.802 55.5372 218.522 55.6772 218.186 55.6772H215.006V54.8252H217.79C218.094 54.8252 218.246 54.6732 218.246 54.3692V51.5372H219.266V54.5372C219.266 54.6412 219.258 54.7372 219.242 54.8252H221.366C221.67 54.8252 221.822 54.6732 221.822 54.3692V50.8412H222.842V54.5372C222.842 54.6412 222.83 54.7372 222.806 54.8252H224.942C225.246 54.8252 225.398 54.6732 225.398 54.3692V50.1572H226.418ZM229.089 47.0852V55.5572L228.573 55.9772H228.069V47.0852H229.089ZM233.964 47.0852V54.3692C233.964 54.4972 234.004 54.6052 234.084 54.6932C234.172 54.7812 234.284 54.8252 234.42 54.8252H234.576V55.6772H234.024C233.768 55.6772 233.544 55.5932 233.352 55.4252C233.08 55.1932 232.944 54.8972 232.944 54.5372V47.0852H233.964ZM237.458 50.2892C238.314 49.8972 239.202 49.7012 240.122 49.7012C242.218 49.7012 243.266 50.8972 243.266 53.2892V54.5492C243.266 54.6452 243.258 54.7372 243.242 54.8252H243.662V55.6772H243.398L243.062 55.2572H243.026C242.962 55.3372 242.89 55.4092 242.81 55.4732C242.618 55.6092 242.414 55.6772 242.198 55.6772H239.306C238.85 55.6772 238.538 55.6492 238.37 55.5932H238.322C238.162 55.6492 237.846 55.6772 237.374 55.6772H234.494V54.8252H236.822C236.638 54.6172 236.494 54.3652 236.39 54.0692C236.286 53.7652 236.234 53.4412 236.234 53.0972C236.234 52.4972 236.366 52.0052 236.63 51.6212C236.83 51.3252 237.106 51.1052 237.458 50.9612V50.2892ZM242.246 53.4572C242.246 52.4252 242.066 51.6932 241.706 51.2612C241.33 50.8132 240.722 50.5892 239.882 50.5892C239.354 50.5892 238.85 50.6612 238.37 50.8052C239.138 50.8132 239.702 51.0932 240.062 51.6452C240.326 52.0292 240.458 52.5132 240.458 53.0972C240.458 53.4012 240.414 53.6932 240.326 53.9732C240.222 54.3092 240.066 54.5932 239.858 54.8252H241.802C241.946 54.8252 242.062 54.7692 242.15 54.6572C242.214 54.5772 242.246 54.4812 242.246 54.3692V53.4572ZM239.558 53.0852C239.558 52.6132 239.446 52.2372 239.222 51.9572C239.006 51.6772 238.706 51.5372 238.322 51.5372C237.938 51.5372 237.638 51.6732 237.422 51.9452C237.206 52.2172 237.098 52.5972 237.098 53.0852C237.098 53.5572 237.214 53.9492 237.446 54.2612C237.678 54.5732 237.97 54.7372 238.322 54.7532C238.682 54.7372 238.978 54.5732 239.21 54.2612C239.442 53.9492 239.558 53.5572 239.558 53.0852ZM246.744 50.1572V54.5372C246.744 54.6332 246.732 54.7292 246.708 54.8252H247.344V55.6772H246.876L246.528 55.2572H246.492C246.276 55.5372 245.996 55.6772 245.652 55.6772H243.564V54.8252H245.268C245.396 54.8252 245.5 54.7852 245.58 54.7052C245.676 54.6172 245.724 54.5052 245.724 54.3692V50.1572H246.744ZM244.692 56.9252C244.852 56.9252 244.988 56.9812 245.1 57.0932C245.22 57.2132 245.28 57.3532 245.28 57.5132C245.28 57.6812 245.22 57.8212 245.1 57.9332C244.988 58.0532 244.852 58.1132 244.692 58.1132C244.532 58.1132 244.392 58.0532 244.272 57.9332C244.16 57.8212 244.104 57.6812 244.104 57.5132C244.104 57.3532 244.16 57.2132 244.272 57.0932C244.392 56.9812 244.532 56.9252 244.692 56.9252ZM246.144 56.9252C246.312 56.9252 246.452 56.9812 246.564 57.0932C246.684 57.2132 246.744 57.3532 246.744 57.5132C246.744 57.6812 246.684 57.8212 246.564 57.9332C246.452 58.0532 246.312 58.1132 246.144 58.1132C245.984 58.1132 245.844 58.0532 245.724 57.9332C245.612 57.8212 245.556 57.6812 245.556 57.5132C245.556 57.3532 245.612 57.2132 245.724 57.0932C245.844 56.9812 245.984 56.9252 246.144 56.9252ZM251.924 47.5172C252.092 47.5172 252.232 47.5772 252.344 47.6972C252.464 47.8092 252.524 47.9452 252.524 48.1052C252.524 48.2732 252.464 48.4172 252.344 48.5372C252.232 48.6492 252.092 48.7052 251.924 48.7052C251.764 48.7052 251.624 48.6492 251.504 48.5372C251.392 48.4172 251.336 48.2732 251.336 48.1052C251.336 47.9452 251.392 47.8092 251.504 47.6972C251.624 47.5772 251.764 47.5172 251.924 47.5172ZM249.944 54.8252C249.64 54.5452 249.416 54.1972 249.272 53.7812C249.16 53.4452 249.104 53.1132 249.104 52.7852C249.104 51.9292 249.36 51.2492 249.872 50.7452C250.376 50.2572 251.06 50.0132 251.924 50.0132C252.58 50.0132 253.104 50.1812 253.496 50.5172C253.952 50.9012 254.188 51.4612 254.204 52.1972V54.5372C254.204 54.8492 254.096 55.1172 253.88 55.3412C253.672 55.5652 253.42 55.6772 253.124 55.6772H247.256V54.8252H249.944ZM253.172 52.1972C253.172 51.7492 253.04 51.4052 252.776 51.1652C252.568 50.9732 252.284 50.8772 251.924 50.8772C251.26 50.8772 250.772 51.1092 250.46 51.5732C250.236 51.8932 250.124 52.3092 250.124 52.8212C250.132 53.3652 250.308 53.8292 250.652 54.2132C251.012 54.6212 251.488 54.8252 252.08 54.8252H252.728C253.024 54.8252 253.172 54.6732 253.172 54.3692V52.1972ZM259.31 54.8252C258.878 54.3772 258.662 53.7572 258.662 52.9652C258.662 52.0372 258.934 51.3052 259.478 50.7692C259.966 50.2892 260.61 50.0412 261.41 50.0252C262.082 50.0252 262.618 50.1932 263.018 50.5292C263.482 50.9132 263.714 51.4692 263.714 52.1972V54.5372C263.714 54.8572 263.602 55.1292 263.378 55.3532C263.17 55.5692 262.922 55.6772 262.634 55.6772H259.202C258.898 55.6772 258.746 55.8292 258.746 56.1332V59.7332L258.23 60.1532H257.726V55.9532C257.726 55.6492 257.834 55.3852 258.05 55.1612C258.266 54.9372 258.522 54.8252 258.818 54.8252H259.31ZM262.682 52.1972C262.682 51.8372 262.582 51.5332 262.382 51.2852C262.142 51.0132 261.81 50.8772 261.386 50.8772C260.882 50.8772 260.47 51.0612 260.15 51.4292C259.838 51.7892 259.682 52.2612 259.682 52.8452C259.682 53.4692 259.838 53.9652 260.15 54.3332C260.43 54.6612 260.774 54.8252 261.182 54.8252H262.238C262.534 54.8252 262.682 54.6732 262.682 54.3692V52.1972ZM266.058 50.0852C266.346 50.0372 266.654 50.0132 266.982 50.0132C267.87 50.0132 268.586 50.2812 269.13 50.8172C269.618 51.3132 269.862 51.9412 269.862 52.7012V54.5372C269.862 54.6412 269.854 54.7372 269.838 54.8252H270.174V55.6772H269.994L269.658 55.2572H269.622C269.558 55.3372 269.486 55.4092 269.406 55.4732C269.214 55.6092 269.006 55.6772 268.782 55.6772H264.846V54.8252H268.398C268.694 54.8252 268.842 54.6732 268.842 54.3692V52.8452C268.842 52.2772 268.67 51.8052 268.326 51.4292C267.958 51.0452 267.39 50.8492 266.622 50.8412C266.398 50.8412 266.21 50.8572 266.058 50.8892V50.0852ZM273.84 47.5172C274 47.5172 274.136 47.5772 274.248 47.6972C274.368 47.8092 274.428 47.9452 274.428 48.1052C274.428 48.2732 274.368 48.4172 274.248 48.5372C274.136 48.6492 274 48.7052 273.84 48.7052C273.68 48.7052 273.54 48.6492 273.42 48.5372C273.308 48.4172 273.252 48.2732 273.252 48.1052C273.252 47.9452 273.308 47.8092 273.42 47.6972C273.54 47.5772 273.68 47.5172 273.84 47.5172ZM275.292 47.5172C275.46 47.5172 275.6 47.5772 275.712 47.6972C275.832 47.8092 275.892 47.9452 275.892 48.1052C275.892 48.2732 275.832 48.4172 275.712 48.5372C275.6 48.6492 275.46 48.7052 275.292 48.7052C275.132 48.7052 274.992 48.6492 274.872 48.5372C274.76 48.4172 274.704 48.2732 274.704 48.1052C274.704 47.9452 274.76 47.8092 274.872 47.6972C274.992 47.5772 275.132 47.5172 275.292 47.5172ZM272.676 54.8252C272.172 54.2732 271.92 53.5932 271.92 52.7852C271.92 52.0092 272.132 51.3732 272.556 50.8772C273.044 50.3012 273.692 50.0132 274.5 50.0132C275.148 50.0132 275.7 50.2052 276.156 50.5892C276.78 51.1092 277.092 51.8412 277.092 52.7852C277.092 53.5852 276.84 54.2652 276.336 54.8252H277.38V55.6772H275.652H275.52C275.048 55.6772 274.716 55.6452 274.524 55.5812H274.476C274.284 55.6452 273.952 55.6772 273.48 55.6772H273.336H270.072V54.8252H272.676ZM274.5 50.8772C274.012 50.8772 273.628 51.0492 273.348 51.3932C273.076 51.7372 272.94 52.2132 272.94 52.8212C272.94 53.3732 273.088 53.8412 273.384 54.2252C273.688 54.6092 274.06 54.8092 274.5 54.8252C274.94 54.8092 275.308 54.6092 275.604 54.2252C275.908 53.8412 276.06 53.3732 276.06 52.8212C276.06 52.2132 275.92 51.7372 275.64 51.3932C275.368 51.0492 274.988 50.8772 274.5 50.8772ZM279.955 47.5172C280.123 47.5172 280.263 47.5772 280.375 47.6972C280.495 47.8092 280.555 47.9452 280.555 48.1052C280.555 48.2732 280.495 48.4172 280.375 48.5372C280.263 48.6492 280.123 48.7052 279.955 48.7052C279.795 48.7052 279.655 48.6492 279.535 48.5372C279.423 48.4172 279.367 48.2732 279.367 48.1052C279.367 47.9452 279.423 47.8092 279.535 47.6972C279.655 47.5772 279.795 47.5172 279.955 47.5172ZM280.471 50.1572V54.5372C280.471 54.8332 280.375 55.0892 280.183 55.3052C279.967 55.5532 279.699 55.6772 279.379 55.6772H277.291V54.8252H278.995C279.131 54.8252 279.243 54.7772 279.331 54.6812C279.411 54.6012 279.451 54.4972 279.451 54.3692V50.1572H280.471ZM285.992 55.5572C285.576 55.7092 285.14 55.7852 284.684 55.7852C283.82 55.7852 283.136 55.4812 282.632 54.8732C282.184 54.3372 281.96 53.6532 281.96 52.8212C281.96 51.9812 282.196 51.3092 282.668 50.8052C283.172 50.2772 283.852 50.0132 284.708 50.0132C285.356 50.0132 285.884 50.1772 286.292 50.5052C286.78 50.8972 287.024 51.4612 287.024 52.1972V55.5692C287.016 56.5932 286.68 57.3652 286.016 57.8852C285.68 58.1492 285.276 58.3332 284.804 58.4372C284.492 58.5012 284.168 58.5332 283.832 58.5332C283.64 58.5332 283.456 58.5292 283.28 58.5212L282.884 58.0292V57.6452C283.124 57.6772 283.376 57.6932 283.64 57.6932C285.2 57.6932 285.984 56.9812 285.992 55.5572ZM285.992 52.1972C285.992 51.7012 285.816 51.3292 285.464 51.0812C285.264 50.9452 285.012 50.8772 284.708 50.8772C284.172 50.8772 283.748 51.0572 283.436 51.4172C283.132 51.7772 282.98 52.2772 282.98 52.9172C282.98 53.5252 283.156 54.0052 283.508 54.3572C283.82 54.6852 284.236 54.8492 284.756 54.8492C285.212 54.8492 285.624 54.7772 285.992 54.6332V52.1972ZM132.991 63.5172C133.151 63.5172 133.287 63.5772 133.399 63.6972C133.519 63.8092 133.579 63.9452 133.579 64.1052C133.579 64.2732 133.519 64.4172 133.399 64.5372C133.287 64.6492 133.151 64.7052 132.991 64.7052C132.831 64.7052 132.691 64.6492 132.571 64.5372C132.459 64.4172 132.403 64.2732 132.403 64.1052C132.403 63.9452 132.459 63.8092 132.571 63.6972C132.691 63.5772 132.831 63.5172 132.991 63.5172ZM134.443 63.5172C134.611 63.5172 134.751 63.5772 134.863 63.6972C134.983 63.8092 135.043 63.9452 135.043 64.1052C135.043 64.2732 134.983 64.4172 134.863 64.5372C134.751 64.6492 134.611 64.7052 134.443 64.7052C134.283 64.7052 134.143 64.6492 134.023 64.5372C133.911 64.4172 133.855 64.2732 133.855 64.1052C133.855 63.9452 133.911 63.8092 134.023 63.6972C134.143 63.5772 134.283 63.5172 134.443 63.5172ZM135.043 65.8332V70.3692C135.043 70.5132 135.083 70.6252 135.163 70.7052C135.235 70.7852 135.315 70.8252 135.403 70.8252H135.643V71.6772H135.139C134.771 71.6772 134.479 71.5372 134.263 71.2572C133.743 71.6252 133.183 71.8092 132.583 71.8092C131.743 71.8092 131.079 71.4812 130.591 70.8252C130.191 70.2892 129.991 69.6492 129.991 68.9052C129.991 68.0332 130.279 67.3092 130.855 66.7332C131.367 66.2132 131.995 65.9532 132.739 65.9532C133.163 65.9532 133.591 66.0492 134.023 66.2412L134.539 65.8332H135.043ZM134.023 67.0812C133.671 66.9052 133.315 66.8172 132.955 66.8172C132.347 66.8172 131.855 67.0572 131.479 67.5372C131.167 67.9292 131.011 68.3932 131.011 68.9292C131.011 69.5692 131.163 70.0732 131.467 70.4412C131.763 70.7772 132.163 70.9452 132.667 70.9452C133.099 70.9452 133.551 70.8292 134.023 70.5972V67.0812ZM138.744 63.0852V70.5372C138.744 70.6332 138.732 70.7292 138.708 70.8252H139.344V71.6772H138.924L138.528 71.2572H138.492C138.276 71.5372 137.996 71.6772 137.652 71.6772H135.564V70.8252H137.268C137.42 70.8252 137.54 70.7652 137.628 70.6452C137.692 70.5652 137.724 70.4732 137.724 70.3692V63.0852H138.744ZM141.044 64.1532C140.876 63.9452 140.792 63.6932 140.792 63.3972C140.792 63.0692 140.884 62.8092 141.068 62.6172C141.252 62.4252 141.5 62.3292 141.812 62.3292C141.996 62.3292 142.188 62.3612 142.388 62.4252V62.9172C142.236 62.8772 142.092 62.8572 141.956 62.8572C141.548 62.8572 141.344 63.0692 141.344 63.4932C141.344 63.6532 141.392 63.7972 141.488 63.9252C141.616 64.0772 141.788 64.1532 142.004 64.1532H142.772V64.3572L142.544 64.6452H140.516V64.1532H141.044ZM142.436 66.1572V70.5372C142.436 70.6332 142.424 70.7292 142.4 70.8252H143.036V71.6772H142.568L142.22 71.2572H142.184C141.968 71.5372 141.688 71.6772 141.344 71.6772H139.256V70.8252H140.96C141.088 70.8252 141.192 70.7852 141.272 70.7052C141.368 70.6172 141.416 70.5052 141.416 70.3692V66.1572H142.436ZM154.359 66.1572V70.5372C154.359 70.8492 154.251 71.1172 154.035 71.3412C153.827 71.5652 153.575 71.6772 153.279 71.6772H150.963L150.579 71.2572H150.543C150.319 71.5372 150.039 71.6772 149.703 71.6772H147.399L147.003 71.2572H146.967C146.743 71.5372 146.463 71.6772 146.127 71.6772H142.947V70.8252H145.731C146.035 70.8252 146.187 70.6732 146.187 70.3692V67.5372H147.207V70.5372C147.207 70.6412 147.199 70.7372 147.183 70.8252H149.307C149.611 70.8252 149.763 70.6732 149.763 70.3692V66.8412H150.783V70.5372C150.783 70.6412 150.771 70.7372 150.747 70.8252H152.883C153.187 70.8252 153.339 70.6732 153.339 70.3692V66.1572H154.359ZM162.347 63.0852V70.5372C162.347 70.8092 162.263 71.0492 162.095 71.2572C161.871 71.5372 161.591 71.6772 161.255 71.6772H156.011L155.591 71.1612V70.8252H158.807L156.743 64.5612H157.763L159.839 70.8252H160.871C161.015 70.8252 161.131 70.7732 161.219 70.6692C161.283 70.5812 161.315 70.4812 161.315 70.3692V63.0852H162.347ZM165.023 63.0852V71.5572L164.507 71.9772H164.003V63.0852H165.023ZM171.71 63.5172C171.87 63.5172 172.006 63.5772 172.118 63.6972C172.238 63.8092 172.298 63.9452 172.298 64.1052C172.298 64.2732 172.238 64.4172 172.118 64.5372C172.006 64.6492 171.87 64.7052 171.71 64.7052C171.55 64.7052 171.41 64.6492 171.29 64.5372C171.178 64.4172 171.122 64.2732 171.122 64.1052C171.122 63.9452 171.178 63.8092 171.29 63.6972C171.41 63.5772 171.55 63.5172 171.71 63.5172ZM173.162 63.5172C173.33 63.5172 173.47 63.5772 173.582 63.6972C173.702 63.8092 173.762 63.9452 173.762 64.1052C173.762 64.2732 173.702 64.4172 173.582 64.5372C173.47 64.6492 173.33 64.7052 173.162 64.7052C173.002 64.7052 172.862 64.6492 172.742 64.5372C172.63 64.4172 172.574 64.2732 172.574 64.1052C172.574 63.9452 172.63 63.8092 172.742 63.6972C172.862 63.5772 173.002 63.5172 173.162 63.5172ZM173.762 65.8332V70.3692C173.762 70.5132 173.802 70.6252 173.882 70.7052C173.954 70.7852 174.034 70.8252 174.122 70.8252H174.362V71.6772H173.858C173.49 71.6772 173.198 71.5372 172.982 71.2572C172.462 71.6252 171.902 71.8092 171.302 71.8092C170.462 71.8092 169.798 71.4812 169.31 70.8252C168.91 70.2892 168.71 69.6492 168.71 68.9052C168.71 68.0332 168.998 67.3092 169.574 66.7332C170.086 66.2132 170.714 65.9532 171.458 65.9532C171.882 65.9532 172.31 66.0492 172.742 66.2412L173.258 65.8332H173.762ZM172.742 67.0812C172.39 66.9052 172.034 66.8172 171.674 66.8172C171.066 66.8172 170.574 67.0572 170.198 67.5372C169.886 67.9292 169.73 68.3932 169.73 68.9292C169.73 69.5692 169.882 70.0732 170.186 70.4412C170.482 70.7772 170.882 70.9452 171.386 70.9452C171.818 70.9452 172.27 70.8292 172.742 70.5972V67.0812ZM178.951 63.5172C179.119 63.5172 179.259 63.5772 179.371 63.6972C179.491 63.8092 179.551 63.9452 179.551 64.1052C179.551 64.2732 179.491 64.4172 179.371 64.5372C179.259 64.6492 179.119 64.7052 178.951 64.7052C178.791 64.7052 178.651 64.6492 178.531 64.5372C178.419 64.4172 178.363 64.2732 178.363 64.1052C178.363 63.9452 178.419 63.8092 178.531 63.6972C178.651 63.5772 178.791 63.5172 178.951 63.5172ZM176.971 70.8252C176.667 70.5452 176.443 70.1972 176.299 69.7812C176.187 69.4452 176.131 69.1132 176.131 68.7852C176.131 67.9292 176.387 67.2492 176.899 66.7452C177.403 66.2572 178.087 66.0132 178.951 66.0132C179.607 66.0132 180.131 66.1812 180.523 66.5172C180.979 66.9012 181.215 67.4612 181.231 68.1972V70.5372C181.231 70.8492 181.123 71.1172 180.907 71.3412C180.699 71.5652 180.447 71.6772 180.151 71.6772H174.283V70.8252H176.971ZM180.199 68.1972C180.199 67.7492 180.067 67.4052 179.803 67.1652C179.595 66.9732 179.311 66.8772 178.951 66.8772C178.287 66.8772 177.799 67.1092 177.487 67.5732C177.263 67.8932 177.151 68.3092 177.151 68.8212C177.159 69.3652 177.335 69.8292 177.679 70.2132C178.039 70.6212 178.515 70.8252 179.107 70.8252H179.755C180.051 70.8252 180.199 70.6732 180.199 70.3692V68.1972ZM183.738 63.0852V70.3692C183.738 70.4972 183.778 70.6052 183.858 70.6932C183.946 70.7812 184.058 70.8252 184.194 70.8252H184.35V71.6772H183.798C183.542 71.6772 183.318 71.5932 183.126 71.4252C182.854 71.1932 182.718 70.8972 182.718 70.5372V63.0852H183.738ZM189.692 62.9052V63.8412L186.68 65.6292C187.928 65.9652 188.912 66.5892 189.632 67.5012C190.288 68.3332 190.616 69.2932 190.616 70.3812C190.616 70.7652 190.516 71.0772 190.316 71.3172C190.116 71.5572 189.856 71.6772 189.536 71.6772H184.268V70.8252H189.14C189.452 70.8252 189.608 70.6652 189.608 70.3452C189.568 69.5132 189.324 68.7812 188.876 68.1492C188.236 67.2212 187.212 66.6612 185.804 66.4692C185.756 66.4692 185.732 66.4412 185.732 66.3852V65.1972L189.692 62.9052ZM195.328 69.5892V71.5452C195.328 72.3372 195.536 72.8932 195.952 73.2132C196.368 73.5332 197.092 73.6932 198.124 73.6932C199.116 73.6932 199.808 73.5692 200.2 73.3212C200.704 73.0172 200.968 72.4692 200.992 71.6772H200.08L199.66 71.1612V70.8252H202.336V71.6772H202.012C201.988 72.6452 201.656 73.3812 201.016 73.8852C200.456 74.3252 199.728 74.5452 198.832 74.5452H197.5C196.5 74.5452 195.712 74.2772 195.136 73.7412C194.584 73.2212 194.308 72.4972 194.308 71.5692V70.0092L194.824 69.5892H195.328ZM204.639 63.0852V70.5372C204.639 70.6332 204.627 70.7292 204.603 70.8252H205.239V71.6772H204.819L204.423 71.2572H204.387C204.171 71.5372 203.891 71.6772 203.547 71.6772H201.459V70.8252H203.163C203.315 70.8252 203.435 70.7652 203.523 70.6452C203.587 70.5652 203.619 70.4732 203.619 70.3692V63.0852H204.639ZM207.778 70.8252C207.258 70.2892 206.998 69.6012 206.998 68.7612C206.998 67.8652 207.294 67.1612 207.886 66.6492C208.382 66.2252 209.022 66.0132 209.806 66.0132C210.23 66.0132 210.674 66.0812 211.138 66.2172V67.0212C210.666 66.9012 210.254 66.8412 209.902 66.8412C209.31 66.8412 208.846 67.0252 208.51 67.3932C208.182 67.7532 208.018 68.2532 208.018 68.8932C208.018 69.4132 208.194 69.8732 208.546 70.2732C208.874 70.6412 209.254 70.8252 209.686 70.8252H212.11V71.1612L211.69 71.6772H205.15V70.8252H207.778ZM218.479 63.5172C218.639 63.5172 218.775 63.5772 218.887 63.6972C219.007 63.8092 219.067 63.9452 219.067 64.1052C219.067 64.2732 219.007 64.4172 218.887 64.5372C218.775 64.6492 218.639 64.7052 218.479 64.7052C218.319 64.7052 218.179 64.6492 218.059 64.5372C217.947 64.4172 217.891 64.2732 217.891 64.1052C217.891 63.9452 217.947 63.8092 218.059 63.6972C218.179 63.5772 218.319 63.5172 218.479 63.5172ZM219.931 63.5172C220.099 63.5172 220.239 63.5772 220.351 63.6972C220.471 63.8092 220.531 63.9452 220.531 64.1052C220.531 64.2732 220.471 64.4172 220.351 64.5372C220.239 64.6492 220.099 64.7052 219.931 64.7052C219.771 64.7052 219.631 64.6492 219.511 64.5372C219.399 64.4172 219.343 64.2732 219.343 64.1052C219.343 63.9452 219.399 63.8092 219.511 63.6972C219.631 63.5772 219.771 63.5172 219.931 63.5172ZM220.531 65.8332V70.3692C220.531 70.5132 220.571 70.6252 220.651 70.7052C220.723 70.7852 220.803 70.8252 220.891 70.8252H221.131V71.6772H220.627C220.259 71.6772 219.967 71.5372 219.751 71.2572C219.231 71.6252 218.671 71.8092 218.071 71.8092C217.231 71.8092 216.567 71.4812 216.079 70.8252C215.679 70.2892 215.479 69.6492 215.479 68.9052C215.479 68.0332 215.767 67.3092 216.343 66.7332C216.855 66.2132 217.483 65.9532 218.227 65.9532C218.651 65.9532 219.079 66.0492 219.511 66.2412L220.027 65.8332H220.531ZM219.511 67.0812C219.159 66.9052 218.803 66.8172 218.443 66.8172C217.835 66.8172 217.343 67.0572 216.967 67.5372C216.655 67.9292 216.499 68.3932 216.499 68.9292C216.499 69.5692 216.651 70.0732 216.955 70.4412C217.251 70.7772 217.651 70.9452 218.155 70.9452C218.587 70.9452 219.039 70.8292 219.511 70.5972V67.0812ZM224.233 66.1572V70.5372C224.233 70.8332 224.137 71.0892 223.945 71.3052C223.729 71.5532 223.461 71.6772 223.141 71.6772H221.053V70.8252H222.757C222.893 70.8252 223.005 70.7772 223.093 70.6812C223.173 70.6012 223.213 70.4972 223.213 70.3692V66.1572H224.233ZM223.417 72.9252C223.577 72.9252 223.713 72.9812 223.825 73.0932C223.945 73.2132 224.005 73.3532 224.005 73.5132C224.005 73.6812 223.945 73.8212 223.825 73.9332C223.713 74.0532 223.577 74.1132 223.417 74.1132C223.257 74.1132 223.117 74.0532 222.997 73.9332C222.885 73.8212 222.829 73.6812 222.829 73.5132C222.829 73.3532 222.885 73.2132 222.997 73.0932C223.117 72.9812 223.257 72.9252 223.417 72.9252ZM226.91 63.0852V70.3692C226.91 70.4972 226.95 70.6052 227.03 70.6932C227.118 70.7812 227.23 70.8252 227.366 70.8252H227.522V71.6772H226.97C226.714 71.6772 226.49 71.5932 226.298 71.4252C226.026 71.1932 225.89 70.8972 225.89 70.5372V63.0852H226.91ZM229.035 66.3612C229.771 66.1292 230.459 66.0132 231.099 66.0132C232.091 66.0132 232.847 66.3212 233.367 66.9372C233.815 67.4652 234.039 68.1572 234.039 69.0132V70.5372C234.039 70.8092 233.955 71.0492 233.787 71.2572C233.579 71.5372 233.303 71.6772 232.959 71.6772H227.439V70.8252H232.563C232.867 70.8252 233.019 70.6732 233.019 70.3692V68.9772C233.019 68.3532 232.855 67.8612 232.527 67.5012C232.167 67.1012 231.643 66.9012 230.955 66.9012C230.539 66.9012 229.899 66.9892 229.035 67.1652V66.3612ZM230.463 72.9252C230.631 72.9252 230.771 72.9812 230.883 73.0932C231.003 73.2132 231.063 73.3532 231.063 73.5132C231.063 73.6812 231.003 73.8212 230.883 73.9332C230.771 74.0532 230.631 74.1132 230.463 74.1132C230.303 74.1132 230.163 74.0532 230.043 73.9332C229.931 73.8212 229.875 73.6812 229.875 73.5132C229.875 73.3532 229.931 73.2132 230.043 73.0932C230.163 72.9812 230.303 72.9252 230.463 72.9252ZM241.87 63.0852V70.5372C241.87 70.8092 241.786 71.0492 241.618 71.2572C241.394 71.5372 241.114 71.6772 240.778 71.6772H235.534L235.114 71.1612V70.8252H238.33L236.266 64.5612H237.286L239.362 70.8252H240.394C240.538 70.8252 240.654 70.7732 240.742 70.6692C240.806 70.5812 240.838 70.4812 240.838 70.3692V63.0852H241.87ZM244.546 63.0852V71.5572L244.03 71.9772H243.526V63.0852H244.546ZM250.062 71.5572C249.646 71.7092 249.21 71.7852 248.754 71.7852C247.89 71.7852 247.206 71.4812 246.702 70.8732C246.254 70.3372 246.03 69.6532 246.03 68.8212C246.03 67.9812 246.266 67.3092 246.738 66.8052C247.242 66.2772 247.922 66.0132 248.778 66.0132C249.426 66.0132 249.954 66.1772 250.362 66.5052C250.85 66.8972 251.094 67.4612 251.094 68.1972V71.5692C251.086 72.5932 250.75 73.3652 250.086 73.8852C249.75 74.1492 249.346 74.3332 248.874 74.4372C248.562 74.5012 248.238 74.5332 247.902 74.5332C247.71 74.5332 247.526 74.5292 247.35 74.5212L246.954 74.0292V73.6452C247.194 73.6772 247.446 73.6932 247.71 73.6932C249.27 73.6932 250.054 72.9812 250.062 71.5572ZM250.062 68.1972C250.062 67.7012 249.886 67.3292 249.534 67.0812C249.334 66.9452 249.082 66.8772 248.778 66.8772C248.242 66.8772 247.818 67.0572 247.506 67.4172C247.202 67.7772 247.05 68.2772 247.05 68.9172C247.05 69.5252 247.226 70.0052 247.578 70.3572C247.89 70.6852 248.306 70.8492 248.826 70.8492C249.282 70.8492 249.694 70.7772 250.062 70.6332V68.1972ZM262.648 63.5172C262.816 63.5172 262.956 63.5772 263.068 63.6972C263.188 63.8092 263.248 63.9452 263.248 64.1052C263.248 64.2732 263.188 64.4172 263.068 64.5372C262.956 64.6492 262.816 64.7052 262.648 64.7052C262.488 64.7052 262.348 64.6492 262.228 64.5372C262.116 64.4172 262.06 64.2732 262.06 64.1052C262.06 63.9452 262.116 63.8092 262.228 63.6972C262.348 63.5772 262.488 63.5172 262.648 63.5172ZM260.824 70.8252C260.32 70.2812 260.068 69.6012 260.068 68.7852C260.068 68.0092 260.28 67.3732 260.704 66.8772C261.192 66.3012 261.84 66.0132 262.648 66.0132C263.368 66.0132 263.968 66.2492 264.448 66.7212C264.976 67.2412 265.24 67.9292 265.24 68.7852C265.24 69.5852 264.988 70.2652 264.484 70.8252H265.528V71.6772H263.812H263.668C263.196 71.6772 262.864 71.6452 262.672 71.5812H262.636C262.444 71.6452 262.108 71.6772 261.628 71.6772H261.484H256.672C256.192 71.6772 255.776 71.5132 255.424 71.1852C255 70.7932 254.788 70.2972 254.788 69.6972V67.4412L255.304 67.0212H255.808V69.6972C255.808 70.0012 255.912 70.2612 256.12 70.4772C256.344 70.7092 256.624 70.8252 256.96 70.8252H260.824ZM264.22 68.7972C264.22 68.2052 264.076 67.7372 263.788 67.3932C263.508 67.0492 263.128 66.8772 262.648 66.8772C262.144 66.8772 261.756 67.0572 261.484 67.4172C261.228 67.7532 261.1 68.2212 261.1 68.8212C261.1 69.3812 261.248 69.8492 261.544 70.2252C261.84 70.6012 262.208 70.8012 262.648 70.8252C263.168 70.8012 263.576 70.5452 263.872 70.0572C264.104 69.6812 264.22 69.2612 264.22 68.7972ZM266.679 63.5172C266.847 63.5172 266.987 63.5772 267.099 63.6972C267.211 63.8092 267.267 63.9452 267.267 64.1052C267.267 64.2732 267.211 64.4172 267.099 64.5372C266.987 64.6492 266.847 64.7052 266.679 64.7052C266.519 64.7052 266.379 64.6492 266.259 64.5372C266.147 64.4172 266.091 64.2732 266.091 64.1052C266.091 63.9452 266.147 63.8092 266.259 63.6972C266.379 63.5772 266.519 63.5172 266.679 63.5172ZM268.143 63.5172C268.303 63.5172 268.439 63.5772 268.551 63.6972C268.671 63.8092 268.731 63.9452 268.731 64.1052C268.731 64.2732 268.671 64.4172 268.551 64.5372C268.439 64.6492 268.303 64.7052 268.143 64.7052C267.975 64.7052 267.831 64.6492 267.711 64.5372C267.599 64.4172 267.543 64.2732 267.543 64.1052C267.543 63.9452 267.599 63.8092 267.711 63.6972C267.831 63.5772 267.975 63.5172 268.143 63.5172ZM268.623 66.1572V70.5372C268.623 70.8332 268.527 71.0892 268.335 71.3052C268.119 71.5532 267.851 71.6772 267.531 71.6772H265.443V70.8252H267.147C267.283 70.8252 267.395 70.7772 267.483 70.6812C267.563 70.6012 267.603 70.4972 267.603 70.3692V66.1572H268.623ZM271.406 63.0852V70.3692C271.406 70.4972 271.446 70.6052 271.526 70.6932C271.614 70.7812 271.726 70.8252 271.862 70.8252H272.018V71.6772H271.466C271.21 71.6772 270.986 71.5932 270.794 71.4252C270.522 71.1932 270.386 70.8972 270.386 70.5372V63.0852H271.406ZM274.9 66.2892C275.756 65.8972 276.644 65.7012 277.564 65.7012C279.66 65.7012 280.708 66.8972 280.708 69.2892V70.5492C280.708 70.6452 280.7 70.7372 280.684 70.8252H281.104V71.6772H280.84L280.504 71.2572H280.468C280.404 71.3372 280.332 71.4092 280.252 71.4732C280.06 71.6092 279.856 71.6772 279.64 71.6772H276.748C276.292 71.6772 275.98 71.6492 275.812 71.5932H275.764C275.604 71.6492 275.288 71.6772 274.816 71.6772H271.936V70.8252H274.264C274.08 70.6172 273.936 70.3652 273.832 70.0692C273.728 69.7652 273.676 69.4412 273.676 69.0972C273.676 68.4972 273.808 68.0052 274.072 67.6212C274.272 67.3252 274.548 67.1052 274.9 66.9612V66.2892ZM279.688 69.4572C279.688 68.4252 279.508 67.6932 279.148 67.2612C278.772 66.8132 278.164 66.5892 277.324 66.5892C276.796 66.5892 276.292 66.6612 275.812 66.8052C276.58 66.8132 277.144 67.0932 277.504 67.6452C277.768 68.0292 277.9 68.5132 277.9 69.0972C277.9 69.4012 277.856 69.6932 277.768 69.9732C277.664 70.3092 277.508 70.5932 277.3 70.8252H279.244C279.388 70.8252 279.504 70.7692 279.592 70.6572C279.656 70.5772 279.688 70.4812 279.688 70.3692V69.4572ZM277 69.0852C277 68.6132 276.888 68.2372 276.664 67.9572C276.448 67.6772 276.148 67.5372 275.764 67.5372C275.38 67.5372 275.08 67.6732 274.864 67.9452C274.648 68.2172 274.54 68.5972 274.54 69.0852C274.54 69.5572 274.656 69.9492 274.888 70.2612C275.12 70.5732 275.412 70.7372 275.764 70.7532C276.124 70.7372 276.42 70.5732 276.652 70.2612C276.884 69.9492 277 69.5572 277 69.0852ZM284.186 63.0852V70.5372C284.186 70.8492 284.082 71.1132 283.874 71.3292C283.658 71.5612 283.398 71.6772 283.094 71.6772H281.006V70.8252H282.71C282.862 70.8252 282.978 70.7732 283.058 70.6692C283.13 70.5812 283.166 70.4812 283.166 70.3692V63.0852H284.186ZM286.863 63.0852V71.5572L286.347 71.9772H285.843V63.0852H286.863Z" fill="#B0B0B0"/>
<path d="M20.7031 26.214C20.9191 26.214 21.1031 26.29 21.2551 26.442C21.4071 26.594 21.4831 26.778 21.4831 26.994C21.4831 27.202 21.4071 27.382 21.2551 27.534C21.1031 27.686 20.9191 27.762 20.7031 27.762C20.4871 27.762 20.3031 27.686 20.1511 27.534C19.9991 27.382 19.9231 27.202 19.9231 26.994C19.9231 26.778 19.9991 26.594 20.1511 26.442C20.3031 26.29 20.4871 26.214 20.7031 26.214ZM22.5271 26.214C22.7431 26.214 22.9271 26.29 23.0791 26.442C23.2311 26.594 23.3071 26.778 23.3071 26.994C23.3071 27.202 23.2311 27.382 23.0791 27.534C22.9271 27.686 22.7431 27.762 22.5271 27.762C22.3191 27.762 22.1391 27.686 21.9871 27.534C21.8351 27.382 21.7591 27.202 21.7591 26.994C21.7591 26.778 21.8351 26.594 21.9871 26.442C22.1391 26.29 22.3191 26.214 22.5271 26.214ZM23.3071 28.53V32.85C23.3071 32.946 23.3351 33.018 23.3911 33.066C23.4391 33.122 23.5031 33.15 23.5831 33.15H23.9191V34.374H23.1631C22.7951 34.374 22.4631 34.226 22.1671 33.93C21.7111 34.306 21.2031 34.494 20.6431 34.494C20.0111 34.494 19.4671 34.294 19.0111 33.894C18.4031 33.326 18.0991 32.566 18.0991 31.614C18.0991 30.742 18.3791 30.018 18.9391 29.442C19.4511 28.922 20.0791 28.662 20.8231 28.662C21.2391 28.662 21.6551 28.75 22.0711 28.926L22.5871 28.53H23.3071ZM21.8431 30.078C21.5631 29.974 21.2951 29.922 21.0391 29.922C20.6071 29.922 20.2511 30.082 19.9711 30.402C19.6911 30.714 19.5511 31.122 19.5511 31.626C19.5511 32.13 19.6751 32.534 19.9231 32.838C20.1791 33.142 20.5191 33.294 20.9431 33.294C21.2311 33.294 21.5311 33.23 21.8431 33.102V30.078ZM25.9847 30.93C25.9847 30.17 26.2487 29.594 26.7767 29.202C27.1927 28.882 27.7607 28.722 28.4807 28.722C29.1847 28.722 29.7807 28.93 30.2687 29.346C30.8847 29.874 31.1927 30.622 31.1927 31.59C31.1927 32.502 30.9487 33.258 30.4607 33.858C29.9887 34.442 29.3767 34.734 28.6247 34.734C27.9607 34.734 27.4367 34.486 27.0527 33.99C26.7967 34.246 26.4847 34.374 26.1167 34.374H23.8247V33.15H25.6727C25.7607 33.15 25.8367 33.118 25.9007 33.054C25.9567 32.998 25.9847 32.93 25.9847 32.85V30.93ZM27.4367 33.018C27.7327 33.338 28.0727 33.498 28.4567 33.498C28.8327 33.498 29.1407 33.334 29.3807 33.006C29.6207 32.67 29.7407 32.238 29.7407 31.71C29.7407 31.134 29.6087 30.682 29.3447 30.354C29.1047 30.074 28.7927 29.934 28.4087 29.934C28.1207 29.934 27.8927 30.026 27.7247 30.21C27.5327 30.386 27.4367 30.626 27.4367 30.93V33.018ZM33.4397 28.782C33.7117 28.734 34.0277 28.71 34.3877 28.71C35.3077 28.71 36.0517 29.006 36.6197 29.598C37.1237 30.134 37.3757 30.798 37.3757 31.59V32.742C37.3757 32.926 37.3717 33.062 37.3637 33.15H37.6757V34.374H37.5197L37.1237 33.882H37.0877C37.0237 33.954 36.9557 34.022 36.8837 34.086C36.6437 34.278 36.3757 34.374 36.0797 34.374H32.2277V33.15H35.6117C35.8117 33.15 35.9117 33.05 35.9117 32.85V31.734C35.9117 31.182 35.7437 30.738 35.4077 30.402C35.0957 30.09 34.6437 29.922 34.0517 29.898C33.7797 29.898 33.5757 29.914 33.4397 29.946V28.782ZM41.3745 26.214C41.5905 26.214 41.7745 26.29 41.9265 26.442C42.0785 26.594 42.1545 26.778 42.1545 26.994C42.1545 27.202 42.0785 27.382 41.9265 27.534C41.7745 27.686 41.5905 27.762 41.3745 27.762C41.1665 27.762 40.9865 27.686 40.8345 27.534C40.6825 27.382 40.6065 27.202 40.6065 26.994C40.6065 26.778 40.6825 26.594 40.8345 26.442C40.9865 26.29 41.1665 26.214 41.3745 26.214ZM39.1785 29.058C39.9385 28.826 40.6305 28.71 41.2545 28.71C42.2225 28.71 43.0025 29.014 43.5945 29.622C44.1305 30.166 44.3985 30.854 44.3985 31.686V32.97V33.15H44.7945V34.374H44.5425L44.1465 33.882H44.1225C43.8505 34.21 43.5105 34.374 43.1025 34.374H37.5825V33.15H42.6345C42.8345 33.15 42.9345 33.05 42.9345 32.85V31.77C42.9345 31.226 42.7505 30.79 42.3825 30.462C42.0225 30.126 41.5465 29.958 40.9545 29.958C40.5625 29.958 39.9705 30.046 39.1785 30.222V29.058ZM48.3198 25.782V33.054C48.3198 33.39 48.2118 33.678 47.9958 33.918C47.7478 34.222 47.4238 34.374 47.0238 34.374H44.7078V33.15H46.5558C46.6438 33.15 46.7198 33.118 46.7838 33.054C46.8398 32.998 46.8678 32.93 46.8678 32.85V25.782H48.3198ZM51.4421 25.782V34.074L50.6981 34.674H49.9781V25.782H51.4421ZM58.6584 28.854V33.15H59.2704V34.374H58.6464C58.5824 35.334 58.2024 36.07 57.5064 36.582C56.9304 37.006 56.2224 37.218 55.3824 37.218C55.2384 37.218 55.0824 37.214 54.9144 37.206L54.3264 36.474V35.958C54.5824 35.998 54.8304 36.018 55.0704 36.018C56.4864 36.018 57.1944 35.33 57.1944 33.954V28.854H58.6584ZM60.8602 30.966C61.1322 30.182 61.6282 29.586 62.3482 29.178C62.8842 28.874 63.4642 28.722 64.0882 28.722C64.7122 28.722 65.2842 28.89 65.8042 29.226C66.4522 29.618 66.9162 30.198 67.1962 30.966L67.0522 31.302C66.7322 31.446 66.3962 31.694 66.0442 32.046C65.7082 32.414 65.4882 32.782 65.3842 33.15H67.3162V34.374H64.6762C64.4522 34.374 64.2482 34.27 64.0642 34.062H64.0042C63.8202 34.27 63.6082 34.374 63.3682 34.374H59.1922V33.15H62.6722C62.5762 32.822 62.3722 32.474 62.0602 32.106C61.7162 31.722 61.3602 31.454 60.9922 31.302L60.8602 30.966ZM65.6602 30.87C65.4682 30.534 65.2082 30.286 64.8802 30.126C64.6322 30.006 64.3562 29.946 64.0522 29.946C63.7322 29.946 63.4282 30.014 63.1402 30.15C62.8202 30.31 62.5722 30.55 62.3962 30.87C62.6682 30.99 62.9562 31.23 63.2602 31.59C63.5962 31.966 63.8442 32.374 64.0042 32.814H64.0522C64.2042 32.366 64.4642 31.938 64.8322 31.53C65.1282 31.202 65.4042 30.982 65.6602 30.87ZM79.9632 28.854V33.054C79.9632 33.414 79.8352 33.726 79.5792 33.99C79.3312 34.246 79.0272 34.374 78.6672 34.374H76.1472L75.7032 33.882H75.6672C75.4032 34.21 75.0672 34.374 74.6592 34.374H72.1392L71.6832 33.882H71.6472C71.3832 34.21 71.0472 34.374 70.6392 34.374H67.2312V33.15H70.1712C70.3712 33.15 70.4712 33.05 70.4712 32.85V30.234H71.9352V32.634C71.9352 32.866 71.9312 33.038 71.9232 33.15H74.1912C74.3912 33.15 74.4912 33.05 74.4912 32.85V29.538H75.9552V32.742C75.9552 32.79 75.9512 32.862 75.9432 32.958C75.9432 33.046 75.9432 33.11 75.9432 33.15H78.1992C78.3992 33.15 78.4992 33.05 78.4992 32.85V28.854H79.9632Z" fill="#2C4768"/>
<path d="M311.285 35.7827C309.33 37.7371 304.325 35.9007 300.106 31.6812C295.886 27.4616 294.05 22.4567 296.004 20.5024L297.291 19.2156C298.179 18.3273 299.643 18.3508 300.56 19.2681L302.554 21.2612C303.471 22.1785 303.494 23.6422 302.606 24.5305L302.33 24.8069C301.85 25.2865 301.803 26.0603 302.249 26.6003C302.679 27.1212 303.142 27.6401 303.645 28.1426C304.147 28.6451 304.666 29.1085 305.187 29.5384C305.727 29.984 306.501 29.9371 306.98 29.4575L307.257 29.1811C308.145 28.2928 309.609 28.3162 310.526 29.2335L312.519 31.2266C313.436 32.1439 313.46 33.6077 312.571 34.496L311.285 35.7827Z" stroke="#DDB762" stroke-width="1.5"/>
<path d="M309.849 24.5643C309.605 23.9691 309.241 23.4115 308.758 22.9282C308.302 22.4722 307.78 22.1227 307.223 21.8798" stroke="#DDB762" stroke-width="1.5" stroke-linecap="round"/>
<path d="M307.223 18.4769C308.557 18.9604 309.81 19.7371 310.88 20.8071C311.976 21.904 312.765 23.1923 313.246 24.5646" stroke="#DDB762" stroke-width="1.5" stroke-linecap="round"/>
<path d="M43.742 51.5077C44.782 51.1877 45.63 51.0277 46.286 51.0277C47.886 51.0277 49.166 51.4437 50.126 52.2757C51.038 53.0757 51.494 54.1477 51.494 55.4917C51.494 57.7477 50.494 59.0997 48.494 59.5477C49.646 59.7397 50.55 60.2277 51.206 61.0117C51.878 61.7957 52.214 62.7637 52.214 63.9157C52.214 65.5797 51.566 66.8437 50.27 67.7077C49.278 68.3637 48.038 68.6917 46.55 68.6917C45.59 68.6917 44.63 68.5557 43.67 68.2837L42.902 67.3237V66.5797C44.006 66.8197 44.974 66.9397 45.806 66.9397C48.702 66.9397 50.15 65.9637 50.15 64.0117C50.15 62.9557 49.71 62.0677 48.83 61.3477C48.334 60.9477 47.806 60.6757 47.246 60.5317C46.702 60.3717 45.894 60.2837 44.822 60.2677V58.7077H46.862C47.63 58.7077 48.254 58.4597 48.734 57.9637C49.23 57.4517 49.478 56.7957 49.478 55.9957C49.478 55.0517 49.166 54.3077 48.542 53.7637C47.918 53.2037 47.07 52.9237 45.998 52.9237C45.47 52.9237 44.718 53.0277 43.742 53.2357V51.5077ZM59.3087 68.7397C57.1807 68.7397 55.6607 67.6277 54.7487 65.4037C54.1567 63.9797 53.8607 62.2117 53.8607 60.0997C53.8607 57.4437 54.3247 55.2517 55.2527 53.5237C56.1647 51.7957 57.5167 50.9317 59.3087 50.9317C61.0527 50.9317 62.3887 51.7717 63.3167 53.4517C64.2927 55.1637 64.7807 57.3557 64.7807 60.0277C64.7807 62.5397 64.3807 64.5557 63.5807 66.0757C62.6367 67.8517 61.2127 68.7397 59.3087 68.7397ZM62.6927 60.0757C62.6927 55.1957 61.5647 52.7557 59.3087 52.7557C57.0687 52.7557 55.9487 55.1797 55.9487 60.0277C55.9487 62.0597 56.1327 63.5877 56.5007 64.6117C57.0287 66.1317 57.9647 66.8917 59.3087 66.8917C61.5647 66.8917 62.6927 64.6197 62.6927 60.0757ZM71.9883 68.7397C69.8603 68.7397 68.3403 67.6277 67.4283 65.4037C66.8363 63.9797 66.5403 62.2117 66.5403 60.0997C66.5403 57.4437 67.0043 55.2517 67.9323 53.5237C68.8443 51.7957 70.1963 50.9317 71.9883 50.9317C73.7323 50.9317 75.0683 51.7717 75.9963 53.4517C76.9723 55.1637 77.4603 57.3557 77.4603 60.0277C77.4603 62.5397 77.0603 64.5557 76.2603 66.0757C75.3163 67.8517 73.8923 68.7397 71.9883 68.7397ZM75.3723 60.0757C75.3723 55.1957 74.2443 52.7557 71.9883 52.7557C69.7483 52.7557 68.6283 55.1797 68.6283 60.0277C68.6283 62.0597 68.8123 63.5877 69.1803 64.6117C69.7083 66.1317 70.6443 66.8917 71.9883 66.8917C74.2443 66.8917 75.3723 64.6197 75.3723 60.0757Z" fill="#3FD06F"/>
<path d="M27.6725 59.4971V63.6971C27.6725 64.0571 27.5445 64.3691 27.2885 64.6331C27.0405 64.8891 26.7365 65.0171 26.3765 65.0171H23.8565L23.4005 64.5251H23.3645C23.1005 64.8531 22.7645 65.0171 22.3565 65.0171H19.6325C19.5605 65.9771 19.1925 66.7051 18.5285 67.2011C17.9365 67.6571 17.1725 67.8851 16.2365 67.8851H15.0485C13.9685 67.8851 13.1165 67.5851 12.4925 66.9851C11.9245 66.4331 11.6405 65.6811 11.6405 64.7291V62.5811L12.3845 61.9811H13.1045V64.5971C13.1045 65.3571 13.2925 65.8891 13.6685 66.1931C14.0525 66.5051 14.7085 66.6611 15.6365 66.6611C16.5405 66.6611 17.1805 66.5211 17.5565 66.2411C17.9725 65.9211 18.1805 65.3731 18.1805 64.5971V60.8771H19.6445V63.7931H21.8885C22.0885 63.7931 22.1885 63.6931 22.1885 63.4931V60.1811H23.6525V63.3971C23.6525 63.5731 23.6485 63.7051 23.6405 63.7931H25.9085C26.1085 63.7931 26.2085 63.6931 26.2085 63.4931V59.4971H27.6725ZM30.0921 63.5291C30.3081 63.5291 30.4921 63.6051 30.6441 63.7571C30.7961 63.9011 30.8721 64.0811 30.8721 64.2971C30.8721 64.5131 30.7961 64.6971 30.6441 64.8491C30.4921 65.0011 30.3081 65.0771 30.0921 65.0771C29.8841 65.0771 29.7041 65.0011 29.5521 64.8491C29.4001 64.6971 29.3241 64.5131 29.3241 64.2971C29.3241 64.0811 29.3961 63.9011 29.5401 63.7571C29.6921 63.6051 29.8761 63.5291 30.0921 63.5291ZM35.8833 59.4971V64.7291C35.8833 65.7211 35.5793 66.4891 34.9713 67.0331C34.5793 67.3931 34.0753 67.6451 33.4593 67.7891C33.1713 67.8451 32.8713 67.8731 32.5593 67.8731C32.4553 67.8731 32.3153 67.8651 32.1393 67.8491L31.5513 67.1171V66.6011C31.8073 66.6411 32.0553 66.6611 32.2953 66.6611C33.7113 66.6611 34.4193 65.9731 34.4193 64.5971V59.4971H35.8833Z" fill="#3FD06F"/>
<rect x="25.1445" y="95.5791" width="280.25" height="39" rx="11.5" fill="#DDB762" stroke="#DDB762"/>
<path d="M122.956 109.507C123.244 109.507 123.489 109.608 123.692 109.811C123.894 110.013 123.996 110.259 123.996 110.547C123.996 110.824 123.894 111.064 123.692 111.267C123.489 111.469 123.244 111.571 122.956 111.571C122.668 111.571 122.422 111.469 122.22 111.267C122.017 111.064 121.916 110.824 121.916 110.547C121.916 110.259 122.017 110.013 122.22 109.811C122.422 109.608 122.668 109.507 122.956 109.507ZM125.388 109.507C125.676 109.507 125.921 109.608 126.124 109.811C126.326 110.013 126.428 110.259 126.428 110.547C126.428 110.824 126.326 111.064 126.124 111.267C125.921 111.469 125.676 111.571 125.388 111.571C125.11 111.571 124.87 111.469 124.668 111.267C124.465 111.064 124.364 110.824 124.364 110.547C124.364 110.259 124.465 110.013 124.668 109.811C124.87 109.608 125.11 109.507 125.388 109.507ZM126.428 112.595V118.355C126.428 118.483 126.465 118.579 126.54 118.643C126.604 118.717 126.689 118.755 126.796 118.755H127.244V120.387H126.236C125.745 120.387 125.302 120.189 124.908 119.795C124.3 120.296 123.622 120.547 122.876 120.547C122.033 120.547 121.308 120.28 120.7 119.747C119.889 118.989 119.484 117.976 119.484 116.707C119.484 115.544 119.857 114.579 120.604 113.811C121.286 113.117 122.124 112.771 123.116 112.771C123.67 112.771 124.225 112.888 124.78 113.123L125.468 112.595H126.428ZM124.476 114.659C124.102 114.52 123.745 114.451 123.404 114.451C122.828 114.451 122.353 114.664 121.98 115.091C121.606 115.507 121.42 116.051 121.42 116.723C121.42 117.395 121.585 117.933 121.916 118.339C122.257 118.744 122.71 118.947 123.276 118.947C123.66 118.947 124.06 118.861 124.476 118.691V114.659ZM129.998 115.795C129.998 114.781 130.35 114.013 131.054 113.491C131.608 113.064 132.366 112.851 133.326 112.851C134.264 112.851 135.059 113.128 135.71 113.683C136.531 114.387 136.942 115.384 136.942 116.675C136.942 117.891 136.616 118.899 135.966 119.699C135.336 120.477 134.52 120.867 133.518 120.867C132.632 120.867 131.934 120.536 131.422 119.875C131.08 120.216 130.664 120.387 130.174 120.387H127.118V118.755H129.582C129.699 118.755 129.8 118.712 129.886 118.627C129.96 118.552 129.998 118.461 129.998 118.355V115.795ZM131.934 118.579C132.328 119.005 132.782 119.219 133.294 119.219C133.795 119.219 134.206 119 134.526 118.563C134.846 118.115 135.006 117.539 135.006 116.835C135.006 116.067 134.83 115.464 134.478 115.027C134.158 114.653 133.742 114.467 133.23 114.467C132.846 114.467 132.542 114.589 132.318 114.835C132.062 115.069 131.934 115.389 131.934 115.795V118.579ZM139.938 112.931C140.3 112.867 140.722 112.835 141.202 112.835C142.428 112.835 143.42 113.229 144.178 114.019C144.85 114.733 145.186 115.619 145.186 116.675V118.211C145.186 118.456 145.18 118.637 145.17 118.755H145.586V120.387H145.378L144.85 119.731H144.802C144.716 119.827 144.626 119.917 144.53 120.003C144.21 120.259 143.852 120.387 143.458 120.387H138.322V118.755H142.834C143.1 118.755 143.234 118.621 143.234 118.355V116.867C143.234 116.131 143.01 115.539 142.562 115.091C142.146 114.675 141.543 114.451 140.754 114.419C140.391 114.419 140.119 114.44 139.938 114.483V112.931ZM150.518 109.507C150.806 109.507 151.051 109.608 151.254 109.811C151.456 110.013 151.558 110.259 151.558 110.547C151.558 110.824 151.456 111.064 151.254 111.267C151.051 111.469 150.806 111.571 150.518 111.571C150.24 111.571 150 111.469 149.798 111.267C149.595 111.064 149.494 110.824 149.494 110.547C149.494 110.259 149.595 110.013 149.798 109.811C150 109.608 150.24 109.507 150.518 109.507ZM147.59 113.299C148.603 112.989 149.526 112.835 150.358 112.835C151.648 112.835 152.688 113.24 153.478 114.051C154.192 114.776 154.55 115.693 154.55 116.803V118.515V118.755H155.078V120.387H154.742L154.214 119.731H154.182C153.819 120.168 153.366 120.387 152.822 120.387H145.462V118.755H152.198C152.464 118.755 152.598 118.621 152.598 118.355V116.915C152.598 116.189 152.352 115.608 151.862 115.171C151.382 114.723 150.747 114.499 149.958 114.499C149.435 114.499 148.646 114.616 147.59 114.851V113.299ZM159.778 108.931V118.627C159.778 119.075 159.634 119.459 159.346 119.779C159.015 120.184 158.583 120.387 158.05 120.387H154.962V118.755H157.426C157.543 118.755 157.645 118.712 157.73 118.627C157.805 118.552 157.842 118.461 157.842 118.355V108.931H159.778ZM163.941 108.931V119.987L162.949 120.787H161.989V108.931H163.941ZM182.571 113.027V118.515C182.571 118.621 182.565 118.701 182.555 118.755H183.387V120.387H182.843L182.235 119.731H182.187C181.856 120.168 181.408 120.387 180.843 120.387H171.883C171.2 120.387 170.608 120.168 170.107 119.731C169.424 119.165 169.083 118.424 169.083 117.507V114.979L170.075 114.179H171.035V117.507C171.035 117.88 171.163 118.184 171.419 118.419C171.664 118.643 171.947 118.755 172.267 118.755H180.171C180.309 118.755 180.427 118.707 180.523 118.611C180.587 118.525 180.619 118.424 180.619 118.307V113.027H182.571ZM175.835 121.555C176.123 121.555 176.368 121.656 176.571 121.859C176.773 122.061 176.875 122.307 176.875 122.595C176.875 122.883 176.773 123.128 176.571 123.331C176.368 123.533 176.123 123.635 175.835 123.635C175.547 123.635 175.301 123.533 175.099 123.331C174.896 123.128 174.795 122.883 174.795 122.595C174.795 122.307 174.896 122.061 175.099 121.859C175.301 121.656 175.547 121.555 175.835 121.555ZM188.09 108.931V118.515V118.755H188.906V120.387H188.362L187.754 119.731H187.722C187.36 120.168 186.906 120.387 186.362 120.387H183.274V118.755H185.738C185.866 118.755 185.973 118.712 186.058 118.627C186.122 118.52 186.154 118.429 186.154 118.355V108.931H188.09ZM193.59 108.931V115.715C195.019 113.784 196.795 112.819 198.918 112.819C200.187 112.819 201.233 113.224 202.054 114.035C202.811 114.771 203.19 115.683 203.19 116.771V118.627C203.19 119.128 203.003 119.555 202.63 119.907C202.289 120.227 201.899 120.387 201.462 120.387H188.774V118.755H191.654V108.931H193.59ZM201.238 116.867C201.227 116.205 201.009 115.672 200.582 115.267C200.091 114.755 199.425 114.499 198.582 114.499C197.729 114.499 196.913 114.781 196.134 115.347C195.131 116.072 194.283 117.208 193.59 118.755H200.838C201.105 118.755 201.238 118.621 201.238 118.355V116.867Z" fill="white"/>
</svg>
