<svg width="426" height="273" viewBox="0 0 426 273" fill="none" xmlns="http://www.w3.org/2000/svg">
<rect x="292.076" y="0.000488281" width="133.042" height="272.361" rx="8" fill="#F9F9F9"/>
<path d="M292.076 9.53369C292.076 5.11541 295.658 1.53369 300.076 1.53369H417.117C421.536 1.53369 425.117 5.11541 425.117 9.53369V43.0093H292.076V9.53369Z" fill="#DDB762"/>
<path d="M345.254 27.1355C344.678 26.5382 344.39 25.7115 344.39 24.6555C344.39 23.4182 344.752 22.4422 345.478 21.7275C346.128 21.0875 346.987 20.7568 348.054 20.7355C348.95 20.7355 349.664 20.9595 350.198 21.4075C350.816 21.9195 351.126 22.6608 351.126 23.6315V26.7515C351.126 27.1782 350.976 27.5408 350.678 27.8395C350.4 28.1275 350.07 28.2715 349.686 28.2715H345.11C344.704 28.2715 344.502 28.4742 344.502 28.8795V33.6795L343.814 34.2395H343.142V28.6395C343.142 28.2342 343.286 27.8822 343.574 27.5835C343.862 27.2848 344.203 27.1355 344.598 27.1355H345.254ZM349.75 23.6315C349.75 23.1515 349.616 22.7462 349.35 22.4155C349.03 22.0528 348.587 21.8715 348.022 21.8715C347.35 21.8715 346.8 22.1168 346.374 22.6075C345.958 23.0875 345.75 23.7168 345.75 24.4955C345.75 25.3275 345.958 25.9888 346.374 26.4795C346.747 26.9168 347.206 27.1355 347.75 27.1355H349.158C349.552 27.1355 349.75 26.9328 349.75 26.5275V23.6315ZM356.508 28.2715C355.292 28.2715 354.358 27.8662 353.708 27.0555C353.164 26.3835 352.892 25.5195 352.892 24.4635C352.892 23.2582 353.254 22.3195 353.98 21.6475C354.63 21.0288 355.489 20.7195 356.556 20.7195C357.388 20.7195 358.081 20.9275 358.636 21.3435C359.308 21.8662 359.644 22.6288 359.644 23.6315V27.1355H360.156V28.2715H359.644C359.601 29.3915 359.265 30.2715 358.636 30.9115C358.156 31.4022 357.532 31.7382 356.764 31.9195C356.326 32.0262 355.868 32.0795 355.388 32.0795C355.132 32.0795 354.886 32.0742 354.652 32.0635L354.124 31.4075V30.8955C354.444 30.9382 354.78 30.9595 355.132 30.9595C357.169 30.9595 358.214 30.0635 358.268 28.2715H356.508ZM358.268 23.6315C358.268 23.0875 358.108 22.6555 357.788 22.3355C357.478 22.0262 357.068 21.8715 356.556 21.8715C355.841 21.8715 355.276 22.1115 354.86 22.5915C354.454 23.0715 354.252 23.7382 354.252 24.5915C354.252 25.3488 354.46 25.9622 354.876 26.4315C355.292 26.9008 355.83 27.1355 356.492 27.1355H358.268V23.6315ZM364.266 20.9115V26.7515C364.266 26.8795 364.25 27.0075 364.218 27.1355H365.066V28.2715H364.442L363.978 27.7115H363.93C363.642 28.0848 363.269 28.2715 362.81 28.2715H360.026V27.1355H362.298C362.469 27.1355 362.607 27.0822 362.714 26.9755C362.842 26.8582 362.906 26.7088 362.906 26.5275V20.9115H364.266ZM361.53 29.9355C361.743 29.9355 361.925 30.0102 362.074 30.1595C362.234 30.3195 362.314 30.5062 362.314 30.7195C362.314 30.9435 362.234 31.1302 362.074 31.2795C361.925 31.4395 361.743 31.5195 361.53 31.5195C361.317 31.5195 361.13 31.4395 360.97 31.2795C360.821 31.1302 360.746 30.9435 360.746 30.7195C360.746 30.5062 360.821 30.3195 360.97 30.1595C361.13 30.0102 361.317 29.9355 361.53 29.9355ZM363.466 29.9355C363.69 29.9355 363.877 30.0102 364.026 30.1595C364.186 30.3195 364.266 30.5062 364.266 30.7195C364.266 30.9435 364.186 31.1302 364.026 31.2795C363.877 31.4395 363.69 31.5195 363.466 31.5195C363.253 31.5195 363.066 31.4395 362.906 31.2795C362.757 31.1302 362.682 30.9435 362.682 30.7195C362.682 30.5062 362.757 30.3195 362.906 30.1595C363.066 30.0102 363.253 29.9355 363.466 29.9355ZM369.188 16.8155V26.7515C369.188 27.1675 369.049 27.5195 368.772 27.8075C368.484 28.1168 368.137 28.2715 367.732 28.2715H364.948V27.1355H367.22C367.422 27.1355 367.577 27.0662 367.684 26.9275C367.78 26.8102 367.828 26.6768 367.828 26.5275V16.8155H369.188ZM372.757 16.8155V28.1115L372.069 28.6715H371.397V16.8155H372.757Z" fill="white"/>
<path d="M315.057 125.725C315.441 125.661 315.852 125.629 316.289 125.629C317.473 125.629 318.428 125.986 319.153 126.701C319.804 127.362 320.129 128.2 320.129 129.213V131.661C320.129 131.8 320.118 131.928 320.097 132.045H320.545V133.181H320.305L319.857 132.621H319.809C319.724 132.728 319.628 132.824 319.521 132.909C319.265 133.09 318.988 133.181 318.689 133.181H313.441V132.045H318.177C318.572 132.045 318.769 131.842 318.769 131.437V129.405C318.769 128.648 318.54 128.018 318.081 127.517C317.59 127.005 316.833 126.744 315.809 126.733C315.51 126.733 315.26 126.754 315.057 126.797V125.725ZM324.649 125.821V131.661C324.649 131.789 324.633 131.917 324.601 132.045H325.449V133.181H324.825L324.361 132.621H324.313C324.025 132.994 323.652 133.181 323.193 133.181H320.409V132.045H322.681C322.852 132.045 322.991 131.992 323.097 131.885C323.225 131.768 323.289 131.618 323.289 131.437V125.821H324.649ZM321.913 134.845C322.127 134.845 322.308 134.92 322.457 135.069C322.617 135.229 322.697 135.416 322.697 135.629C322.697 135.853 322.617 136.04 322.457 136.189C322.308 136.349 322.127 136.429 321.913 136.429C321.7 136.429 321.513 136.349 321.353 136.189C321.204 136.04 321.129 135.853 321.129 135.629C321.129 135.416 321.204 135.229 321.353 135.069C321.513 134.92 321.7 134.845 321.913 134.845ZM323.849 134.845C324.073 134.845 324.26 134.92 324.409 135.069C324.569 135.229 324.649 135.416 324.649 135.629C324.649 135.853 324.569 136.04 324.409 136.189C324.26 136.349 324.073 136.429 323.849 136.429C323.636 136.429 323.449 136.349 323.289 136.189C323.14 136.04 323.065 135.853 323.065 135.629C323.065 135.416 323.14 135.229 323.289 135.069C323.449 134.92 323.636 134.845 323.849 134.845ZM328.835 132.045C328.142 131.33 327.795 130.413 327.795 129.293C327.795 128.098 328.19 127.16 328.979 126.477C329.64 125.912 330.494 125.629 331.539 125.629C332.104 125.629 332.696 125.72 333.315 125.901V126.973C332.686 126.813 332.136 126.733 331.667 126.733C330.878 126.733 330.259 126.978 329.811 127.469C329.374 127.949 329.155 128.616 329.155 129.469C329.155 130.162 329.39 130.776 329.859 131.309C330.296 131.8 330.803 132.045 331.379 132.045H334.611V132.493L334.051 133.181H325.331V132.045H328.835ZM337.75 121.725V133.021L337.062 133.581H336.39V121.725H337.75ZM343.344 133.181C342.128 133.181 341.195 132.776 340.544 131.965C340 131.293 339.728 130.429 339.728 129.373C339.728 128.168 340.091 127.229 340.816 126.557C341.467 125.938 342.326 125.629 343.392 125.629C344.224 125.629 344.918 125.837 345.472 126.253C346.144 126.776 346.48 127.538 346.48 128.541V132.045H346.992V133.181H346.48C346.438 134.301 346.102 135.181 345.472 135.821C344.992 136.312 344.368 136.648 343.6 136.829C343.163 136.936 342.704 136.989 342.224 136.989C341.968 136.989 341.723 136.984 341.488 136.973L340.96 136.317V135.805C341.28 135.848 341.616 135.869 341.968 135.869C344.006 135.869 345.051 134.973 345.104 133.181H343.344ZM345.104 128.541C345.104 127.997 344.944 127.565 344.624 127.245C344.315 126.936 343.904 126.781 343.392 126.781C342.678 126.781 342.112 127.021 341.696 127.501C341.291 127.981 341.088 128.648 341.088 129.501C341.088 130.258 341.296 130.872 341.712 131.341C342.128 131.81 342.667 132.045 343.328 132.045H345.104V128.541ZM349.742 128.541C349.742 127.453 350.126 126.653 350.894 126.141C351.396 125.81 352.062 125.645 352.894 125.645C353.908 125.645 354.756 125.992 355.438 126.685C356.121 127.378 356.462 128.349 356.462 129.597C356.462 130.76 356.121 131.741 355.438 132.541C354.798 133.288 353.988 133.661 353.006 133.661C352.089 133.661 351.342 133.314 350.766 132.621C350.478 132.994 350.094 133.181 349.614 133.181H346.862V132.045H349.134C349.305 132.045 349.449 131.986 349.566 131.869C349.684 131.752 349.742 131.608 349.742 131.437V128.541ZM351.102 131.677C351.657 132.242 352.27 132.525 352.942 132.525C353.582 132.525 354.1 132.264 354.494 131.741C354.9 131.208 355.102 130.52 355.102 129.677C355.102 128.738 354.868 127.997 354.398 127.453C354.004 127.005 353.481 126.781 352.83 126.781C352.34 126.781 351.94 126.925 351.63 127.213C351.278 127.544 351.102 127.986 351.102 128.541V131.677ZM362.385 125.725C362.769 125.661 363.18 125.629 363.617 125.629C364.801 125.629 365.756 125.986 366.481 126.701C367.132 127.362 367.457 128.2 367.457 129.213V131.661C367.457 131.8 367.446 131.928 367.425 132.045H367.873V133.181H367.633L367.185 132.621H367.137C367.052 132.728 366.956 132.824 366.849 132.909C366.593 133.09 366.316 133.181 366.017 133.181H360.769V132.045H365.505C365.9 132.045 366.097 131.842 366.097 131.437V129.405C366.097 128.648 365.868 128.018 365.409 127.517C364.918 127.005 364.161 126.744 363.137 126.733C362.838 126.733 362.588 126.754 362.385 126.797V125.725ZM369.865 126.093C370.847 125.784 371.764 125.629 372.617 125.629C373.94 125.629 374.948 126.04 375.641 126.861C376.239 127.565 376.537 128.488 376.537 129.629V131.661C376.537 132.024 376.425 132.344 376.201 132.621C375.924 132.994 375.556 133.181 375.097 133.181H367.737V132.045H374.569C374.975 132.045 375.177 131.842 375.177 131.437V129.581C375.177 128.749 374.959 128.093 374.521 127.613C374.041 127.08 373.343 126.813 372.425 126.813C371.871 126.813 371.017 126.93 369.865 127.165V126.093ZM371.769 134.845C371.993 134.845 372.18 134.92 372.329 135.069C372.489 135.229 372.569 135.416 372.569 135.629C372.569 135.853 372.489 136.04 372.329 136.189C372.18 136.349 371.993 136.429 371.769 136.429C371.556 136.429 371.369 136.349 371.209 136.189C371.06 136.04 370.985 135.853 370.985 135.629C370.985 135.416 371.06 135.229 371.209 135.069C371.369 134.92 371.556 134.845 371.769 134.845ZM381.922 133.181C380.706 133.181 379.773 132.776 379.122 131.965C378.578 131.293 378.306 130.429 378.306 129.373C378.306 128.168 378.669 127.229 379.394 126.557C380.045 125.938 380.904 125.629 381.97 125.629C382.802 125.629 383.496 125.837 384.05 126.253C384.722 126.776 385.058 127.538 385.058 128.541V132.045H385.57V133.181H385.058C385.016 134.301 384.68 135.181 384.05 135.821C383.57 136.312 382.946 136.648 382.178 136.829C381.741 136.936 381.282 136.989 380.802 136.989C380.546 136.989 380.301 136.984 380.066 136.973L379.538 136.317V135.805C379.858 135.848 380.194 135.869 380.546 135.869C382.584 135.869 383.629 134.973 383.682 133.181H381.922ZM383.682 128.541C383.682 127.997 383.522 127.565 383.202 127.245C382.893 126.936 382.482 126.781 381.97 126.781C381.256 126.781 380.69 127.021 380.274 127.501C379.869 127.981 379.666 128.648 379.666 129.501C379.666 130.258 379.874 130.872 380.29 131.341C380.706 131.81 381.245 132.045 381.906 132.045H383.682V128.541ZM389.681 125.821V131.661C389.681 132.056 389.553 132.397 389.297 132.685C389.009 133.016 388.651 133.181 388.225 133.181H385.441V132.045H387.713C387.894 132.045 388.043 131.981 388.161 131.853C388.267 131.746 388.321 131.608 388.321 131.437V125.821H389.681ZM386.801 134.845C387.014 134.845 387.195 134.92 387.345 135.069C387.505 135.229 387.585 135.416 387.585 135.629C387.585 135.853 387.505 136.04 387.345 136.189C387.195 136.349 387.014 136.429 386.801 136.429C386.577 136.429 386.385 136.349 386.225 136.189C386.075 136.04 386.001 135.853 386.001 135.629C386.001 135.416 386.075 135.229 386.225 135.069C386.385 134.92 386.577 134.845 386.801 134.845ZM388.737 134.845C388.961 134.845 389.147 134.92 389.297 135.069C389.446 135.229 389.521 135.416 389.521 135.629C389.521 135.853 389.446 136.04 389.297 136.189C389.147 136.349 388.961 136.429 388.737 136.429C388.523 136.429 388.337 136.349 388.177 136.189C388.027 136.04 387.953 135.853 387.953 135.629C387.953 135.416 388.027 135.229 388.177 135.069C388.337 134.92 388.523 134.845 388.737 134.845ZM403.275 121.725V131.661C403.275 132.024 403.163 132.344 402.939 132.621C402.641 132.994 402.267 133.181 401.819 133.181H394.827L394.267 132.493V132.045H398.555L395.803 123.693H397.163L399.931 132.045H401.307C401.499 132.045 401.654 131.976 401.771 131.837C401.857 131.72 401.899 131.586 401.899 131.437V121.725H403.275ZM345.26 140.301C345.473 140.301 345.654 140.381 345.804 140.541C345.964 140.69 346.044 140.872 346.044 141.085C346.044 141.309 345.964 141.501 345.804 141.661C345.654 141.81 345.473 141.885 345.26 141.885C345.046 141.885 344.86 141.81 344.7 141.661C344.55 141.501 344.476 141.309 344.476 141.085C344.476 140.872 344.55 140.69 344.7 140.541C344.86 140.381 345.046 140.301 345.26 140.301ZM347.196 140.301C347.42 140.301 347.606 140.381 347.756 140.541C347.916 140.69 347.996 140.872 347.996 141.085C347.996 141.309 347.916 141.501 347.756 141.661C347.606 141.81 347.42 141.885 347.196 141.885C346.982 141.885 346.796 141.81 346.636 141.661C346.486 141.501 346.412 141.309 346.412 141.085C346.412 140.872 346.486 140.69 346.636 140.541C346.796 140.381 346.982 140.301 347.196 140.301ZM347.996 143.389V149.437C347.996 149.629 348.049 149.778 348.156 149.885C348.252 149.992 348.358 150.045 348.476 150.045H348.796V151.181H348.124C347.633 151.181 347.244 150.994 346.956 150.621C346.262 151.112 345.516 151.357 344.716 151.357C343.596 151.357 342.71 150.92 342.06 150.045C341.526 149.33 341.26 148.477 341.26 147.485C341.26 146.322 341.644 145.357 342.412 144.589C343.094 143.896 343.932 143.549 344.924 143.549C345.489 143.549 346.06 143.677 346.636 143.933L347.324 143.389H347.996ZM346.636 145.053C346.166 144.818 345.692 144.701 345.212 144.701C344.401 144.701 343.745 145.021 343.244 145.661C342.828 146.184 342.62 146.802 342.62 147.517C342.62 148.37 342.822 149.042 343.228 149.533C343.622 149.981 344.156 150.205 344.828 150.205C345.404 150.205 346.006 150.05 346.636 149.741V145.053ZM350.819 144.093C351.8 143.784 352.717 143.629 353.571 143.629C354.893 143.629 355.901 144.04 356.595 144.861C357.192 145.565 357.491 146.488 357.491 147.629V149.661C357.491 150.024 357.379 150.344 357.155 150.621C356.877 150.994 356.509 151.181 356.051 151.181H348.691V150.045H355.523C355.928 150.045 356.131 149.842 356.131 149.437V147.581C356.131 146.749 355.912 146.093 355.475 145.613C354.995 145.08 354.296 144.813 353.379 144.813C352.824 144.813 351.971 144.93 350.819 145.165V144.093ZM360.844 139.725V149.437C360.844 149.608 360.897 149.752 361.004 149.869C361.121 149.986 361.27 150.045 361.452 150.045H361.66V151.181H360.924C360.582 151.181 360.284 151.069 360.028 150.845C359.665 150.536 359.484 150.141 359.484 149.661V139.725H360.844ZM363.198 140.301C363.422 140.301 363.609 140.381 363.758 140.541C363.907 140.69 363.982 140.872 363.982 141.085C363.982 141.309 363.907 141.501 363.758 141.661C363.609 141.81 363.422 141.885 363.198 141.885C362.985 141.885 362.798 141.81 362.638 141.661C362.489 141.501 362.414 141.309 362.414 141.085C362.414 140.872 362.489 140.69 362.638 140.541C362.798 140.381 362.985 140.301 363.198 140.301ZM365.15 140.301C365.363 140.301 365.545 140.381 365.694 140.541C365.854 140.69 365.934 140.872 365.934 141.085C365.934 141.309 365.854 141.501 365.694 141.661C365.545 141.81 365.363 141.885 365.15 141.885C364.926 141.885 364.734 141.81 364.574 141.661C364.425 141.501 364.35 141.309 364.35 141.085C364.35 140.872 364.425 140.69 364.574 140.541C364.734 140.381 364.926 140.301 365.15 140.301ZM365.79 143.821V149.661C365.79 149.789 365.774 149.917 365.742 150.045H366.59V151.181H365.966L365.502 150.621H365.454C365.166 150.994 364.793 151.181 364.334 151.181H361.55V150.045H363.822C363.993 150.045 364.131 149.992 364.238 149.885C364.366 149.768 364.43 149.618 364.43 149.437V143.821H365.79ZM369.352 146.541C369.352 145.453 369.736 144.653 370.504 144.141C371.005 143.81 371.672 143.645 372.504 143.645C373.517 143.645 374.365 143.992 375.048 144.685C375.73 145.378 376.072 146.349 376.072 147.597C376.072 148.76 375.73 149.741 375.048 150.541C374.408 151.288 373.597 151.661 372.616 151.661C371.698 151.661 370.952 151.314 370.376 150.621C370.088 150.994 369.704 151.181 369.224 151.181H366.472V150.045H368.744C368.914 150.045 369.058 149.986 369.176 149.869C369.293 149.752 369.352 149.608 369.352 149.437V146.541ZM370.712 149.677C371.266 150.242 371.88 150.525 372.552 150.525C373.192 150.525 373.709 150.264 374.104 149.741C374.509 149.208 374.712 148.52 374.712 147.677C374.712 146.738 374.477 145.997 374.008 145.453C373.613 145.005 373.09 144.781 372.44 144.781C371.949 144.781 371.549 144.925 371.24 145.213C370.888 145.544 370.712 145.986 370.712 146.541V149.677Z" fill="#A3A4A5"/>
<rect x="146.756" y="0.000488281" width="133" height="272.361" rx="8" fill="#F9F9F9"/>
<path d="M146.756 9.53369C146.756 5.11541 150.338 1.53369 154.756 1.53369H271.755C276.173 1.53369 279.755 5.11541 279.755 9.53369V43.0093H146.756V9.53369Z" fill="#DDB762"/>
<path d="M201.628 16.8155V28.1115L200.94 28.6715H200.268V16.8155H201.628ZM204.967 20.8155C205.351 20.7515 205.761 20.7195 206.199 20.7195C207.383 20.7195 208.337 21.0768 209.063 21.7915C209.713 22.4528 210.039 23.2902 210.039 24.3035V26.7515C210.039 26.8902 210.028 27.0182 210.007 27.1355H210.455V28.2715H210.215L209.767 27.7115H209.719C209.633 27.8182 209.537 27.9142 209.431 27.9995C209.175 28.1808 208.897 28.2715 208.599 28.2715H203.351V27.1355H208.087C208.481 27.1355 208.679 26.9328 208.679 26.5275V24.4955C208.679 23.7382 208.449 23.1088 207.991 22.6075C207.5 22.0955 206.743 21.8342 205.719 21.8235C205.42 21.8235 205.169 21.8448 204.967 21.8875V20.8155ZM216.543 17.3915C216.756 17.3915 216.937 17.4715 217.087 17.6315C217.247 17.7808 217.327 17.9622 217.327 18.1755C217.327 18.3995 217.247 18.5915 217.087 18.7515C216.937 18.9008 216.756 18.9755 216.543 18.9755C216.329 18.9755 216.143 18.9008 215.983 18.7515C215.833 18.5915 215.759 18.3995 215.759 18.1755C215.759 17.9622 215.833 17.7808 215.983 17.6315C216.143 17.4715 216.329 17.3915 216.543 17.3915ZM213.823 27.1355C213.129 26.4208 212.783 25.5035 212.783 24.3835C212.783 23.1888 213.177 22.2502 213.967 21.5675C214.628 21.0022 215.481 20.7195 216.527 20.7195C217.092 20.7195 217.684 20.8102 218.303 20.9915V22.0635C217.673 21.9035 217.124 21.8235 216.655 21.8235C215.865 21.8235 215.247 22.0688 214.799 22.5595C214.361 23.0395 214.143 23.7062 214.143 24.5595C214.143 25.2528 214.377 25.8662 214.847 26.3995C215.284 26.8902 215.791 27.1355 216.367 27.1355H219.599V27.5835L219.039 28.2715H210.319V27.1355H213.823Z" fill="white"/>
<rect x="180.754" y="57.2134" width="65.0042" height="30" rx="8" fill="#DDB762"/>
<path d="M194.96 74.3734C196.421 71.8987 198.347 70.6614 200.736 70.6614C202.005 70.6614 203.024 71.056 203.792 71.8454C204.496 72.56 204.848 73.4667 204.848 74.5654V76.6934C204.848 77.1094 204.709 77.4614 204.432 77.7494C204.155 78.0587 203.813 78.2134 203.408 78.2134H194.976C194.944 79.4187 194.555 80.3574 193.808 81.0294C193.051 81.7014 192.027 82.0374 190.736 82.0374H188.96C187.691 82.0374 186.677 81.712 185.92 81.0614C185.109 80.368 184.704 79.3707 184.704 78.0694V74.7254L185.392 74.1654H186.064V78.0374C186.064 79.104 186.341 79.8454 186.896 80.2614C187.461 80.688 188.448 80.9014 189.856 80.9014C191.179 80.9014 192.112 80.72 192.656 80.3574C193.296 79.92 193.616 79.1467 193.616 78.0374L193.6 70.8534H194.96V74.3734ZM203.472 74.4214C203.472 73.7387 203.259 73.168 202.832 72.7094C202.288 72.1227 201.515 71.8294 200.512 71.8294C199.595 71.8294 198.736 72.112 197.936 72.6774C196.699 73.552 195.707 75.0187 194.96 77.0774H202.88C203.275 77.0774 203.472 76.8747 203.472 76.4694V74.4214ZM213.238 66.7574V77.6054L212.55 78.2134H211.878V68.3894L209.894 70.0534L209.174 69.1574L212.022 66.7574H213.238ZM218.574 78.4214C217.155 78.4214 216.142 77.68 215.534 76.1974C215.139 75.248 214.942 74.0694 214.942 72.6614C214.942 70.8907 215.251 69.4294 215.87 68.2774C216.478 67.1254 217.379 66.5494 218.574 66.5494C219.737 66.5494 220.627 67.1094 221.246 68.2294C221.897 69.3707 222.222 70.832 222.222 72.6134C222.222 74.288 221.955 75.632 221.422 76.6454C220.793 77.8294 219.843 78.4214 218.574 78.4214ZM220.83 72.6454C220.83 69.392 220.078 67.7654 218.574 67.7654C217.081 67.7654 216.334 69.3814 216.334 72.6134C216.334 73.968 216.457 74.9867 216.702 75.6694C217.054 76.6827 217.678 77.1894 218.574 77.1894C220.078 77.1894 220.83 75.6747 220.83 72.6454ZM224.403 73.7334C224.627 73.7334 224.814 73.808 224.963 73.9574C225.112 74.1067 225.187 74.2934 225.187 74.5174C225.187 74.7307 225.112 74.9174 224.963 75.0774C224.814 75.2267 224.627 75.3014 224.403 75.3014C224.19 75.3014 224.003 75.2267 223.843 75.0774C223.694 74.9174 223.619 74.7307 223.619 74.5174C223.619 74.2934 223.694 74.1067 223.843 73.9574C224.003 73.808 224.19 73.7334 224.403 73.7334ZM224.419 76.7254C224.632 76.7254 224.814 76.8 224.963 76.9494C225.123 77.0987 225.203 77.2854 225.203 77.5094C225.203 77.7227 225.123 77.9094 224.963 78.0694C224.814 78.2187 224.632 78.2934 224.419 78.2934C224.195 78.2934 224.003 78.2187 223.843 78.0694C223.694 77.9094 223.619 77.7227 223.619 77.5094C223.619 77.2854 223.694 77.0987 223.843 76.9494C224.003 76.8 224.195 76.7254 224.419 76.7254ZM230.23 78.4214C228.811 78.4214 227.798 77.68 227.19 76.1974C226.795 75.248 226.598 74.0694 226.598 72.6614C226.598 70.8907 226.907 69.4294 227.526 68.2774C228.134 67.1254 229.035 66.5494 230.23 66.5494C231.393 66.5494 232.283 67.1094 232.902 68.2294C233.553 69.3707 233.878 70.832 233.878 72.6134C233.878 74.288 233.611 75.632 233.078 76.6454C232.449 77.8294 231.499 78.4214 230.23 78.4214ZM232.486 72.6454C232.486 69.392 231.734 67.7654 230.23 67.7654C228.737 67.7654 227.99 69.3814 227.99 72.6134C227.99 73.968 228.113 74.9867 228.358 75.6694C228.71 76.6827 229.334 77.1894 230.23 77.1894C231.734 77.1894 232.486 75.6747 232.486 72.6454ZM238.683 78.4214C237.265 78.4214 236.251 77.68 235.643 76.1974C235.249 75.248 235.051 74.0694 235.051 72.6614C235.051 70.8907 235.361 69.4294 235.979 68.2774C236.587 67.1254 237.489 66.5494 238.683 66.5494C239.846 66.5494 240.737 67.1094 241.355 68.2294C242.006 69.3707 242.331 70.832 242.331 72.6134C242.331 74.288 242.065 75.632 241.531 76.6454C240.902 77.8294 239.953 78.4214 238.683 78.4214ZM240.939 72.6454C240.939 69.392 240.187 67.7654 238.683 67.7654C237.19 67.7654 236.443 69.3814 236.443 72.6134C236.443 73.968 236.566 74.9867 236.811 75.6694C237.163 76.6827 237.787 77.1894 238.683 77.1894C240.187 77.1894 240.939 75.6747 240.939 72.6454Z" fill="white"/>
<path d="M195.389 107.365C196.85 104.89 198.776 103.653 201.165 103.653C202.434 103.653 203.453 104.047 204.221 104.837C204.925 105.551 205.277 106.458 205.277 107.557V109.685C205.277 110.101 205.138 110.453 204.861 110.741C204.584 111.05 204.242 111.205 203.837 111.205H195.405C195.373 112.41 194.984 113.349 194.237 114.021C193.48 114.693 192.456 115.029 191.165 115.029H189.389C188.12 115.029 187.106 114.703 186.349 114.053C185.538 113.359 185.133 112.362 185.133 111.061V107.717L185.821 107.157H186.493V111.029C186.493 112.095 186.77 112.837 187.325 113.253C187.89 113.679 188.877 113.893 190.285 113.893C191.608 113.893 192.541 113.711 193.085 113.349C193.725 112.911 194.045 112.138 194.045 111.029L194.029 103.845H195.389V107.365ZM203.901 107.413C203.901 106.73 203.688 106.159 203.261 105.701C202.717 105.114 201.944 104.821 200.941 104.821C200.024 104.821 199.165 105.103 198.365 105.669C197.128 106.543 196.136 108.01 195.389 110.069H203.309C203.704 110.069 203.901 109.866 203.901 109.461V107.413ZM213.667 99.7486V110.597L212.979 111.205H212.307V101.381L210.323 103.045L209.603 102.149L212.451 99.7486H213.667ZM219.003 111.413C217.584 111.413 216.571 110.671 215.963 109.189C215.568 108.239 215.371 107.061 215.371 105.653C215.371 103.882 215.68 102.421 216.299 101.269C216.907 100.117 217.808 99.5406 219.003 99.5406C220.166 99.5406 221.056 100.101 221.675 101.221C222.326 102.362 222.651 103.823 222.651 105.605C222.651 107.279 222.384 108.623 221.851 109.637C221.222 110.821 220.272 111.413 219.003 111.413ZM221.259 105.637C221.259 102.383 220.507 100.757 219.003 100.757C217.51 100.757 216.763 102.373 216.763 105.605C216.763 106.959 216.886 107.978 217.131 108.661C217.483 109.674 218.107 110.181 219.003 110.181C220.507 110.181 221.259 108.666 221.259 105.637ZM224.832 106.725C225.056 106.725 225.243 106.799 225.392 106.949C225.541 107.098 225.616 107.285 225.616 107.509C225.616 107.722 225.541 107.909 225.392 108.069C225.243 108.218 225.056 108.293 224.832 108.293C224.619 108.293 224.432 108.218 224.272 108.069C224.123 107.909 224.048 107.722 224.048 107.509C224.048 107.285 224.123 107.098 224.272 106.949C224.432 106.799 224.619 106.725 224.832 106.725ZM224.848 109.717C225.061 109.717 225.243 109.791 225.392 109.941C225.552 110.09 225.632 110.277 225.632 110.501C225.632 110.714 225.552 110.901 225.392 111.061C225.243 111.21 225.061 111.285 224.848 111.285C224.624 111.285 224.432 111.21 224.272 111.061C224.123 110.901 224.048 110.714 224.048 110.501C224.048 110.277 224.123 110.09 224.272 109.941C224.432 109.791 224.624 109.717 224.848 109.717ZM227.875 99.9246C228.568 99.7113 229.134 99.6046 229.571 99.6046C230.638 99.6046 231.491 99.8819 232.131 100.437C232.739 100.97 233.043 101.685 233.043 102.581C233.043 104.085 232.376 104.986 231.043 105.285C231.811 105.413 232.414 105.738 232.851 106.261C233.299 106.783 233.523 107.429 233.523 108.197C233.523 109.306 233.091 110.149 232.227 110.725C231.566 111.162 230.739 111.381 229.747 111.381C229.107 111.381 228.467 111.29 227.827 111.109L227.315 110.469V109.973C228.051 110.133 228.696 110.213 229.251 110.213C231.182 110.213 232.147 109.562 232.147 108.261C232.147 107.557 231.854 106.965 231.267 106.485C230.936 106.218 230.584 106.037 230.211 105.941C229.848 105.834 229.31 105.775 228.595 105.765V104.725H229.955C230.467 104.725 230.883 104.559 231.203 104.229C231.534 103.887 231.699 103.45 231.699 102.917C231.699 102.287 231.491 101.791 231.075 101.429C230.659 101.055 230.094 100.869 229.379 100.869C229.027 100.869 228.526 100.938 227.875 101.077V99.9246ZM238.253 111.413C236.834 111.413 235.821 110.671 235.213 109.189C234.818 108.239 234.621 107.061 234.621 105.653C234.621 103.882 234.93 102.421 235.549 101.269C236.157 100.117 237.058 99.5406 238.253 99.5406C239.416 99.5406 240.306 100.101 240.925 101.221C241.576 102.362 241.901 103.823 241.901 105.605C241.901 107.279 241.634 108.623 241.101 109.637C240.472 110.821 239.522 111.413 238.253 111.413ZM240.509 105.637C240.509 102.383 239.757 100.757 238.253 100.757C236.76 100.757 236.013 102.373 236.013 105.605C236.013 106.959 236.136 107.978 236.381 108.661C236.733 109.674 237.357 110.181 238.253 110.181C239.757 110.181 240.509 108.666 240.509 105.637Z" fill="#A3A4A5"/>
<path d="M196.342 138.356C197.803 135.881 199.729 134.644 202.118 134.644C203.387 134.644 204.406 135.038 205.174 135.828C205.878 136.542 206.23 137.449 206.23 138.548V140.676C206.23 141.092 206.091 141.444 205.814 141.732C205.537 142.041 205.195 142.196 204.79 142.196H196.358C196.326 143.401 195.937 144.34 195.19 145.012C194.433 145.684 193.409 146.02 192.118 146.02H190.342C189.073 146.02 188.059 145.694 187.302 145.044C186.491 144.35 186.086 143.353 186.086 142.052V138.708L186.774 138.148H187.446V142.02C187.446 143.086 187.723 143.828 188.278 144.244C188.843 144.67 189.83 144.884 191.238 144.884C192.561 144.884 193.494 144.702 194.038 144.34C194.678 143.902 194.998 143.129 194.998 142.02L194.982 134.836H196.342V138.356ZM204.854 138.404C204.854 137.721 204.641 137.15 204.214 136.692C203.67 136.105 202.897 135.812 201.894 135.812C200.977 135.812 200.118 136.094 199.318 136.66C198.081 137.534 197.089 139.001 196.342 141.06H204.262C204.657 141.06 204.854 140.857 204.854 140.452V138.404ZM214.62 130.74V141.588L213.932 142.196H213.26V132.372L211.276 134.036L210.556 133.14L213.404 130.74H214.62ZM220.308 130.74V141.588L219.62 142.196H218.948V132.372L216.964 134.036L216.244 133.14L219.092 130.74H220.308ZM223.019 137.716C223.243 137.716 223.43 137.79 223.579 137.94C223.729 138.089 223.803 138.276 223.803 138.5C223.803 138.713 223.729 138.9 223.579 139.06C223.43 139.209 223.243 139.284 223.019 139.284C222.806 139.284 222.619 139.209 222.459 139.06C222.31 138.9 222.235 138.713 222.235 138.5C222.235 138.276 222.31 138.089 222.459 137.94C222.619 137.79 222.806 137.716 223.019 137.716ZM223.035 140.708C223.249 140.708 223.43 140.782 223.579 140.932C223.739 141.081 223.819 141.268 223.819 141.492C223.819 141.705 223.739 141.892 223.579 142.052C223.43 142.201 223.249 142.276 223.035 142.276C222.811 142.276 222.619 142.201 222.459 142.052C222.31 141.892 222.235 141.705 222.235 141.492C222.235 141.268 222.31 141.081 222.459 140.932C222.619 140.782 222.811 140.708 223.035 140.708ZM228.847 142.404C227.428 142.404 226.415 141.662 225.807 140.18C225.412 139.23 225.215 138.052 225.215 136.644C225.215 134.873 225.524 133.412 226.143 132.26C226.751 131.108 227.652 130.532 228.847 130.532C230.009 130.532 230.9 131.092 231.519 132.212C232.169 133.353 232.495 134.814 232.495 136.596C232.495 138.27 232.228 139.614 231.695 140.628C231.065 141.812 230.116 142.404 228.847 142.404ZM231.103 136.628C231.103 133.374 230.351 131.748 228.847 131.748C227.353 131.748 226.607 133.364 226.607 136.596C226.607 137.95 226.729 138.969 226.975 139.652C227.327 140.665 227.951 141.172 228.847 141.172C230.351 141.172 231.103 139.657 231.103 136.628ZM237.3 142.404C235.881 142.404 234.868 141.662 234.26 140.18C233.865 139.23 233.668 138.052 233.668 136.644C233.668 134.873 233.977 133.412 234.596 132.26C235.204 131.108 236.105 130.532 237.3 130.532C238.462 130.532 239.353 131.092 239.972 132.212C240.622 133.353 240.948 134.814 240.948 136.596C240.948 138.27 240.681 139.614 240.148 140.628C239.518 141.812 238.569 142.404 237.3 142.404ZM239.556 136.628C239.556 133.374 238.804 131.748 237.3 131.748C235.806 131.748 235.06 133.364 235.06 136.596C235.06 137.95 235.182 138.969 235.428 139.652C235.78 140.665 236.404 141.172 237.3 141.172C238.804 141.172 239.556 139.657 239.556 136.628Z" fill="#A3A4A5"/>
<path d="M196.772 169.347C198.233 166.872 200.158 165.635 202.548 165.635C203.817 165.635 204.836 166.03 205.604 166.819C206.308 167.534 206.66 168.44 206.66 169.539V171.667C206.66 172.083 206.521 172.435 206.244 172.723C205.966 173.032 205.625 173.187 205.22 173.187H196.788C196.756 174.392 196.366 175.331 195.62 176.003C194.862 176.675 193.838 177.011 192.548 177.011H190.772C189.502 177.011 188.489 176.686 187.732 176.035C186.921 175.342 186.516 174.344 186.516 173.043V169.699L187.204 169.139H187.876V173.011C187.876 174.078 188.153 174.819 188.708 175.235C189.273 175.662 190.26 175.875 191.668 175.875C192.99 175.875 193.924 175.694 194.468 175.331C195.108 174.894 195.428 174.12 195.428 173.011L195.412 165.827H196.772V169.347ZM205.284 169.395C205.284 168.712 205.07 168.142 204.644 167.683C204.1 167.096 203.326 166.803 202.324 166.803C201.406 166.803 200.548 167.086 199.748 167.651C198.51 168.526 197.518 169.992 196.772 172.051H204.692C205.086 172.051 205.284 171.848 205.284 171.443V169.395ZM215.05 161.731V172.579L214.362 173.187H213.69V163.363L211.706 165.027L210.986 164.131L213.834 161.731H215.05ZM220.738 161.731V172.579L220.05 173.187H219.378V163.363L217.394 165.027L216.674 164.131L219.522 161.731H220.738ZM223.449 168.707C223.673 168.707 223.86 168.782 224.009 168.931C224.159 169.08 224.233 169.267 224.233 169.491C224.233 169.704 224.159 169.891 224.009 170.051C223.86 170.2 223.673 170.275 223.449 170.275C223.236 170.275 223.049 170.2 222.889 170.051C222.74 169.891 222.665 169.704 222.665 169.491C222.665 169.267 222.74 169.08 222.889 168.931C223.049 168.782 223.236 168.707 223.449 168.707ZM223.465 171.699C223.679 171.699 223.86 171.774 224.009 171.923C224.169 172.072 224.249 172.259 224.249 172.483C224.249 172.696 224.169 172.883 224.009 173.043C223.86 173.192 223.679 173.267 223.465 173.267C223.241 173.267 223.049 173.192 222.889 173.043C222.74 172.883 222.665 172.696 222.665 172.483C222.665 172.259 222.74 172.072 222.889 171.923C223.049 171.774 223.241 171.699 223.465 171.699ZM226.492 161.907C227.186 161.694 227.751 161.587 228.188 161.587C229.255 161.587 230.108 161.864 230.748 162.419C231.356 162.952 231.66 163.667 231.66 164.563C231.66 166.067 230.994 166.968 229.66 167.267C230.428 167.395 231.031 167.72 231.468 168.243C231.916 168.766 232.14 169.411 232.14 170.179C232.14 171.288 231.708 172.131 230.844 172.707C230.183 173.144 229.356 173.363 228.364 173.363C227.724 173.363 227.084 173.272 226.444 173.091L225.932 172.451V171.955C226.668 172.115 227.314 172.195 227.868 172.195C229.799 172.195 230.764 171.544 230.764 170.243C230.764 169.539 230.471 168.947 229.884 168.467C229.554 168.2 229.202 168.019 228.828 167.923C228.466 167.816 227.927 167.758 227.212 167.747V166.707H228.572C229.084 166.707 229.5 166.542 229.82 166.211C230.151 165.87 230.316 165.432 230.316 164.899C230.316 164.27 230.108 163.774 229.692 163.411C229.276 163.038 228.711 162.851 227.996 162.851C227.644 162.851 227.143 162.92 226.492 163.059V161.907ZM236.87 173.395C235.451 173.395 234.438 172.654 233.83 171.171C233.435 170.222 233.238 169.043 233.238 167.635C233.238 165.864 233.547 164.403 234.166 163.251C234.774 162.099 235.675 161.523 236.87 161.523C238.033 161.523 238.923 162.083 239.542 163.203C240.193 164.344 240.518 165.806 240.518 167.587C240.518 169.262 240.251 170.606 239.718 171.619C239.089 172.803 238.139 173.395 236.87 173.395ZM239.126 167.619C239.126 164.366 238.374 162.739 236.87 162.739C235.377 162.739 234.63 164.355 234.63 167.587C234.63 168.942 234.753 169.96 234.998 170.643C235.35 171.656 235.974 172.163 236.87 172.163C238.374 172.163 239.126 170.648 239.126 167.619Z" fill="#A3A4A5"/>
<path d="M196.772 200.338C198.233 197.864 200.158 196.626 202.548 196.626C203.817 196.626 204.836 197.021 205.604 197.81C206.308 198.525 206.66 199.432 206.66 200.53V202.658C206.66 203.074 206.521 203.426 206.244 203.714C205.966 204.024 205.625 204.178 205.22 204.178H196.788C196.756 205.384 196.366 206.322 195.62 206.994C194.862 207.666 193.838 208.002 192.548 208.002H190.772C189.502 208.002 188.489 207.677 187.732 207.026C186.921 206.333 186.516 205.336 186.516 204.034V200.69L187.204 200.13H187.876V204.002C187.876 205.069 188.153 205.81 188.708 206.226C189.273 206.653 190.26 206.866 191.668 206.866C192.99 206.866 193.924 206.685 194.468 206.322C195.108 205.885 195.428 205.112 195.428 204.002L195.412 196.818H196.772V200.338ZM205.284 200.386C205.284 199.704 205.07 199.133 204.644 198.674C204.1 198.088 203.326 197.794 202.324 197.794C201.406 197.794 200.548 198.077 199.748 198.642C198.51 199.517 197.518 200.984 196.772 203.042H204.692C205.086 203.042 205.284 202.84 205.284 202.434V200.386ZM215.05 192.722V203.57L214.362 204.178H213.69V194.354L211.706 196.018L210.986 195.122L213.834 192.722H215.05ZM220.738 192.722V203.57L220.05 204.178H219.378V194.354L217.394 196.018L216.674 195.122L219.522 192.722H220.738ZM223.449 199.698C223.673 199.698 223.86 199.773 224.009 199.922C224.159 200.072 224.233 200.258 224.233 200.482C224.233 200.696 224.159 200.882 224.009 201.042C223.86 201.192 223.673 201.266 223.449 201.266C223.236 201.266 223.049 201.192 222.889 201.042C222.74 200.882 222.665 200.696 222.665 200.482C222.665 200.258 222.74 200.072 222.889 199.922C223.049 199.773 223.236 199.698 223.449 199.698ZM223.465 202.69C223.679 202.69 223.86 202.765 224.009 202.914C224.169 203.064 224.249 203.25 224.249 203.474C224.249 203.688 224.169 203.874 224.009 204.034C223.86 204.184 223.679 204.258 223.465 204.258C223.241 204.258 223.049 204.184 222.889 204.034C222.74 203.874 222.665 203.688 222.665 203.474C222.665 203.25 222.74 203.064 222.889 202.914C223.049 202.765 223.241 202.69 223.465 202.69ZM226.492 192.898C227.186 192.685 227.751 192.578 228.188 192.578C229.255 192.578 230.108 192.856 230.748 193.41C231.356 193.944 231.66 194.658 231.66 195.554C231.66 197.058 230.994 197.96 229.66 198.258C230.428 198.386 231.031 198.712 231.468 199.234C231.916 199.757 232.14 200.402 232.14 201.17C232.14 202.28 231.708 203.122 230.844 203.698C230.183 204.136 229.356 204.354 228.364 204.354C227.724 204.354 227.084 204.264 226.444 204.082L225.932 203.442V202.946C226.668 203.106 227.314 203.186 227.868 203.186C229.799 203.186 230.764 202.536 230.764 201.234C230.764 200.53 230.471 199.938 229.884 199.458C229.554 199.192 229.202 199.01 228.828 198.914C228.466 198.808 227.927 198.749 227.212 198.738V197.698H228.572C229.084 197.698 229.5 197.533 229.82 197.202C230.151 196.861 230.316 196.424 230.316 195.89C230.316 195.261 230.108 194.765 229.692 194.402C229.276 194.029 228.711 193.842 227.996 193.842C227.644 193.842 227.143 193.912 226.492 194.05V192.898ZM236.87 204.386C235.451 204.386 234.438 203.645 233.83 202.162C233.435 201.213 233.238 200.034 233.238 198.626C233.238 196.856 233.547 195.394 234.166 194.242C234.774 193.09 235.675 192.514 236.87 192.514C238.033 192.514 238.923 193.074 239.542 194.194C240.193 195.336 240.518 196.797 240.518 198.578C240.518 200.253 240.251 201.597 239.718 202.61C239.089 203.794 238.139 204.386 236.87 204.386ZM239.126 198.61C239.126 195.357 238.374 193.73 236.87 193.73C235.377 193.73 234.63 195.346 234.63 198.578C234.63 199.933 234.753 200.952 234.998 201.634C235.35 202.648 235.974 203.154 236.87 203.154C238.374 203.154 239.126 201.64 239.126 198.61Z" fill="#A3A4A5"/>
<path d="M196.772 231.329C198.233 228.855 200.158 227.617 202.548 227.617C203.817 227.617 204.836 228.012 205.604 228.801C206.308 229.516 206.66 230.423 206.66 231.521V233.649C206.66 234.065 206.521 234.417 206.244 234.705C205.966 235.015 205.625 235.169 205.22 235.169H196.788C196.756 236.375 196.366 237.313 195.62 237.985C194.862 238.657 193.838 238.993 192.548 238.993H190.772C189.502 238.993 188.489 238.668 187.732 238.017C186.921 237.324 186.516 236.327 186.516 235.025V231.681L187.204 231.121H187.876V234.993C187.876 236.06 188.153 236.801 188.708 237.217C189.273 237.644 190.26 237.857 191.668 237.857C192.99 237.857 193.924 237.676 194.468 237.313C195.108 236.876 195.428 236.103 195.428 234.993L195.412 227.809H196.772V231.329ZM205.284 231.377C205.284 230.695 205.07 230.124 204.644 229.665C204.1 229.079 203.326 228.785 202.324 228.785C201.406 228.785 200.548 229.068 199.748 229.633C198.51 230.508 197.518 231.975 196.772 234.033H204.692C205.086 234.033 205.284 233.831 205.284 233.425V231.377ZM215.05 223.713V234.561L214.362 235.169H213.69V225.345L211.706 227.009L210.986 226.113L213.834 223.713H215.05ZM220.738 223.713V234.561L220.05 235.169H219.378V225.345L217.394 227.009L216.674 226.113L219.522 223.713H220.738ZM223.449 230.689C223.673 230.689 223.86 230.764 224.009 230.913C224.159 231.063 224.233 231.249 224.233 231.473C224.233 231.687 224.159 231.873 224.009 232.033C223.86 232.183 223.673 232.257 223.449 232.257C223.236 232.257 223.049 232.183 222.889 232.033C222.74 231.873 222.665 231.687 222.665 231.473C222.665 231.249 222.74 231.063 222.889 230.913C223.049 230.764 223.236 230.689 223.449 230.689ZM223.465 233.681C223.679 233.681 223.86 233.756 224.009 233.905C224.169 234.055 224.249 234.241 224.249 234.465C224.249 234.679 224.169 234.865 224.009 235.025C223.86 235.175 223.679 235.249 223.465 235.249C223.241 235.249 223.049 235.175 222.889 235.025C222.74 234.865 222.665 234.679 222.665 234.465C222.665 234.241 222.74 234.055 222.889 233.905C223.049 233.756 223.241 233.681 223.465 233.681ZM226.492 223.889C227.186 223.676 227.751 223.569 228.188 223.569C229.255 223.569 230.108 223.847 230.748 224.401C231.356 224.935 231.66 225.649 231.66 226.545C231.66 228.049 230.994 228.951 229.66 229.249C230.428 229.377 231.031 229.703 231.468 230.225C231.916 230.748 232.14 231.393 232.14 232.161C232.14 233.271 231.708 234.113 230.844 234.689C230.183 235.127 229.356 235.345 228.364 235.345C227.724 235.345 227.084 235.255 226.444 235.073L225.932 234.433V233.937C226.668 234.097 227.314 234.177 227.868 234.177C229.799 234.177 230.764 233.527 230.764 232.225C230.764 231.521 230.471 230.929 229.884 230.449C229.554 230.183 229.202 230.001 228.828 229.905C228.466 229.799 227.927 229.74 227.212 229.729V228.689H228.572C229.084 228.689 229.5 228.524 229.82 228.193C230.151 227.852 230.316 227.415 230.316 226.881C230.316 226.252 230.108 225.756 229.692 225.393C229.276 225.02 228.711 224.833 227.996 224.833C227.644 224.833 227.143 224.903 226.492 225.041V223.889ZM236.87 235.377C235.451 235.377 234.438 234.636 233.83 233.153C233.435 232.204 233.238 231.025 233.238 229.617C233.238 227.847 233.547 226.385 234.166 225.233C234.774 224.081 235.675 223.505 236.87 223.505C238.033 223.505 238.923 224.065 239.542 225.185C240.193 226.327 240.518 227.788 240.518 229.569C240.518 231.244 240.251 232.588 239.718 233.601C239.089 234.785 238.139 235.377 236.87 235.377ZM239.126 229.601C239.126 226.348 238.374 224.721 236.87 224.721C235.377 224.721 234.63 226.337 234.63 229.569C234.63 230.924 234.753 231.943 234.998 232.625C235.35 233.639 235.974 234.145 236.87 234.145C238.374 234.145 239.126 232.631 239.126 229.601Z" fill="#A3A4A5"/>
<rect x="0.472656" y="0.000488281" width="133" height="272.361" rx="8" fill="#F9F9F9"/>
<path d="M1.43555 9.53369C1.43555 5.11541 5.01727 1.53369 9.43555 1.53369H126.435C130.853 1.53369 134.435 5.11541 134.435 9.53369V43.0093H1.43555V9.53369Z" fill="#DDB762"/>
<path d="M30.6595 28.4795C29.2409 28.4795 28.2275 27.7382 27.6195 26.2555C27.2249 25.3062 27.0275 24.1275 27.0275 22.7195C27.0275 20.9488 27.3369 19.4875 27.9555 18.3355C28.5635 17.1835 29.4649 16.6075 30.6595 16.6075C31.8222 16.6075 32.7129 17.1675 33.3315 18.2875C33.9822 19.4288 34.3075 20.8902 34.3075 22.6715C34.3075 24.3462 34.0409 25.6902 33.5075 26.7035C32.8782 27.8875 31.9289 28.4795 30.6595 28.4795ZM32.9155 22.7035C32.9155 19.4502 32.1635 17.8235 30.6595 17.8235C29.1662 17.8235 28.4195 19.4395 28.4195 22.6715C28.4195 24.0262 28.5422 25.0448 28.7875 25.7275C29.1395 26.7408 29.7635 27.2475 30.6595 27.2475C32.1635 27.2475 32.9155 25.7328 32.9155 22.7035ZM35.9447 17.6475C36.9473 16.9968 37.9607 16.6715 38.9847 16.6715C39.9873 16.6715 40.7393 16.9648 41.2407 17.5515C41.678 18.0635 41.8967 18.7462 41.8967 19.5995C41.8967 20.2715 41.726 20.9275 41.3847 21.5675C41.0753 22.1115 40.5313 22.8475 39.7527 23.7755L37.4967 26.3355L36.8407 27.1355H42.0887V27.5835L41.5287 28.2715H35.4007V27.1195L36.6167 25.6635L39.0807 22.7995C39.5713 22.2128 39.918 21.7222 40.1207 21.3275C40.398 20.7942 40.5367 20.2768 40.5367 19.7755C40.5367 19.2208 40.3713 18.7728 40.0407 18.4315C39.71 18.0902 39.2673 17.9195 38.7127 17.9195C38.062 17.9195 37.3847 18.1702 36.6807 18.6715L35.9447 17.6475ZM48.0474 17.5035L44.0474 28.2715H42.7514L46.7674 17.5035H48.0474ZM52.4252 28.4795C51.0065 28.4795 49.9932 27.7382 49.3852 26.2555C48.9905 25.3062 48.7932 24.1275 48.7932 22.7195C48.7932 20.9488 49.1025 19.4875 49.7212 18.3355C50.3292 17.1835 51.2305 16.6075 52.4252 16.6075C53.5878 16.6075 54.4785 17.1675 55.0972 18.2875C55.7478 19.4288 56.0732 20.8902 56.0732 22.6715C56.0732 24.3462 55.8065 25.6902 55.2732 26.7035C54.6438 27.8875 53.6945 28.4795 52.4252 28.4795ZM54.6812 22.7035C54.6812 19.4502 53.9292 17.8235 52.4252 17.8235C50.9318 17.8235 50.1852 19.4395 50.1852 22.6715C50.1852 24.0262 50.3078 25.0448 50.5532 25.7275C50.9052 26.7408 51.5292 27.2475 52.4252 27.2475C53.9292 27.2475 54.6812 25.7328 54.6812 22.7035ZM58.0943 16.9915C58.7876 16.7782 59.353 16.6715 59.7903 16.6715C60.857 16.6715 61.7103 16.9488 62.3503 17.5035C62.9583 18.0368 63.2623 18.7515 63.2623 19.6475C63.2623 21.1515 62.5956 22.0528 61.2623 22.3515C62.0303 22.4795 62.633 22.8048 63.0703 23.3275C63.5183 23.8502 63.7423 24.4955 63.7423 25.2635C63.7423 26.3728 63.3103 27.2155 62.4463 27.7915C61.785 28.2288 60.9583 28.4475 59.9663 28.4475C59.3263 28.4475 58.6863 28.3568 58.0463 28.1755L57.5343 27.5355V27.0395C58.2703 27.1995 58.9156 27.2795 59.4703 27.2795C61.401 27.2795 62.3663 26.6288 62.3663 25.3275C62.3663 24.6235 62.073 24.0315 61.4863 23.5515C61.1556 23.2848 60.8036 23.1035 60.4303 23.0075C60.0676 22.9008 59.529 22.8422 58.8143 22.8315V21.7915H60.1743C60.6863 21.7915 61.1023 21.6262 61.4223 21.2955C61.753 20.9542 61.9183 20.5168 61.9183 19.9835C61.9183 19.3542 61.7103 18.8582 61.2943 18.4955C60.8783 18.1222 60.313 17.9355 59.5983 17.9355C59.2463 17.9355 58.745 18.0048 58.0943 18.1435V16.9915ZM73.2015 20.7195C73.4149 20.7195 73.5962 20.7995 73.7455 20.9595C73.9055 21.1088 73.9855 21.2902 73.9855 21.5035C73.9855 21.7275 73.9055 21.9195 73.7455 22.0795C73.5962 22.2288 73.4149 22.3035 73.2015 22.3035C72.9882 22.3035 72.8015 22.2288 72.6415 22.0795C72.4922 21.9195 72.4175 21.7275 72.4175 21.5035C72.4175 21.2902 72.4922 21.1088 72.6415 20.9595C72.8015 20.7995 72.9882 20.7195 73.2015 20.7195ZM78.4815 20.9115V27.1355H79.2975V28.2715H78.4815C78.4495 29.5408 78.0229 30.5115 77.2015 31.1835C76.4442 31.7915 75.4575 32.0955 74.2415 32.0955H72.4655C71.2815 32.0955 70.3162 31.8128 69.5695 31.2475C68.6629 30.5542 68.2095 29.5142 68.2095 28.1275V24.7835L68.8975 24.2235H69.5695V28.0955C69.5695 29.1622 69.8469 29.9035 70.4015 30.3195C70.9669 30.7462 71.9482 30.9595 73.3455 30.9595C74.6789 30.9595 75.6175 30.7782 76.1615 30.4155C76.8015 29.9782 77.1215 29.2048 77.1215 28.0955V20.9115H78.4815ZM83.4865 20.9115V26.7515C83.4865 26.8795 83.4705 27.0075 83.4385 27.1355H84.2865V28.2715H83.6625L83.1985 27.7115H83.1505C82.8625 28.0848 82.4892 28.2715 82.0305 28.2715H79.2465V27.1355H81.5185C81.6892 27.1355 81.8279 27.0822 81.9345 26.9755C82.0625 26.8582 82.1265 26.7088 82.1265 26.5275V20.9115H83.4865ZM80.7505 29.9355C80.9639 29.9355 81.1452 30.0102 81.2945 30.1595C81.4545 30.3195 81.5345 30.5062 81.5345 30.7195C81.5345 30.9435 81.4545 31.1302 81.2945 31.2795C81.1452 31.4395 80.9639 31.5195 80.7505 31.5195C80.5372 31.5195 80.3505 31.4395 80.1905 31.2795C80.0412 31.1302 79.9665 30.9435 79.9665 30.7195C79.9665 30.5062 80.0412 30.3195 80.1905 30.1595C80.3505 30.0102 80.5372 29.9355 80.7505 29.9355ZM82.6865 29.9355C82.9105 29.9355 83.0972 30.0102 83.2465 30.1595C83.4065 30.3195 83.4865 30.5062 83.4865 30.7195C83.4865 30.9435 83.4065 31.1302 83.2465 31.2795C83.0972 31.4395 82.9105 31.5195 82.6865 31.5195C82.4732 31.5195 82.2865 31.4395 82.1265 31.2795C81.9772 31.1302 81.9025 30.9435 81.9025 30.7195C81.9025 30.5062 81.9772 30.3195 82.1265 30.1595C82.2865 30.0102 82.4732 29.9355 82.6865 29.9355ZM87.7204 17.3915C87.9444 17.3915 88.1311 17.4715 88.2804 17.6315C88.4404 17.7808 88.5204 17.9622 88.5204 18.1755C88.5204 18.3995 88.4404 18.5915 88.2804 18.7515C88.1311 18.9008 87.9444 18.9755 87.7204 18.9755C87.5071 18.9755 87.3204 18.9008 87.1604 18.7515C87.0111 18.5915 86.9364 18.3995 86.9364 18.1755C86.9364 17.9622 87.0111 17.7808 87.1604 17.6315C87.3204 17.4715 87.5071 17.3915 87.7204 17.3915ZM88.4084 20.9115V26.7515C88.4084 26.8795 88.3924 27.0075 88.3604 27.1355H89.2084V28.2715H88.5844L88.1204 27.7115H88.0724C87.7844 28.0848 87.4111 28.2715 86.9524 28.2715H84.1684V27.1355H86.4404C86.6111 27.1355 86.7498 27.0822 86.8564 26.9755C86.9844 26.8582 87.0484 26.7088 87.0484 26.5275V20.9115H88.4084ZM91.7143 15.8555C91.917 15.8555 92.093 15.9302 92.2423 16.0795C92.3916 16.2182 92.4663 16.3942 92.4663 16.6075C92.4663 16.8102 92.3916 16.9862 92.2423 17.1355C92.093 17.2848 91.917 17.3595 91.7143 17.3595C91.5116 17.3595 91.3356 17.2848 91.1863 17.1355C91.037 16.9862 90.9623 16.8102 90.9623 16.6075C90.9623 16.3942 91.0316 16.2182 91.1703 16.0795C91.3196 15.9302 91.501 15.8555 91.7143 15.8555ZM90.7383 17.3915C90.9623 17.3915 91.149 17.4715 91.2983 17.6315C91.4476 17.7808 91.5223 17.9622 91.5223 18.1755C91.5223 18.3995 91.4476 18.5915 91.2983 18.7515C91.149 18.9008 90.9623 18.9755 90.7383 18.9755C90.525 18.9755 90.3383 18.9008 90.1783 18.7515C90.029 18.5915 89.9543 18.3995 89.9543 18.1755C89.9543 17.9622 90.029 17.7808 90.1783 17.6315C90.3383 17.4715 90.525 17.3915 90.7383 17.3915ZM92.6903 17.3915C92.9036 17.3915 93.085 17.4715 93.2343 17.6315C93.3943 17.7808 93.4743 17.9622 93.4743 18.1755C93.4743 18.3995 93.3943 18.5915 93.2343 18.7515C93.085 18.9008 92.9036 18.9755 92.6903 18.9755C92.4663 18.9755 92.2743 18.9008 92.1143 18.7515C91.965 18.5915 91.8903 18.3995 91.8903 18.1755C91.8903 17.9622 91.965 17.7808 92.1143 17.6315C92.2743 17.4715 92.4663 17.3915 92.6903 17.3915ZM93.3303 20.9115V26.7515C93.3303 27.1462 93.2023 27.4875 92.9463 27.7755C92.6583 28.1062 92.301 28.2715 91.8743 28.2715H89.0903V27.1355H91.3623C91.5436 27.1355 91.693 27.0715 91.8103 26.9435C91.917 26.8368 91.9703 26.6982 91.9703 26.5275V20.9115H93.3303ZM104.128 16.8155V26.7515C104.128 27.1142 104.016 27.4342 103.792 27.7115C103.494 28.0848 103.12 28.2715 102.672 28.2715H95.6802L95.1202 27.5835V27.1355H99.4082L96.6562 18.7835H98.0162L100.784 27.1355H102.16C102.352 27.1355 102.507 27.0662 102.624 26.9275C102.71 26.8102 102.752 26.6768 102.752 26.5275V16.8155H104.128ZM107.696 16.8155V28.1115L107.008 28.6715H106.336V16.8155H107.696Z" fill="white"/>
<rect x="34.4707" y="57.2134" width="65.0042" height="30" rx="8" fill="#DDB762"/>
<path d="M48.6767 74.3734C50.138 71.8987 52.0633 70.6614 54.4527 70.6614C55.722 70.6614 56.7407 71.056 57.5087 71.8454C58.2127 72.56 58.5647 73.4667 58.5647 74.5654V76.6934C58.5647 77.1094 58.426 77.4614 58.1487 77.7494C57.8713 78.0587 57.53 78.2134 57.1247 78.2134H48.6927C48.6607 79.4187 48.2713 80.3574 47.5247 81.0294C46.7673 81.7014 45.7433 82.0374 44.4527 82.0374H42.6767C41.4073 82.0374 40.394 81.712 39.6367 81.0614C38.826 80.368 38.4207 79.3707 38.4207 78.0694V74.7254L39.1087 74.1654H39.7807V78.0374C39.7807 79.104 40.058 79.8454 40.6127 80.2614C41.178 80.688 42.1647 80.9014 43.5727 80.9014C44.8953 80.9014 45.8287 80.72 46.3727 80.3574C47.0127 79.92 47.3327 79.1467 47.3327 78.0374L47.3167 70.8534H48.6767V74.3734ZM57.1887 74.4214C57.1887 73.7387 56.9753 73.168 56.5487 72.7094C56.0047 72.1227 55.2313 71.8294 54.2287 71.8294C53.3113 71.8294 52.4527 72.112 51.6527 72.6774C50.4153 73.552 49.4233 75.0187 48.6767 77.0774H56.5967C56.9913 77.0774 57.1887 76.8747 57.1887 76.4694V74.4214ZM66.9552 66.7574V77.6054L66.2672 78.2134H65.5952V68.3894L63.6112 70.0534L62.8912 69.1574L65.7392 66.7574H66.9552ZM72.2907 78.4214C70.872 78.4214 69.8587 77.68 69.2507 76.1974C68.856 75.248 68.6587 74.0694 68.6587 72.6614C68.6587 70.8907 68.968 69.4294 69.5867 68.2774C70.1947 67.1254 71.096 66.5494 72.2907 66.5494C73.4533 66.5494 74.344 67.1094 74.9627 68.2294C75.6133 69.3707 75.9387 70.832 75.9387 72.6134C75.9387 74.288 75.672 75.632 75.1387 76.6454C74.5093 77.8294 73.56 78.4214 72.2907 78.4214ZM74.5467 72.6454C74.5467 69.392 73.7947 67.7654 72.2907 67.7654C70.7973 67.7654 70.0507 69.3814 70.0507 72.6134C70.0507 73.968 70.1733 74.9867 70.4187 75.6694C70.7707 76.6827 71.3947 77.1894 72.2907 77.1894C73.7947 77.1894 74.5467 75.6747 74.5467 72.6454ZM78.1198 73.7334C78.3438 73.7334 78.5304 73.808 78.6798 73.9574C78.8291 74.1067 78.9038 74.2934 78.9038 74.5174C78.9038 74.7307 78.8291 74.9174 78.6798 75.0774C78.5304 75.2267 78.3438 75.3014 78.1198 75.3014C77.9064 75.3014 77.7198 75.2267 77.5598 75.0774C77.4104 74.9174 77.3358 74.7307 77.3358 74.5174C77.3358 74.2934 77.4104 74.1067 77.5598 73.9574C77.7198 73.808 77.9064 73.7334 78.1198 73.7334ZM78.1358 76.7254C78.3491 76.7254 78.5304 76.8 78.6798 76.9494C78.8398 77.0987 78.9198 77.2854 78.9198 77.5094C78.9198 77.7227 78.8398 77.9094 78.6798 78.0694C78.5304 78.2187 78.3491 78.2934 78.1358 78.2934C77.9118 78.2934 77.7198 78.2187 77.5598 78.0694C77.4104 77.9094 77.3358 77.7227 77.3358 77.5094C77.3358 77.2854 77.4104 77.0987 77.5598 76.9494C77.7198 76.8 77.9118 76.7254 78.1358 76.7254ZM83.9469 78.4214C82.5282 78.4214 81.5149 77.68 80.9069 76.1974C80.5122 75.248 80.3149 74.0694 80.3149 72.6614C80.3149 70.8907 80.6242 69.4294 81.2429 68.2774C81.8509 67.1254 82.7522 66.5494 83.9469 66.5494C85.1096 66.5494 86.0002 67.1094 86.6189 68.2294C87.2696 69.3707 87.5949 70.832 87.5949 72.6134C87.5949 74.288 87.3282 75.632 86.7949 76.6454C86.1656 77.8294 85.2162 78.4214 83.9469 78.4214ZM86.2029 72.6454C86.2029 69.392 85.4509 67.7654 83.9469 67.7654C82.4536 67.7654 81.7069 69.3814 81.7069 72.6134C81.7069 73.968 81.8296 74.9867 82.0749 75.6694C82.4269 76.6827 83.0509 77.1894 83.9469 77.1894C85.4509 77.1894 86.2029 75.6747 86.2029 72.6454ZM92.4 78.4214C90.9814 78.4214 89.968 77.68 89.36 76.1974C88.9654 75.248 88.768 74.0694 88.768 72.6614C88.768 70.8907 89.0774 69.4294 89.696 68.2774C90.304 67.1254 91.2054 66.5494 92.4 66.5494C93.5627 66.5494 94.4534 67.1094 95.072 68.2294C95.7227 69.3707 96.048 70.832 96.048 72.6134C96.048 74.288 95.7814 75.632 95.248 76.6454C94.6187 77.8294 93.6694 78.4214 92.4 78.4214ZM94.656 72.6454C94.656 69.392 93.904 67.7654 92.4 67.7654C90.9067 67.7654 90.16 69.3814 90.16 72.6134C90.16 73.968 90.2827 74.9867 90.528 75.6694C90.88 76.6827 91.504 77.1894 92.4 77.1894C93.904 77.1894 94.656 75.6747 94.656 72.6454Z" fill="white"/>
<path d="M49.1057 107.365C50.567 104.89 52.4923 103.653 54.8817 103.653C56.151 103.653 57.1697 104.047 57.9377 104.837C58.6417 105.551 58.9937 106.458 58.9937 107.557V109.685C58.9937 110.101 58.855 110.453 58.5777 110.741C58.3003 111.05 57.959 111.205 57.5537 111.205H49.1217C49.0897 112.41 48.7003 113.349 47.9537 114.021C47.1963 114.693 46.1723 115.029 44.8817 115.029H43.1057C41.8363 115.029 40.823 114.703 40.0657 114.053C39.255 113.359 38.8497 112.362 38.8497 111.061V107.717L39.5377 107.157H40.2097V111.029C40.2097 112.095 40.487 112.837 41.0417 113.253C41.607 113.679 42.5937 113.893 44.0017 113.893C45.3243 113.893 46.2577 113.711 46.8017 113.349C47.4417 112.911 47.7617 112.138 47.7617 111.029L47.7457 103.845H49.1057V107.365ZM57.6177 107.413C57.6177 106.73 57.4043 106.159 56.9777 105.701C56.4337 105.114 55.6603 104.821 54.6577 104.821C53.7403 104.821 52.8817 105.103 52.0817 105.669C50.8443 106.543 49.8523 108.01 49.1057 110.069H57.0257C57.4203 110.069 57.6177 109.866 57.6177 109.461V107.413ZM67.3842 99.7486V110.597L66.6962 111.205H66.0242V101.381L64.0402 103.045L63.3202 102.149L66.1682 99.7486H67.3842ZM72.7197 111.413C71.301 111.413 70.2877 110.671 69.6797 109.189C69.285 108.239 69.0877 107.061 69.0877 105.653C69.0877 103.882 69.397 102.421 70.0157 101.269C70.6237 100.117 71.525 99.5406 72.7197 99.5406C73.8823 99.5406 74.773 100.101 75.3917 101.221C76.0423 102.362 76.3677 103.823 76.3677 105.605C76.3677 107.279 76.101 108.623 75.5677 109.637C74.9383 110.821 73.989 111.413 72.7197 111.413ZM74.9757 105.637C74.9757 102.383 74.2237 100.757 72.7197 100.757C71.2263 100.757 70.4797 102.373 70.4797 105.605C70.4797 106.959 70.6023 107.978 70.8477 108.661C71.1997 109.674 71.8237 110.181 72.7197 110.181C74.2237 110.181 74.9757 108.666 74.9757 105.637ZM78.5488 106.725C78.7728 106.725 78.9595 106.799 79.1088 106.949C79.2581 107.098 79.3328 107.285 79.3328 107.509C79.3328 107.722 79.2581 107.909 79.1088 108.069C78.9595 108.218 78.7728 108.293 78.5488 108.293C78.3355 108.293 78.1488 108.218 77.9888 108.069C77.8395 107.909 77.7648 107.722 77.7648 107.509C77.7648 107.285 77.8395 107.098 77.9888 106.949C78.1488 106.799 78.3355 106.725 78.5488 106.725ZM78.5648 109.717C78.7781 109.717 78.9595 109.791 79.1088 109.941C79.2688 110.09 79.3488 110.277 79.3488 110.501C79.3488 110.714 79.2688 110.901 79.1088 111.061C78.9595 111.21 78.7781 111.285 78.5648 111.285C78.3408 111.285 78.1488 111.21 77.9888 111.061C77.8395 110.901 77.7648 110.714 77.7648 110.501C77.7648 110.277 77.8395 110.09 77.9888 109.941C78.1488 109.791 78.3408 109.717 78.5648 109.717ZM81.5919 99.9246C82.2852 99.7113 82.8506 99.6046 83.2879 99.6046C84.3546 99.6046 85.2079 99.8819 85.8479 100.437C86.4559 100.97 86.7599 101.685 86.7599 102.581C86.7599 104.085 86.0932 104.986 84.7599 105.285C85.5279 105.413 86.1306 105.738 86.5679 106.261C87.0159 106.783 87.2399 107.429 87.2399 108.197C87.2399 109.306 86.8079 110.149 85.9439 110.725C85.2826 111.162 84.4559 111.381 83.4639 111.381C82.8239 111.381 82.1839 111.29 81.5439 111.109L81.0319 110.469V109.973C81.7679 110.133 82.4132 110.213 82.9679 110.213C84.8986 110.213 85.8639 109.562 85.8639 108.261C85.8639 107.557 85.5706 106.965 84.9839 106.485C84.6532 106.218 84.3012 106.037 83.9279 105.941C83.5652 105.834 83.0266 105.775 82.3119 105.765V104.725H83.6719C84.1839 104.725 84.5999 104.559 84.9199 104.229C85.2506 103.887 85.4159 103.45 85.4159 102.917C85.4159 102.287 85.2079 101.791 84.7919 101.429C84.3759 101.055 83.8106 100.869 83.0959 100.869C82.7439 100.869 82.2426 100.938 81.5919 101.077V99.9246ZM91.9697 111.413C90.551 111.413 89.5377 110.671 88.9297 109.189C88.535 108.239 88.3377 107.061 88.3377 105.653C88.3377 103.882 88.647 102.421 89.2657 101.269C89.8737 100.117 90.775 99.5406 91.9697 99.5406C93.1323 99.5406 94.023 100.101 94.6417 101.221C95.2923 102.362 95.6177 103.823 95.6177 105.605C95.6177 107.279 95.351 108.623 94.8177 109.637C94.1883 110.821 93.239 111.413 91.9697 111.413ZM94.2257 105.637C94.2257 102.383 93.4737 100.757 91.9697 100.757C90.4763 100.757 89.7297 102.373 89.7297 105.605C89.7297 106.959 89.8523 107.978 90.0977 108.661C90.4497 109.674 91.0737 110.181 91.9697 110.181C93.4737 110.181 94.2257 108.666 94.2257 105.637Z" fill="#A3A4A5"/>
<path d="M50.0588 138.356C51.5201 135.881 53.4455 134.644 55.8348 134.644C57.1041 134.644 58.1228 135.038 58.8908 135.828C59.5948 136.542 59.9468 137.449 59.9468 138.548V140.676C59.9468 141.092 59.8081 141.444 59.5308 141.732C59.2535 142.041 58.9121 142.196 58.5068 142.196H50.0748C50.0428 143.401 49.6535 144.34 48.9068 145.012C48.1495 145.684 47.1255 146.02 45.8348 146.02H44.0588C42.7895 146.02 41.7761 145.694 41.0188 145.044C40.2081 144.35 39.8028 143.353 39.8028 142.052V138.708L40.4908 138.148H41.1628V142.02C41.1628 143.086 41.4401 143.828 41.9948 144.244C42.5601 144.67 43.5468 144.884 44.9548 144.884C46.2775 144.884 47.2108 144.702 47.7548 144.34C48.3948 143.902 48.7148 143.129 48.7148 142.02L48.6988 134.836H50.0588V138.356ZM58.5708 138.404C58.5708 137.721 58.3575 137.15 57.9308 136.692C57.3868 136.105 56.6135 135.812 55.6108 135.812C54.6935 135.812 53.8348 136.094 53.0348 136.66C51.7975 137.534 50.8055 139.001 50.0588 141.06H57.9788C58.3735 141.06 58.5708 140.857 58.5708 140.452V138.404ZM68.3373 130.74V141.588L67.6493 142.196H66.9773V132.372L64.9933 134.036L64.2733 133.14L67.1213 130.74H68.3373ZM74.0248 130.74V141.588L73.3368 142.196H72.6648V132.372L70.6808 134.036L69.9608 133.14L72.8088 130.74H74.0248ZM76.7363 137.716C76.9603 137.716 77.147 137.79 77.2963 137.94C77.4456 138.089 77.5203 138.276 77.5203 138.5C77.5203 138.713 77.4456 138.9 77.2963 139.06C77.147 139.209 76.9603 139.284 76.7363 139.284C76.523 139.284 76.3363 139.209 76.1763 139.06C76.027 138.9 75.9523 138.713 75.9523 138.5C75.9523 138.276 76.027 138.089 76.1763 137.94C76.3363 137.79 76.523 137.716 76.7363 137.716ZM76.7523 140.708C76.9656 140.708 77.147 140.782 77.2963 140.932C77.4563 141.081 77.5363 141.268 77.5363 141.492C77.5363 141.705 77.4563 141.892 77.2963 142.052C77.147 142.201 76.9656 142.276 76.7523 142.276C76.5283 142.276 76.3363 142.201 76.1763 142.052C76.027 141.892 75.9523 141.705 75.9523 141.492C75.9523 141.268 76.027 141.081 76.1763 140.932C76.3363 140.782 76.5283 140.708 76.7523 140.708ZM82.5634 142.404C81.1447 142.404 80.1314 141.662 79.5234 140.18C79.1287 139.23 78.9314 138.052 78.9314 136.644C78.9314 134.873 79.2407 133.412 79.8594 132.26C80.4674 131.108 81.3687 130.532 82.5634 130.532C83.7261 130.532 84.6167 131.092 85.2354 132.212C85.8861 133.353 86.2114 134.814 86.2114 136.596C86.2114 138.27 85.9447 139.614 85.4114 140.628C84.7821 141.812 83.8327 142.404 82.5634 142.404ZM84.8194 136.628C84.8194 133.374 84.0674 131.748 82.5634 131.748C81.0701 131.748 80.3234 133.364 80.3234 136.596C80.3234 137.95 80.4461 138.969 80.6914 139.652C81.0434 140.665 81.6674 141.172 82.5634 141.172C84.0674 141.172 84.8194 139.657 84.8194 136.628ZM91.0165 142.404C89.5979 142.404 88.5845 141.662 87.9765 140.18C87.5819 139.23 87.3845 138.052 87.3845 136.644C87.3845 134.873 87.6939 133.412 88.3125 132.26C88.9205 131.108 89.8219 130.532 91.0165 130.532C92.1792 130.532 93.0699 131.092 93.6885 132.212C94.3392 133.353 94.6645 134.814 94.6645 136.596C94.6645 138.27 94.3979 139.614 93.8645 140.628C93.2352 141.812 92.2859 142.404 91.0165 142.404ZM93.2725 136.628C93.2725 133.374 92.5205 131.748 91.0165 131.748C89.5232 131.748 88.7765 133.364 88.7765 136.596C88.7765 137.95 88.8992 138.969 89.1445 139.652C89.4965 140.665 90.1205 141.172 91.0165 141.172C92.5205 141.172 93.2725 139.657 93.2725 136.628Z" fill="#A3A4A5"/>
<path d="M50.4885 169.347C51.9498 166.872 53.8751 165.635 56.2645 165.635C57.5338 165.635 58.5525 166.03 59.3205 166.819C60.0245 167.534 60.3765 168.44 60.3765 169.539V171.667C60.3765 172.083 60.2378 172.435 59.9605 172.723C59.6831 173.032 59.3418 173.187 58.9365 173.187H50.5045C50.4725 174.392 50.0831 175.331 49.3365 176.003C48.5791 176.675 47.5551 177.011 46.2645 177.011H44.4885C43.2191 177.011 42.2058 176.686 41.4485 176.035C40.6378 175.342 40.2325 174.344 40.2325 173.043V169.699L40.9205 169.139H41.5925V173.011C41.5925 174.078 41.8698 174.819 42.4245 175.235C42.9898 175.662 43.9765 175.875 45.3845 175.875C46.7071 175.875 47.6405 175.694 48.1845 175.331C48.8245 174.894 49.1445 174.12 49.1445 173.011L49.1285 165.827H50.4885V169.347ZM59.0005 169.395C59.0005 168.712 58.7871 168.142 58.3605 167.683C57.8165 167.096 57.0431 166.803 56.0405 166.803C55.1231 166.803 54.2645 167.086 53.4645 167.651C52.2271 168.526 51.2351 169.992 50.4885 172.051H58.4085C58.8031 172.051 59.0005 171.848 59.0005 171.443V169.395ZM68.767 161.731V172.579L68.079 173.187H67.407V163.363L65.423 165.027L64.703 164.131L67.551 161.731H68.767ZM74.4545 161.731V172.579L73.7665 173.187H73.0945V163.363L71.1105 165.027L70.3905 164.131L73.2385 161.731H74.4545ZM77.166 168.707C77.39 168.707 77.5766 168.782 77.726 168.931C77.8753 169.08 77.95 169.267 77.95 169.491C77.95 169.704 77.8753 169.891 77.726 170.051C77.5766 170.2 77.39 170.275 77.166 170.275C76.9526 170.275 76.766 170.2 76.606 170.051C76.4566 169.891 76.382 169.704 76.382 169.491C76.382 169.267 76.4566 169.08 76.606 168.931C76.766 168.782 76.9526 168.707 77.166 168.707ZM77.182 171.699C77.3953 171.699 77.5766 171.774 77.726 171.923C77.886 172.072 77.966 172.259 77.966 172.483C77.966 172.696 77.886 172.883 77.726 173.043C77.5766 173.192 77.3953 173.267 77.182 173.267C76.958 173.267 76.766 173.192 76.606 173.043C76.4566 172.883 76.382 172.696 76.382 172.483C76.382 172.259 76.4566 172.072 76.606 171.923C76.766 171.774 76.958 171.699 77.182 171.699ZM80.2091 161.907C80.9024 161.694 81.4678 161.587 81.9051 161.587C82.9718 161.587 83.8251 161.864 84.4651 162.419C85.0731 162.952 85.3771 163.667 85.3771 164.563C85.3771 166.067 84.7104 166.968 83.3771 167.267C84.1451 167.395 84.7478 167.72 85.1851 168.243C85.6331 168.766 85.8571 169.411 85.8571 170.179C85.8571 171.288 85.4251 172.131 84.5611 172.707C83.8998 173.144 83.0731 173.363 82.0811 173.363C81.4411 173.363 80.8011 173.272 80.1611 173.091L79.6491 172.451V171.955C80.3851 172.115 81.0304 172.195 81.5851 172.195C83.5158 172.195 84.4811 171.544 84.4811 170.243C84.4811 169.539 84.1878 168.947 83.6011 168.467C83.2704 168.2 82.9184 168.019 82.5451 167.923C82.1824 167.816 81.6438 167.758 80.9291 167.747V166.707H82.2891C82.8011 166.707 83.2171 166.542 83.5371 166.211C83.8678 165.87 84.0331 165.432 84.0331 164.899C84.0331 164.27 83.8251 163.774 83.4091 163.411C82.9931 163.038 82.4278 162.851 81.7131 162.851C81.3611 162.851 80.8598 162.92 80.2091 163.059V161.907ZM90.5869 173.395C89.1682 173.395 88.1549 172.654 87.5469 171.171C87.1522 170.222 86.9549 169.043 86.9549 167.635C86.9549 165.864 87.2642 164.403 87.8829 163.251C88.4909 162.099 89.3922 161.523 90.5869 161.523C91.7495 161.523 92.6402 162.083 93.2589 163.203C93.9095 164.344 94.2349 165.806 94.2349 167.587C94.2349 169.262 93.9682 170.606 93.4349 171.619C92.8055 172.803 91.8562 173.395 90.5869 173.395ZM92.8429 167.619C92.8429 164.366 92.0909 162.739 90.5869 162.739C89.0935 162.739 88.3469 164.355 88.3469 167.587C88.3469 168.942 88.4695 169.96 88.7149 170.643C89.0669 171.656 89.6909 172.163 90.5869 172.163C92.0909 172.163 92.8429 170.648 92.8429 167.619Z" fill="#A3A4A5"/>
<path d="M50.4885 200.338C51.9498 197.864 53.8751 196.626 56.2645 196.626C57.5338 196.626 58.5525 197.021 59.3205 197.81C60.0245 198.525 60.3765 199.432 60.3765 200.53V202.658C60.3765 203.074 60.2378 203.426 59.9605 203.714C59.6831 204.024 59.3418 204.178 58.9365 204.178H50.5045C50.4725 205.384 50.0831 206.322 49.3365 206.994C48.5791 207.666 47.5551 208.002 46.2645 208.002H44.4885C43.2191 208.002 42.2058 207.677 41.4485 207.026C40.6378 206.333 40.2325 205.336 40.2325 204.034V200.69L40.9205 200.13H41.5925V204.002C41.5925 205.069 41.8698 205.81 42.4245 206.226C42.9898 206.653 43.9765 206.866 45.3845 206.866C46.7071 206.866 47.6405 206.685 48.1845 206.322C48.8245 205.885 49.1445 205.112 49.1445 204.002L49.1285 196.818H50.4885V200.338ZM59.0005 200.386C59.0005 199.704 58.7871 199.133 58.3605 198.674C57.8165 198.088 57.0431 197.794 56.0405 197.794C55.1231 197.794 54.2645 198.077 53.4645 198.642C52.2271 199.517 51.2351 200.984 50.4885 203.042H58.4085C58.8031 203.042 59.0005 202.84 59.0005 202.434V200.386ZM68.767 192.722V203.57L68.079 204.178H67.407V194.354L65.423 196.018L64.703 195.122L67.551 192.722H68.767ZM74.4545 192.722V203.57L73.7665 204.178H73.0945V194.354L71.1105 196.018L70.3905 195.122L73.2385 192.722H74.4545ZM77.166 199.698C77.39 199.698 77.5766 199.773 77.726 199.922C77.8753 200.072 77.95 200.258 77.95 200.482C77.95 200.696 77.8753 200.882 77.726 201.042C77.5766 201.192 77.39 201.266 77.166 201.266C76.9526 201.266 76.766 201.192 76.606 201.042C76.4566 200.882 76.382 200.696 76.382 200.482C76.382 200.258 76.4566 200.072 76.606 199.922C76.766 199.773 76.9526 199.698 77.166 199.698ZM77.182 202.69C77.3953 202.69 77.5766 202.765 77.726 202.914C77.886 203.064 77.966 203.25 77.966 203.474C77.966 203.688 77.886 203.874 77.726 204.034C77.5766 204.184 77.3953 204.258 77.182 204.258C76.958 204.258 76.766 204.184 76.606 204.034C76.4566 203.874 76.382 203.688 76.382 203.474C76.382 203.25 76.4566 203.064 76.606 202.914C76.766 202.765 76.958 202.69 77.182 202.69ZM80.2091 192.898C80.9024 192.685 81.4678 192.578 81.9051 192.578C82.9718 192.578 83.8251 192.856 84.4651 193.41C85.0731 193.944 85.3771 194.658 85.3771 195.554C85.3771 197.058 84.7104 197.96 83.3771 198.258C84.1451 198.386 84.7478 198.712 85.1851 199.234C85.6331 199.757 85.8571 200.402 85.8571 201.17C85.8571 202.28 85.4251 203.122 84.5611 203.698C83.8998 204.136 83.0731 204.354 82.0811 204.354C81.4411 204.354 80.8011 204.264 80.1611 204.082L79.6491 203.442V202.946C80.3851 203.106 81.0304 203.186 81.5851 203.186C83.5158 203.186 84.4811 202.536 84.4811 201.234C84.4811 200.53 84.1878 199.938 83.6011 199.458C83.2704 199.192 82.9184 199.01 82.5451 198.914C82.1824 198.808 81.6438 198.749 80.9291 198.738V197.698H82.2891C82.8011 197.698 83.2171 197.533 83.5371 197.202C83.8678 196.861 84.0331 196.424 84.0331 195.89C84.0331 195.261 83.8251 194.765 83.4091 194.402C82.9931 194.029 82.4278 193.842 81.7131 193.842C81.3611 193.842 80.8598 193.912 80.2091 194.05V192.898ZM90.5869 204.386C89.1682 204.386 88.1549 203.645 87.5469 202.162C87.1522 201.213 86.9549 200.034 86.9549 198.626C86.9549 196.856 87.2642 195.394 87.8829 194.242C88.4909 193.09 89.3922 192.514 90.5869 192.514C91.7495 192.514 92.6402 193.074 93.2589 194.194C93.9095 195.336 94.2349 196.797 94.2349 198.578C94.2349 200.253 93.9682 201.597 93.4349 202.61C92.8055 203.794 91.8562 204.386 90.5869 204.386ZM92.8429 198.61C92.8429 195.357 92.0909 193.73 90.5869 193.73C89.0935 193.73 88.3469 195.346 88.3469 198.578C88.3469 199.933 88.4695 200.952 88.7149 201.634C89.0669 202.648 89.6909 203.154 90.5869 203.154C92.0909 203.154 92.8429 201.64 92.8429 198.61Z" fill="#A3A4A5"/>
<path d="M50.4885 231.329C51.9498 228.855 53.8751 227.617 56.2645 227.617C57.5338 227.617 58.5525 228.012 59.3205 228.801C60.0245 229.516 60.3765 230.423 60.3765 231.521V233.649C60.3765 234.065 60.2378 234.417 59.9605 234.705C59.6831 235.015 59.3418 235.169 58.9365 235.169H50.5045C50.4725 236.375 50.0831 237.313 49.3365 237.985C48.5791 238.657 47.5551 238.993 46.2645 238.993H44.4885C43.2191 238.993 42.2058 238.668 41.4485 238.017C40.6378 237.324 40.2325 236.327 40.2325 235.025V231.681L40.9205 231.121H41.5925V234.993C41.5925 236.06 41.8698 236.801 42.4245 237.217C42.9898 237.644 43.9765 237.857 45.3845 237.857C46.7071 237.857 47.6405 237.676 48.1845 237.313C48.8245 236.876 49.1445 236.103 49.1445 234.993L49.1285 227.809H50.4885V231.329ZM59.0005 231.377C59.0005 230.695 58.7871 230.124 58.3605 229.665C57.8165 229.079 57.0431 228.785 56.0405 228.785C55.1231 228.785 54.2645 229.068 53.4645 229.633C52.2271 230.508 51.2351 231.975 50.4885 234.033H58.4085C58.8031 234.033 59.0005 233.831 59.0005 233.425V231.377ZM68.767 223.713V234.561L68.079 235.169H67.407V225.345L65.423 227.009L64.703 226.113L67.551 223.713H68.767ZM74.4545 223.713V234.561L73.7665 235.169H73.0945V225.345L71.1105 227.009L70.3905 226.113L73.2385 223.713H74.4545ZM77.166 230.689C77.39 230.689 77.5766 230.764 77.726 230.913C77.8753 231.063 77.95 231.249 77.95 231.473C77.95 231.687 77.8753 231.873 77.726 232.033C77.5766 232.183 77.39 232.257 77.166 232.257C76.9526 232.257 76.766 232.183 76.606 232.033C76.4566 231.873 76.382 231.687 76.382 231.473C76.382 231.249 76.4566 231.063 76.606 230.913C76.766 230.764 76.9526 230.689 77.166 230.689ZM77.182 233.681C77.3953 233.681 77.5766 233.756 77.726 233.905C77.886 234.055 77.966 234.241 77.966 234.465C77.966 234.679 77.886 234.865 77.726 235.025C77.5766 235.175 77.3953 235.249 77.182 235.249C76.958 235.249 76.766 235.175 76.606 235.025C76.4566 234.865 76.382 234.679 76.382 234.465C76.382 234.241 76.4566 234.055 76.606 233.905C76.766 233.756 76.958 233.681 77.182 233.681ZM80.2091 223.889C80.9024 223.676 81.4678 223.569 81.9051 223.569C82.9718 223.569 83.8251 223.847 84.4651 224.401C85.0731 224.935 85.3771 225.649 85.3771 226.545C85.3771 228.049 84.7104 228.951 83.3771 229.249C84.1451 229.377 84.7478 229.703 85.1851 230.225C85.6331 230.748 85.8571 231.393 85.8571 232.161C85.8571 233.271 85.4251 234.113 84.5611 234.689C83.8998 235.127 83.0731 235.345 82.0811 235.345C81.4411 235.345 80.8011 235.255 80.1611 235.073L79.6491 234.433V233.937C80.3851 234.097 81.0304 234.177 81.5851 234.177C83.5158 234.177 84.4811 233.527 84.4811 232.225C84.4811 231.521 84.1878 230.929 83.6011 230.449C83.2704 230.183 82.9184 230.001 82.5451 229.905C82.1824 229.799 81.6438 229.74 80.9291 229.729V228.689H82.2891C82.8011 228.689 83.2171 228.524 83.5371 228.193C83.8678 227.852 84.0331 227.415 84.0331 226.881C84.0331 226.252 83.8251 225.756 83.4091 225.393C82.9931 225.02 82.4278 224.833 81.7131 224.833C81.3611 224.833 80.8598 224.903 80.2091 225.041V223.889ZM90.5869 235.377C89.1682 235.377 88.1549 234.636 87.5469 233.153C87.1522 232.204 86.9549 231.025 86.9549 229.617C86.9549 227.847 87.2642 226.385 87.8829 225.233C88.4909 224.081 89.3922 223.505 90.5869 223.505C91.7495 223.505 92.6402 224.065 93.2589 225.185C93.9095 226.327 94.2349 227.788 94.2349 229.569C94.2349 231.244 93.9682 232.588 93.4349 233.601C92.8055 234.785 91.8562 235.377 90.5869 235.377ZM92.8429 229.601C92.8429 226.348 92.0909 224.721 90.5869 224.721C89.0935 224.721 88.3469 226.337 88.3469 229.569C88.3469 230.924 88.4695 231.943 88.7149 232.625C89.0669 233.639 89.6909 234.145 90.5869 234.145C92.0909 234.145 92.8429 232.631 92.8429 229.601Z" fill="#A3A4A5"/>
</svg>
