<svg width="13" height="12" viewBox="0 0 13 12" fill="none" xmlns="http://www.w3.org/2000/svg">
<path d="M6.53284 10.0993L3.76618 11.766C3.64395 11.8438 3.51618 11.8771 3.38284 11.866C3.24951 11.8549 3.13284 11.8104 3.03284 11.7327C2.93284 11.6549 2.85506 11.5576 2.79951 11.4407C2.74395 11.3238 2.73284 11.1933 2.76618 11.0493L3.49951 7.89934L1.04951 5.78267C0.938398 5.68267 0.869065 5.56867 0.841509 5.44067C0.813954 5.31267 0.822176 5.18778 0.866176 5.066C0.91062 4.94378 0.977287 4.84378 1.06618 4.766C1.15506 4.68823 1.27729 4.63823 1.43284 4.616L4.66618 4.33267L5.91618 1.366C5.97173 1.23267 6.05795 1.13267 6.17484 1.066C6.29173 0.999337 6.41107 0.966003 6.53284 0.966003C6.65507 0.966003 6.7744 0.999337 6.89084 1.066C7.00729 1.13267 7.09351 1.23267 7.14951 1.366L8.39951 4.33267L11.6328 4.616C11.7884 4.63823 11.9106 4.68823 11.9995 4.766C12.0884 4.84378 12.1551 4.94378 12.1995 5.066C12.244 5.18823 12.2524 5.31334 12.2248 5.44134C12.1973 5.56934 12.1277 5.68311 12.0162 5.78267L9.56618 7.89934L10.2995 11.0493C10.3328 11.1938 10.3217 11.3244 10.2662 11.4413C10.2106 11.5582 10.1328 11.6553 10.0328 11.7327C9.93284 11.8104 9.81618 11.8549 9.68284 11.866C9.54951 11.8771 9.42173 11.8438 9.29951 11.766L6.53284 10.0993Z" fill="#FBB400"/>
</svg>
