<svg width="17" height="17" viewBox="0 0 17 17" fill="none" xmlns="http://www.w3.org/2000/svg">
<path d="M7.2959 1.72517C6.84354 1.57886 6.35385 1.59848 5.91465 1.78052C5.47545 1.96255 5.11546 2.29509 4.89923 2.7185L4.3619 3.76917C4.29804 3.89426 4.19632 3.99598 4.07123 4.05984L3.0199 4.59717C2.59648 4.8134 2.26394 5.17339 2.08191 5.61259C1.89988 6.05179 1.88025 6.54148 2.02656 6.99384L2.39056 8.11717C2.43378 8.25065 2.43378 8.39436 2.39056 8.52784L2.02723 9.65117C1.88092 10.1035 1.90054 10.5932 2.08258 11.0324C2.26461 11.4716 2.59715 11.8316 3.02056 12.0478L4.07123 12.5852C4.19632 12.649 4.29804 12.7507 4.3619 12.8758L4.89923 13.9272C5.11546 14.3506 5.47545 14.6831 5.91465 14.8652C6.35385 15.0472 6.84354 15.0668 7.2959 14.9205L8.41923 14.5565C8.55271 14.5133 8.69642 14.5133 8.8299 14.5565L9.95323 14.9198C10.4055 15.0662 10.8951 15.0467 11.3343 14.8648C11.7735 14.6829 12.1336 14.3505 12.3499 13.9272L12.8872 12.8758C12.9511 12.7507 13.0528 12.649 13.1779 12.5852L14.2292 12.0485C14.6528 11.8323 14.9854 11.4722 15.1675 11.0328C15.3495 10.5935 15.3691 10.1036 15.2226 9.65117L14.8586 8.52784C14.8154 8.39436 14.8154 8.25065 14.8586 8.11717L15.2219 6.99384C15.3683 6.54156 15.3487 6.05193 15.1668 5.61274C14.9849 5.17355 14.6525 4.81351 14.2292 4.59717L13.1779 4.05984C13.0528 3.99598 12.9511 3.89426 12.8872 3.76917L12.3506 2.71784C12.1343 2.29428 11.7742 1.96163 11.3349 1.77959C10.8955 1.59754 10.4057 1.57802 9.95323 1.7245L8.8299 2.0885C8.69642 2.13172 8.55271 2.13172 8.41923 2.0885L7.2959 1.72517ZM5.13123 8.1605L6.0739 7.21784L7.95923 9.10384L11.7306 5.3325L12.6739 6.27517L7.95923 10.9885L5.13123 8.1605Z" fill="#1D9BF0"/>
</svg>
